B612Mono-Italic.sfdir
StartChar: exclam
Encoding: 241 33 241
GlifName: exclam
Width: 1300
VWidth: 0
Flags: W
LayerCount: 2
Fore
SplineSet
664 1500 m 257
NamedP: "at01"
 479 450 l 257
 275 429 l 257
 464 1500 l 257
 664 1500 l 257
NamedP: "at01"
196 106 m 257
 196 136 196 136 209 160 c 128
 222 184 222 184 243 200 c 128
 264 216 264 216 289.5 223.5 c 128
 315 231 315 231 339 227 c 257
NamedP: "av01"
 363 223 363 223 381 211 c 128
 399 199 399 199 411.5 181.5 c 128
 424 164 424 164 430.5 144.5 c 128
 437 125 437 125 438 106 c 257
 439 76 439 76 427.5 51.5 c 128
 416 27 416 27 396.5 10.5 c 128
 377 -6 377 -6 351 -13.5 c 128
 325 -21 325 -21 297 -17 c 257
NamedP: "ab01"
 250 -11 250 -11 223 22 c 128
 196 55 196 55 196 106 c 257
EndSplineSet
PickledDataWithLists: "(dp0
Vcom.fontlab.ttprogram
p1
(c_codecs
encode
p2
(Vdata
p3
Vlatin1
p4
tp5
Rp6
g2
(V<data>\\u000a        <ttProgram>\\u000a          <ttc align=\"round\" code=\"alignv\" point=\"av01\"/>\\u000a          <ttc code=\"alignt\" point=\"at01\" zone=\"t: 1\"/>\\u000a          <ttc code=\"alignb\" point=\"ab01\" zone=\"b: 0\"/>\\u000a        </ttProgram>\\u000a      </data>
p7
g4
tp8
Rp9
Ntp10
s."
EndChar
StartChar: quotedbl
Encoding: 396 34 396
GlifName: quotedbl
Width: 1300
VWidth: 0
Flags: W
LayerCount: 2
Fore
SplineSet
589 1500 m 257
 571 1400 l 257
 565 1362 565 1362 548 1306 c 128
 531 1250 531 1250 513 1196 c 257
 492 1134 492 1134 469 1067 c 257
 382 1067 l 257
NamedP: "av01"
 381 1134 381 1134 382 1196 c 257
 384 1250 384 1250 387 1306 c 128
 390 1362 390 1362 396 1400 c 257
 414 1500 l 257
NamedP: "at01"
 589 1500 l 257
890 1500 m 257
NamedP: "sv01"
 872 1400 l 257
 866 1362 866 1362 849 1306 c 128
 832 1250 832 1250 814 1196 c 257
 793 1134 793 1134 770 1067 c 257
NamedP: "sv02"
 683 1067 l 257
 682 1134 682 1134 683 1196 c 257
 685 1250 685 1250 688 1306 c 128
 691 1362 691 1362 697 1400 c 257
 715 1500 l 257
 890 1500 l 257
NamedP: "sv01"
EndSplineSet
PickledDataWithLists: "(dp0
Vcom.fontlab.ttprogram
p1
(c_codecs
encode
p2
(Vdata
p3
Vlatin1
p4
tp5
Rp6
g2
(V<data>\\u000a        <ttProgram>\\u000a          <ttc align=\"round\" code=\"alignv\" point=\"av01\"/>\\u000a          <ttc code=\"alignt\" point=\"at01\" zone=\"t: 1\"/>\\u000a          <ttc code=\"singlev\" point1=\"at01\" point2=\"sv01\"/>\\u000a          <ttc code=\"singlev\" point1=\"av01\" point2=\"sv02\"/>\\u000a        </ttProgram>\\u000a      </data>
p7
g4
tp8
Rp9
Ntp10
s."
EndChar
StartChar: numbersign
Encoding: 337 35 337
GlifName: numbersign
Width: 1300
VWidth: 0
Flags: W
LayerCount: 2
Fore
SplineSet
1038 950 m 257
 917 550 l 257
 1189 550 l 257
NamedP: "sv01"
 1143 400 l 257
 874 400 l 257
 753 0 l 257
NamedP: "sv02"
 549 -20 l 257
NamedP: "ab03"
 677 400 l 257
 404 400 l 257
 285 0 l 257
NamedP: "ab01"
 82 -20 l 257
NamedP: "ab02"
 207 400 l 257
 39 400 l 257
NamedP: "sv03"
 39 550 l 257
NamedP: "av02"
 250 550 l 257
 372 950 l 257
 110 950 l 257
 156 1100 l 257
NamedP: "av01"
 415 1100 l 257
 472 1285 l 257
 510 1500 l 257
NamedP: "at01"
 739 1520 l 257
NamedP: "at02"
 612 1100 l 257
 885 1100 l 257
 1004 1500 l 257
NamedP: "sv04"
 1208 1520 l 257
NamedP: "at03"
 1083 1100 l 257
 1260 1100 l 257
NamedP: "sv05"
 1260 950 l 257
NamedP: "sv06"
 1038 950 l 257
840 950 m 257
 569 950 l 257
 449 550 l 257
 720 550 l 257
 840 950 l 257
EndSplineSet
PickledDataWithLists: "(dp0
Vcom.fontlab.ttprogram
p1
(c_codecs
encode
p2
(Vdata
p3
Vlatin1
p4
tp5
Rp6
g2
(V<data>\\u000a        <ttProgram>\\u000a          <ttc align=\"round\" code=\"alignv\" point=\"av01\"/>\\u000a          <ttc align=\"round\" code=\"alignv\" point=\"av02\"/>\\u000a          <ttc code=\"alignt\" point=\"at01\" zone=\"t: 1\"/>\\u000a          <ttc code=\"alignt\" point=\"at02\" zone=\"t: 1\"/>\\u000a          <ttc code=\"alignt\" point=\"at03\" zone=\"t: 1\"/>\\u000a          <ttc code=\"alignb\" point=\"ab01\" zone=\"b: 0\"/>\\u000a          <ttc code=\"alignb\" point=\"ab02\" zone=\"b: 0\"/>\\u000a          <ttc code=\"alignb\" point=\"ab03\" zone=\"b: 0\"/>\\u000a          <ttc code=\"singlev\" point1=\"av02\" point2=\"sv01\"/>\\u000a          <ttc code=\"singlev\" point1=\"ab01\" point2=\"sv02\"/>\\u000a          <ttc code=\"singlev\" point1=\"av02\" point2=\"sv03\" stem=\"Y: 162\"/>\\u000a          <ttc code=\"singlev\" point1=\"at01\" point2=\"sv04\"/>\\u000a          <ttc code=\"singlev\" point1=\"av01\" point2=\"sv05\"/>\\u000a          <ttc code=\"singlev\" point1=\"sv05\" point2=\"sv06\" stem=\"Y: 162\"/>\\u000a        </ttProgram>\\u000a      </data>
p7
g4
tp8
Rp9
Ntp10
s."
EndChar
StartChar: dollar
Encoding: 213 36 213
GlifName: dollar
Width: 1300
VWidth: 0
Flags: W
LayerCount: 2
Fore
SplineSet
1090 1252 m 257
 1036 1295 1036 1295 984.5 1319 c 128
 933 1343 933 1343 875 1348 c 257
 785 836 l 257
 839 807 839 807 890.5 773 c 128
 942 739 942 739 982.5 692 c 128
 1023 645 1023 645 1048 581.5 c 128
 1073 518 1073 518 1073 432 c 257
 1073 340 1073 340 1038.5 264.5 c 128
 1004 189 1004 189 944.5 132.5 c 128
 885 76 885 76 805.5 39.5 c 128
 726 3 726 3 635 -10 c 257
 602 -199 l 257
NamedP: "sv01"
 456 -199 l 257
NamedP: "av01"
 488 -17 l 257
 477 -17 l 257
 359 -9 359 -9 264.5 33 c 128
 170 75 170 75 100 134 c 257
 218 284 l 257
 242 262 242 262 271 240 c 128
 300 218 300 218 334 199 c 128
 368 180 368 180 407.5 166.5 c 128
 447 153 447 153 492 148 c 257
 498 147 498 147 504 146.5 c 128
 510 146 510 146 517 146 c 257
 616 707 l 257
 559 738 559 738 503 773.5 c 128
 447 809 447 809 402.5 856.5 c 128
 358 904 358 904 330.5 967 c 128
 303 1030 303 1030 303 1116 c 257
 303 1207 303 1207 340 1277.5 c 128
 377 1348 377 1348 439.5 1397.5 c 128
 502 1447 502 1447 584.5 1476 c 128
 667 1505 667 1505 758 1513 c 257
 791 1701 l 257
 941 1721 l 257
NamedP: "av02"
 904 1512 l 257
 953 1505 953 1505 997 1490.5 c 128
 1041 1476 1041 1476 1079 1457 c 128
 1117 1438 1117 1438 1148.5 1415.5 c 128
 1180 1393 1180 1393 1206 1371 c 257
 1090 1252 l 257
679 896 m 257
 758 1342 l 257
 706 1332 706 1332 659.5 1311 c 128
 613 1290 613 1290 578.5 1259 c 128
 544 1228 544 1228 524 1188 c 128
 504 1148 504 1148 506 1101 c 257
 507 1063 507 1063 520.5 1033.5 c 128
 534 1004 534 1004 557 979 c 128
 580 954 580 954 611 933 c 128
 642 912 642 912 677 893 c 257
 679 896 l 257
869 433 m 257
 869 470 869 470 857.5 500.5 c 128
 846 531 846 531 826 556.5 c 128
 806 582 806 582 779 604 c 128
 752 626 752 626 721 646 c 257
 635 157 l 257
 680 168 680 168 722.5 190 c 128
 765 212 765 212 797.5 246 c 128
 830 280 830 280 849.5 326.5 c 128
 869 373 869 373 869 433 c 257
EndSplineSet
PickledDataWithLists: "(dp0
Vcom.fontlab.ttprogram
p1
(c_codecs
encode
p2
(Vdata
p3
Vlatin1
p4
tp5
Rp6
g2
(V<data>\\u000a        <ttProgram>\\u000a          <ttc align=\"round\" code=\"alignv\" point=\"av01\"/>\\u000a          <ttc align=\"round\" code=\"alignv\" point=\"av02\"/>\\u000a          <ttc code=\"singlev\" point1=\"av01\" point2=\"sv01\"/>\\u000a        </ttProgram>\\u000a      </data>
p7
g4
tp8
Rp9
Ntp10
s."
EndChar
StartChar: percent
Encoding: 370 37 370
GlifName: percent
Width: 1300
VWidth: 0
Flags: W
LayerCount: 2
Fore
SplineSet
272 0 m 257
 86 0 l 257
 1027 1500 l 257
 1213 1500 l 257
 272 0 l 257
327 800 m 257
NamedP: "av01"
 257 800 257 800 212.5 827.5 c 128
 168 855 168 855 145.5 903.5 c 128
 123 952 123 952 120.5 1018.5 c 128
 118 1085 118 1085 132 1162 c 257
 145 1238 145 1238 170 1303.5 c 128
 195 1369 195 1369 234 1416 c 128
 273 1463 273 1463 327 1490 c 128
 381 1517 381 1517 454 1517 c 257
NamedP: "at01"
 524 1517 524 1517 568 1490 c 128
 612 1463 612 1463 634.5 1416 c 128
 657 1369 657 1369 659.5 1303.5 c 128
 662 1238 662 1238 649 1162 c 257
 635 1085 635 1085 610 1018.5 c 128
 585 952 585 952 546 903.5 c 128
 507 855 507 855 453 827.5 c 128
 399 800 399 800 327 800 c 257
NamedP: "av01"
509 1210 m 257
 515 1245 515 1245 517.5 1277 c 128
 520 1309 520 1309 513.5 1333 c 128
 507 1357 507 1357 487.5 1371.5 c 128
 468 1386 468 1386 430 1386 c 257
 393 1386 393 1386 369.5 1373 c 128
 346 1360 346 1360 331.5 1338 c 128
 317 1316 317 1316 309 1286.5 c 128
 301 1257 301 1257 295 1224 c 257
 277 1123 l 257
 271 1087 271 1087 268 1054.5 c 128
 265 1022 265 1022 272 997.5 c 128
 279 973 279 973 299 958.5 c 128
 319 944 319 944 357 944 c 257
 393 944 393 944 416.5 957 c 128
 440 970 440 970 454.5 992 c 128
 469 1014 469 1014 476.5 1043.5 c 128
 484 1073 484 1073 490 1105 c 257
 509 1210 l 257
846 -17 m 257
NamedP: "ab01"
 776 -17 776 -17 731.5 10.5 c 128
 687 38 687 38 664.5 86.5 c 128
 642 135 642 135 639.5 201.5 c 128
 637 268 637 268 651 345 c 257
 664 421 664 421 689 486.5 c 128
 714 552 714 552 753 599 c 128
 792 646 792 646 846 673 c 128
 900 700 900 700 973 700 c 257
NamedP: "av02"
 1043 700 1043 700 1087 673 c 128
 1131 646 1131 646 1153.5 599 c 128
 1176 552 1176 552 1178.5 486.5 c 128
 1181 421 1181 421 1168 345 c 257
 1154 268 1154 268 1129 201.5 c 128
 1104 135 1104 135 1065 86.5 c 128
 1026 38 1026 38 972 10.5 c 128
 918 -17 918 -17 846 -17 c 257
NamedP: "ab01"
1028 393 m 257
 1034 428 1034 428 1036.5 460 c 128
 1039 492 1039 492 1032.5 516 c 128
 1026 540 1026 540 1006.5 554.5 c 128
 987 569 987 569 949 569 c 257
 912 569 912 569 888.5 556 c 128
 865 543 865 543 850.5 521 c 128
 836 499 836 499 828 469.5 c 128
 820 440 820 440 814 407 c 257
 796 306 l 257
 790 270 790 270 787 237.5 c 128
 784 205 784 205 791 180.5 c 128
 798 156 798 156 818 141.5 c 128
 838 127 838 127 876 127 c 257
 912 127 912 127 935.5 140 c 128
 959 153 959 153 973.5 175 c 128
 988 197 988 197 995.5 226.5 c 128
 1003 256 1003 256 1009 288 c 257
 1028 393 l 257
EndSplineSet
PickledDataWithLists: "(dp0
Vcom.fontlab.ttprogram
p1
(c_codecs
encode
p2
(Vdata
p3
Vlatin1
p4
tp5
Rp6
g2
(V<data>\\u000a        <ttProgram>\\u000a          <ttc align=\"round\" code=\"alignv\" point=\"av01\"/>\\u000a          <ttc align=\"round\" code=\"alignv\" point=\"av02\"/>\\u000a          <ttc code=\"alignt\" point=\"at01\" zone=\"t: 1\"/>\\u000a          <ttc code=\"alignb\" point=\"ab01\" zone=\"b: 0\"/>\\u000a        </ttProgram>\\u000a      </data>
p7
g4
tp8
Rp9
Ntp10
s."
EndChar
StartChar: ampersand
Encoding: 99 38 99
GlifName: ampersand
Width: 1300
VWidth: 0
Flags: W
LayerCount: 2
Fore
SplineSet
1221 721 m 257
NamedP: "av01"
 1207 642 1207 642 1185.5 562.5 c 128
 1164 483 1164 483 1129.5 408 c 128
 1095 333 1095 333 1045 265 c 128
 995 197 995 197 925 141 c 257
 1017 141 l 257
 1109 -20 l 257
NamedP: "sv01"
 887 -20 l 257
NamedP: "ab02"
 828 77 l 257
 743 27 743 27 651.5 5 c 128
 560 -17 560 -17 464 -17 c 257
NamedP: "ab01"
 361 -17 361 -17 284.5 20.5 c 128
 208 58 208 58 161 122 c 128
 114 186 114 186 97 270 c 128
 80 354 80 354 96 447 c 257
 113 542 113 542 151.5 615.5 c 128
 190 689 190 689 239 742.5 c 128
 288 796 288 796 341.5 830 c 128
 395 864 395 864 442 881 c 257
 428 909 428 909 415 945.5 c 128
 402 982 402 982 393 1021 c 128
 384 1060 384 1060 381.5 1100 c 128
 379 1140 379 1140 385 1176 c 257
 398 1248 398 1248 428.5 1310 c 128
 459 1372 459 1372 510 1418 c 128
 561 1464 561 1464 633.5 1490.5 c 128
 706 1517 706 1517 802 1517 c 257
NamedP: "at01"
 868 1517 868 1517 917.5 1499.5 c 128
 967 1482 967 1482 1003.5 1455.5 c 128
 1040 1429 1040 1429 1066 1397.5 c 128
 1092 1366 1092 1366 1110 1338 c 257
 1006 1200 l 257
 995 1226 995 1226 977 1254 c 128
 959 1282 959 1282 930.5 1305.5 c 128
 902 1329 902 1329 861.5 1344 c 128
 821 1359 821 1359 766 1359 c 257
 718 1359 718 1359 682.5 1340 c 128
 647 1321 647 1321 622 1293 c 128
 597 1265 597 1265 582.5 1233 c 128
 568 1201 568 1201 564 1175 c 257
 562 1161 562 1161 561.5 1145.5 c 128
 561 1130 561 1130 563 1112 c 257
 564 1097 564 1097 571.5 1074 c 128
 579 1051 579 1051 594 1013.5 c 128
 609 976 609 976 633.5 920.5 c 128
 658 865 658 865 693 785.5 c 128
 728 706 728 706 776 599 c 128
 824 492 824 492 886 352 c 257
 916 386 916 386 937 423 c 128
 958 460 958 460 973.5 502 c 128
 989 544 989 544 1000.5 592.5 c 128
 1012 641 1012 641 1023 700 c 257
 1221 721 l 257
NamedP: "av01"
466 700 m 257
 398 671 398 671 351 612 c 128
 304 553 304 553 287 457 c 257
 274 385 274 385 290.5 331 c 128
 307 277 307 277 341.5 241 c 128
 376 205 376 205 423 187.5 c 128
 470 170 470 170 520 170 c 257
 563 170 563 170 596.5 175 c 128
 630 180 630 180 657 188.5 c 128
 684 197 684 197 705.5 208.5 c 128
 727 220 727 220 746 234 c 257
 484 800 l 257
 466 700 l 257
EndSplineSet
PickledDataWithLists: "(dp0
Vcom.fontlab.ttprogram
p1
(c_codecs
encode
p2
(Vdata
p3
Vlatin1
p4
tp5
Rp6
g2
(V<data>\\u000a        <ttProgram>\\u000a          <ttc align=\"round\" code=\"alignv\" point=\"av01\"/>\\u000a          <ttc code=\"alignt\" point=\"at01\" zone=\"t: 1\"/>\\u000a          <ttc code=\"alignb\" point=\"ab01\" zone=\"b: 0\"/>\\u000a          <ttc code=\"alignb\" point=\"ab02\" zone=\"b: 0\"/>\\u000a          <ttc code=\"singlev\" point1=\"ab02\" point2=\"sv01\"/>\\u000a        </ttProgram>\\u000a      </data>
p7
g4
tp8
Rp9
Ntp10
s."
EndChar
StartChar: quotesingle
Encoding: 403 39 403
GlifName: quotesingle
Width: 1300
VWidth: 0
Flags: W
LayerCount: 2
Fore
SplineSet
414 1500 m 257,0,-1
NamedP: "at01"
 589 1500 l 257,1,-1
NamedP: "sv01"
 571 1400 l 257,2,3
 558 1326 558 1326 507.5 1240.5 c 128,-1,4
 457 1155 457 1155 372 1067 c 257,5,-1
NamedP: "sv02"
 328 1067 l 257,6,7
NamedP: "av01"
 343 1143 343 1143 358 1209 c 257,8,9
 364 1237 364 1237 369.5 1266 c 128,-1,10
 375 1295 375 1295 380.5 1320.5 c 128,-1,11
 386 1346 386 1346 390 1367 c 128,-1,12
 394 1388 394 1388 396 1400 c 257,13,-1
 414 1500 l 257,0,-1
NamedP: "at01"
EndSplineSet
PickledDataWithLists: "(dp0
Vcom.fontlab.ttprogram
p1
(c_codecs
encode
p2
(Vdata
p3
Vlatin1
p4
tp5
Rp6
g2
(V<data>\\u000a        <ttProgram>\\u000a          <ttc align=\"round\" code=\"alignv\" point=\"av01\"/>\\u000a          <ttc code=\"alignt\" point=\"at01\" zone=\"t: 1\"/>\\u000a          <ttc code=\"singlev\" point1=\"at01\" point2=\"sv01\"/>\\u000a          <ttc code=\"singlev\" point1=\"av01\" point2=\"sv02\"/>\\u000a        </ttProgram>\\u000a      </data>
p7
g4
tp8
Rp9
Ntp10
s."
EndChar
StartChar: parenright
Encoding: 366 41 366
GlifName: parenright
Width: 1300
VWidth: 0
Flags: W
LayerCount: 2
Fore
SplineSet
650 0 m 257,0,1
NamedP: "ah01"
 638 -67 638 -67 627.5 -124.5 c 128,-1,2
 617 -182 617 -182 601.5 -229 c 128,-1,3
 586 -276 586 -276 562.5 -312 c 128,-1,4
 539 -348 539 -348 502 -372 c 128,-1,5
 465 -396 465 -396 411 -408.5 c 128,-1,6
NamedP: "av02"
 357 -421 357 -421 281 -420 c 257,7,8
 261 -420 261 -420 241 -418 c 128,-1,9
 221 -416 221 -416 203 -413 c 128,-1,10
 185 -410 185 -410 170 -405.5 c 128,-1,11
 155 -401 155 -401 147 -395 c 257,12,-1
 238 -269 l 257,13,-1
 252 -272 l 257,14,15
 258 -273 258 -273 267 -273.5 c 128,-1,16
 276 -274 276 -274 287 -274 c 257,17,18
 338 -274 338 -274 367 -252.5 c 128,-1,19
 396 -231 396 -231 412 -195.5 c 128,-1,20
 428 -160 428 -160 436 -113 c 128,-1,21
 444 -66 444 -66 453 -14 c 257,22,-1
 666 1194 l 257,23,24
NamedP: "ah02"
 675 1246 675 1246 681.5 1292.5 c 128,-1,25
 688 1339 688 1339 683 1374 c 128,-1,26
 678 1409 678 1409 657.5 1430.5 c 128,-1,27
 637 1452 637 1452 592 1454 c 257,28,29
 581 1455 581 1455 572 1453.5 c 128,-1,30
 563 1452 563 1452 555 1451 c 257,31,-1
 541 1449 l 257,32,-1
 494 1575 l 257,33,34
 504 1581 504 1581 520.5 1585.5 c 128,-1,35
 537 1590 537 1590 556.5 1593.5 c 128,-1,36
 576 1597 576 1597 597 1598.5 c 128,-1,37
 618 1600 618 1600 638 1600 c 257,38,39
NamedP: "av01"
 731 1600 731 1600 783 1566.5 c 128,-1,40
 835 1533 835 1533 856.5 1475.5 c 128,-1,41
 878 1418 878 1418 875.5 1341.5 c 128,-1,42
 873 1265 873 1265 858 1180 c 257,43,-1
 650 0 l 257,0,1
NamedP: "ah01"
EndSplineSet
PickledDataWithLists: "(dp0
Vcom.fontlab.ttprogram
p1
(c_codecs
encode
p2
(Vdata
p3
Vlatin1
p4
tp5
Rp6
g2
(V<data>\\u000a        <ttProgram>\\u000a          <ttc align=\"round\" code=\"alignh\" point=\"ah01\"/>\\u000a          <ttc align=\"round\" code=\"alignh\" point=\"ah02\"/>\\u000a          <ttc align=\"round\" code=\"alignv\" point=\"av01\"/>\\u000a          <ttc align=\"round\" code=\"alignv\" point=\"av02\"/>\\u000a        </ttProgram>\\u000a      </data>
p7
g4
tp8
Rp9
Ntp10
s."
EndChar
StartChar: asterisk
Encoding: 125 42 125
GlifName: asterisk
Width: 1300
VWidth: 0
Flags: W
LayerCount: 2
Fore
SplineSet
706 994 m 257
 812 802 l 257
 697 712 l 257
 584 918 l 257
 573 990 l 257
 536 918 l 257
 363 726 l 257
 258 793 l 257
 442 996 l 257
 515 1041 l 257
 435 1045 l 257
 225 1118 l 257
NamedP: "mh01"
 275 1249 l 257
 499 1172 l 257
 556 1120 l 257
 548 1202 l 257
 590 1436 l 257
 725 1450 l 257
 681 1198 l 257
 641 1118 l 257
 715 1168 l 257
 953 1240 l 257
 986 1118 l 257
 730 1040 l 257
 650 1037 l 257
 706 994 l 257
EndSplineSet
PickledDataWithLists: "(dp0
Vcom.fontlab.ttprogram
p1
(c_codecs
encode
p2
(Vdata
p3
Vlatin1
p4
tp5
Rp6
g2
(V<data>\\u000a        <ttProgram>\\u000a          <ttc code=\"mdeltah\" delta=\"2\" point=\"mh01\" ppm1=\"13\" ppm2=\"13\"/>\\u000a          <ttc code=\"mdeltav\" delta=\"1\" point=\"mh01\" ppm1=\"13\" ppm2=\"13\"/>\\u000a        </ttProgram>\\u000a      </data>
p7
g4
tp8
Rp9
Ntp10
s."
EndChar
StartChar: plus
Encoding: 384 43 384
GlifName: plus
Width: 1300
VWidth: 0
Flags: W
LayerCount: 2
Fore
SplineSet
223 700 m 257
NamedP: "av02"
 596 700 l 257
 671 1123 l 257
NamedP: "av01"
 826 1123 l 257
NamedP: "sv01"
 751 700 l 257
 1123 700 l 257
NamedP: "sv02"
 1096 545 l 257
 724 545 l 257
 649 122 l 257
NamedP: "sv03"
 494 122 l 257
NamedP: "av03"
 569 545 l 257
 196 545 l 257
 223 700 l 257
NamedP: "av02"
EndSplineSet
PickledDataWithLists: "(dp0
Vcom.fontlab.ttprogram
p1
(c_codecs
encode
p2
(Vdata
p3
Vlatin1
p4
tp5
Rp6
g2
(V<data>\\u000a        <ttProgram>\\u000a          <ttc align=\"round\" code=\"alignv\" point=\"av01\"/>\\u000a          <ttc align=\"round\" code=\"alignv\" point=\"av02\"/>\\u000a          <ttc align=\"round\" code=\"alignv\" point=\"av03\"/>\\u000a          <ttc code=\"singlev\" point1=\"av01\" point2=\"sv01\"/>\\u000a          <ttc code=\"singlev\" point1=\"av02\" point2=\"sv02\"/>\\u000a          <ttc code=\"singlev\" point1=\"av03\" point2=\"sv03\"/>\\u000a        </ttProgram>\\u000a      </data>
p7
g4
tp8
Rp9
Ntp10
s."
EndChar
StartChar: comma
Encoding: 191 44 191
GlifName: comma
Width: 1300
VWidth: 0
Flags: W
LayerCount: 2
Fore
SplineSet
127 127 m 257,0,1
 132 156 132 156 148.5 182.5 c 128,-1,2
 165 209 165 209 188.5 228 c 128,-1,3
 212 247 212 247 241 259 c 128,-1,4
 270 271 270 271 300 271 c 257,5,6
NamedP: "av01"
 329 271 329 271 354 260.5 c 128,-1,7
 379 250 379 250 396 230 c 128,-1,8
 413 210 413 210 420 179.5 c 128,-1,9
 427 149 427 149 420 110 c 257,10,11
 411 57 411 57 395.5 7.5 c 128,-1,12
 380 -42 380 -42 350.5 -93 c 128,-1,13
 321 -144 321 -144 274 -197 c 128,-1,14
 227 -250 227 -250 155 -307 c 257,15,-1
 107 -284 l 257,16,17
 137 -240 137 -240 164 -193 c 257,18,19
 186 -154 186 -154 206.5 -107.5 c 128,-1,20
 227 -61 227 -61 235 -17 c 257,21,22
 210 -16 210 -16 187.5 -6 c 128,-1,23
 165 4 165 4 149.5 21.5 c 128,-1,24
 134 39 134 39 127.5 66 c 128,-1,25
 121 93 121 93 127 127 c 257,0,1
EndSplineSet
PickledDataWithLists: "(dp0
Vcom.fontlab.ttprogram
p1
(c_codecs
encode
p2
(Vdata
p3
Vlatin1
p4
tp5
Rp6
g2
(V<data>\\u000a        <ttProgram>\\u000a          <ttc align=\"round\" code=\"alignv\" point=\"av01\"/>\\u000a        </ttProgram>\\u000a      </data>
p7
g4
tp8
Rp9
Ntp10
s."
EndChar
StartChar: hyphen
Encoding: 283 45 283
GlifName: hyphen
Width: 1300
VWidth: 0
Flags: W
LayerCount: 2
Fore
SplineSet
300 600 m 257
 800 600 l 257
 773 445 l 257
NamedP: "sv01"
 273 445 l 257
NamedP: "av01"
 300 600 l 257
EndSplineSet
PickledDataWithLists: "(dp0
Vcom.fontlab.ttprogram
p1
(c_codecs
encode
p2
(Vdata
p3
Vlatin1
p4
tp5
Rp6
g2
(V<data>\\u000a        <ttProgram>\\u000a          <ttc align=\"round\" code=\"alignv\" point=\"av01\"/>\\u000a          <ttc code=\"singlev\" point1=\"av01\" point2=\"sv01\"/>\\u000a        </ttProgram>\\u000a      </data>
p7
g4
tp8
Rp9
Ntp10
s."
EndChar
StartChar: period
Encoding: 371 46 371
GlifName: period
Width: 1300
VWidth: 0
Flags: W
LayerCount: 2
Fore
SplineSet
107 150 m 257
 113 184 113 184 131 214 c 128
 149 244 149 244 175.5 266.5 c 128
 202 289 202 289 234 302 c 128
 266 315 266 315 300 315 c 257
 334 315 334 315 361.5 302 c 128
 389 289 389 289 407.5 266.5 c 128
 426 244 426 244 434 214 c 128
 442 184 442 184 436 150 c 257
 430 116 430 116 411.5 85.5 c 128
 393 55 393 55 367 32.5 c 128
 341 10 341 10 309 -3.5 c 128
 277 -17 277 -17 243 -17 c 257
 209 -17 209 -17 181 -3.5 c 128
 153 10 153 10 134.5 32.5 c 128
 116 55 116 55 108.5 85.5 c 128
 101 116 101 116 107 150 c 257
EndSplineSet
EndChar
StartChar: zero
Encoding: 585 48 585
GlifName: zero
Width: 1300
VWidth: 0
Flags: W
LayerCount: 2
Fore
SplineSet
509 -17 m 257
NamedP: "ab01"
 424 -7 424 -7 362 29.5 c 128
 300 66 300 66 256.5 122 c 128
 213 178 213 178 186.5 250 c 128
 160 322 160 322 147.5 403.5 c 128
 135 485 135 485 134.5 573.5 c 128
 134 662 134 662 142 750 c 257
 150 841 150 841 175 936 c 128
 200 1031 200 1031 240 1119 c 128
 280 1207 280 1207 335 1284 c 128
 390 1361 390 1361 458 1416 c 128
 526 1471 526 1471 606.5 1498.5 c 128
 687 1526 687 1526 779 1517 c 257
NamedP: "at01"
 862 1508 862 1508 924 1472.5 c 128
 986 1437 986 1437 1030.5 1381 c 128
 1075 1325 1075 1325 1102 1252 c 128
 1129 1179 1129 1179 1142.5 1096.5 c 128
 1156 1014 1156 1014 1156 925.5 c 128
 1156 837 1156 837 1146 750 c 257
 1135 658 1135 658 1108.5 563 c 128
 1082 468 1082 468 1040.5 379 c 128
 999 290 999 290 943.5 213 c 128
 888 136 888 136 821 81 c 128
 754 26 754 26 675.5 -1 c 128
 597 -28 597 -28 509 -17 c 257
NamedP: "ab01"
348 793 m 257
 340 735 340 735 333 667.5 c 128
 326 600 326 600 325.5 531.5 c 128
 325 463 325 463 334 399 c 128
 343 335 343 335 368 283.5 c 128
 393 232 393 232 436 198.5 c 128
 479 165 479 165 547 158 c 257
NamedP: "av02"
 605 152 605 152 655.5 173 c 128
 706 194 706 194 748 234 c 128
 790 274 790 274 823.5 329.5 c 128
 857 385 857 385 881 448 c 128
 905 511 905 511 919.5 577.5 c 128
 934 644 934 644 939 707 c 257
 943 765 943 765 948.5 833 c 128
 954 901 954 901 954 969.5 c 128
 954 1038 954 1038 945.5 1102 c 128
 937 1166 937 1166 913.5 1217 c 128
 890 1268 890 1268 848 1301 c 128
 806 1334 806 1334 740 1341 c 257
NamedP: "av01"
 679 1347 679 1347 629 1326.5 c 128
 579 1306 579 1306 538.5 1266 c 128
 498 1226 498 1226 466 1170.5 c 128
 434 1115 434 1115 411 1052 c 128
 388 989 388 989 372.5 922.5 c 128
 357 856 357 856 348 793 c 257
EndSplineSet
PickledDataWithLists: "(dp0
Vcom.fontlab.ttprogram
p1
(c_codecs
encode
p2
(Vdata
p3
Vlatin1
p4
tp5
Rp6
g2
(V<data>\\u000a        <ttProgram>\\u000a          <ttc align=\"round\" code=\"alignv\" point=\"av01\"/>\\u000a          <ttc align=\"round\" code=\"alignv\" point=\"av02\"/>\\u000a          <ttc code=\"alignt\" point=\"at01\" zone=\"t: 1\"/>\\u000a          <ttc code=\"alignb\" point=\"ab01\" zone=\"b: 0\"/>\\u000a        </ttProgram>\\u000a      </data>
p7
g4
tp8
Rp9
Ntp10
sVcom.typemytype.robofont.guides
p11
(lp12
(dp13
Vangle
p14
I0
sVisGlobal
p15
I00
sVmagnetic
p16
I5
sVx
p17
I0
sVy
p18
I700
sas."
EndChar
StartChar: one
Encoding: 348 49 348
GlifName: one
Width: 1300
VWidth: 0
Flags: W
LayerCount: 2
Fore
SplineSet
268 0 m 257
 296 160 l 257
 541 160 l 257
 711 1126 l 257
 809 1353 l 257
 640 1167 l 257
 395 979 l 257
 308 1100 l 257
 841 1520 l 257
 977 1500 l 257
 741 160 l 257
 986 160 l 257
 958 0 l 257
 268 0 l 257
EndSplineSet
EndChar
StartChar: two
Encoding: 534 50 534
GlifName: two
Width: 1300
VWidth: 0
Flags: W
LayerCount: 2
Fore
SplineSet
71 0 m 257
NamedP: "ab01"
 100 168 l 257
 169 266 169 266 240.5 347 c 128
 312 428 312 428 384 497 c 128
 456 566 456 566 527 625.5 c 128
 598 685 598 685 665 739 c 257
 725 787 725 787 779 833.5 c 128
 833 880 833 880 874 926.5 c 128
 915 973 915 973 939 1021.5 c 128
 963 1070 963 1070 963 1123 c 257
 963 1177 963 1177 949 1220 c 128
 935 1263 935 1263 903.5 1292 c 128
 872 1321 872 1321 822 1336.5 c 128
 772 1352 772 1352 699 1352 c 257
 651 1352 651 1352 610.5 1335.5 c 128
 570 1319 570 1319 536 1292 c 128
 502 1265 502 1265 474.5 1230.5 c 128
 447 1196 447 1196 426 1160 c 257
 296 1220 l 257
 362 1362 362 1362 480 1439.5 c 128
 598 1517 598 1517 752 1517 c 257
NamedP: "at01"
 762 1517 762 1517 771.5 1517 c 128
 781 1517 781 1517 791 1516 c 257
 882 1510 882 1510 948.5 1475 c 128
 1015 1440 1015 1440 1058.5 1386 c 128
 1102 1332 1102 1332 1123 1265 c 128
 1144 1198 1144 1198 1144 1128 c 257
 1144 1122 1144 1122 1143.5 1116 c 128
 1143 1110 1143 1110 1143 1104 c 257
 1139 1025 1139 1025 1101.5 956.5 c 128
 1064 888 1064 888 1010 827 c 128
 956 766 956 766 892.5 712 c 128
 829 658 829 658 772 607 c 257
 700 542 700 542 635.5 485 c 128
 571 428 571 428 515.5 374 c 128
 460 320 460 320 414 267.5 c 128
 368 215 368 215 333 160 c 257
 1003 160 l 257
 975 0 l 257
 71 0 l 257
NamedP: "ab01"
EndSplineSet
PickledDataWithLists: "(dp0
Vcom.fontlab.ttprogram
p1
(c_codecs
encode
p2
(Vdata
p3
Vlatin1
p4
tp5
Rp6
g2
(V<data>\\u000a        <ttProgram>\\u000a          <ttc code=\"alignt\" point=\"at01\" zone=\"t: 1\"/>\\u000a          <ttc code=\"alignb\" point=\"ab01\" zone=\"b: 0\"/>\\u000a        </ttProgram>\\u000a      </data>
p7
g4
tp8
Rp9
Ntp10
s."
EndChar
StartChar: three
Encoding: 522 51 522
GlifName: three
Width: 1300
VWidth: 0
Flags: W
LayerCount: 2
Fore
SplineSet
371 1340 m 257
 414 1500 l 257
 1144 1500 l 257
 1119 1360 l 257
 1100 1320 1100 1320 1064 1276.5 c 128
 1028 1233 1028 1233 981.5 1189 c 128
 935 1145 935 1145 882 1101.5 c 128
 829 1058 829 1058 776 1019 c 257
 631 948 l 257
 702 948 l 257
 769 948 769 948 834.5 923 c 128
 900 898 900 898 952 852 c 128
 1004 806 1004 806 1036 741 c 128
 1068 676 1068 676 1068 597 c 257
 1068 485 1068 485 1027.5 397 c 128
 987 309 987 309 917.5 242.5 c 128
 848 176 848 176 755 130 c 128
 662 84 662 84 557 55 c 128
 452 26 452 26 339.5 13 c 128
 227 0 227 0 120 0 c 257
 148 160 l 257
 227 161 227 161 310.5 173 c 128
 394 185 394 185 473.5 207.5 c 128
 553 230 553 230 623.5 262.5 c 128
 694 295 694 295 747.5 337 c 128
 801 379 801 379 832 430.5 c 128
 863 482 863 482 863 543 c 257
 863 606 863 606 840 653 c 128
 817 700 817 700 775 730.5 c 128
 733 761 733 761 674.5 776 c 128
 616 791 616 791 546 791 c 257
 501 791 501 791 458 790 c 128
 415 789 415 789 373 786 c 257
 400 940 l 257
 446 970 446 970 501 1008 c 128
 556 1046 556 1046 613 1087.5 c 128
 670 1129 670 1129 724.5 1171.5 c 128
 779 1214 779 1214 824.5 1252.5 c 128
 870 1291 870 1291 902 1324.5 c 128
 934 1358 934 1358 946 1380 c 257
 787 1340 l 257
 371 1340 l 257
EndSplineSet
EndChar
StartChar: four
Encoding: 260 52 260
GlifName: four
Width: 1300
VWidth: 0
Flags: W
LayerCount: 2
Fore
SplineSet
1107 300 m 257
 927 300 l 257
 875 0 l 257
 675 0 l 257
 727 300 l 257
 132 300 l 257
 163 471 l 257
 832 1520 l 257
 1017 1500 l 257
 443 600 l 257
 326 460 l 257
 756 460 l 257
 827 867 l 257
 1024 850 l 257
 956 460 l 257
 1151 460 l 257
 1107 300 l 257
EndSplineSet
EndChar
StartChar: five
Encoding: 252 53 252
GlifName: five
Width: 1300
VWidth: 0
Flags: W
LayerCount: 2
Fore
SplineSet
492 982 m 257
 500 986 500 986 518 995 c 128
 536 1004 536 1004 560 1013 c 128
 584 1022 584 1022 611.5 1028.5 c 128
 639 1035 639 1035 666 1035 c 257
 769 1035 769 1035 843.5 1006 c 128
 918 977 918 977 966 926 c 128
 1014 875 1014 875 1037 805.5 c 128
 1060 736 1060 736 1060 655 c 257
 1060 539 1060 539 1022.5 446 c 128
 985 353 985 353 919.5 280 c 128
 854 207 854 207 764.5 154 c 128
 675 101 675 101 570.5 67 c 128
 466 33 466 33 351.5 16.5 c 128
 237 0 237 0 121 0 c 257
 149 160 l 257
 245 160 245 160 335 175.5 c 128
 425 191 425 191 504 219 c 128
 583 247 583 247 649 287 c 128
 715 327 715 327 762 378 c 128
 809 429 809 429 835 489.5 c 128
 861 550 861 550 861 619 c 257
 861 668 861 668 844 712.5 c 128
 827 757 827 757 795 791 c 128
 763 825 763 825 718 845.5 c 128
 673 866 673 866 618 866 c 257
 536 866 536 866 479.5 849 c 128
 423 832 423 832 376 800 c 257
 262 800 l 257
 385 1500 l 257
 1128 1500 l 257
 1100 1340 l 257
 555 1340 l 257
 492 982 l 257
EndSplineSet
EndChar
StartChar: six
Encoding: 447 54 447
GlifName: six
Width: 1300
VWidth: 0
Flags: W
LayerCount: 2
Fore
SplineSet
1065 1344 m 257
 1059 1346 1059 1346 1045.5 1346.5 c 128
 1032 1347 1032 1347 1021 1347 c 257
 933 1347 933 1347 855.5 1324.5 c 128
 778 1302 778 1302 711 1261 c 128
 644 1220 644 1220 587.5 1163 c 128
 531 1106 531 1106 485.5 1037.5 c 128
 440 969 440 969 405.5 891 c 128
 371 813 371 813 348 730 c 257
 452 847 l 257
 478 862 478 862 511 876.5 c 128
 544 891 544 891 580 902.5 c 128
 616 914 616 914 652.5 921 c 128
 689 928 689 928 722 928 c 257
NamedP: "av01"
 808 928 808 928 879.5 906 c 128
 951 884 951 884 1002 837 c 128
 1053 790 1053 790 1081.5 717 c 128
 1110 644 1110 644 1110 541 c 257
NamedP: "ah01"
 1110 429 1110 429 1067 327.5 c 128
 1024 226 1024 226 950 149 c 128
 876 72 876 72 776.5 26.5 c 128
 677 -19 677 -19 565 -19 c 257
NamedP: "ab01"
 554 -19 554 -19 544 -18.5 c 128
 534 -18 534 -18 523 -17 c 257
 445 -11 445 -11 385.5 16.5 c 128
 326 44 326 44 283 85.5 c 128
 240 127 240 127 211.5 180.5 c 128
 183 234 183 234 166 293 c 128
 149 352 149 352 142 412.5 c 128
 135 473 135 473 135 530 c 257
NamedP: "ah02"
 135 658 135 658 166.5 781 c 128
 198 904 198 904 256.5 1013.5 c 128
 315 1123 315 1123 398 1215.5 c 128
 481 1308 481 1308 584 1375 c 128
 687 1442 687 1442 807 1479.5 c 128
 927 1517 927 1517 1060 1517 c 257
NamedP: "at01"
 1075 1517 1075 1517 1093 1516.5 c 128
 1111 1516 1111 1516 1120 1514 c 257
 1065 1344 l 257
328 597 m 257
 321 559 321 559 320 529 c 128
 319 499 319 499 319 469 c 257
 319 406 319 406 334 352 c 128
 349 298 349 298 379 256.5 c 128
 409 215 409 215 453 188 c 128
 497 161 497 161 555 153 c 257
 576 150 576 150 596 150 c 257
 659 150 659 150 716 178.5 c 128
 773 207 773 207 816.5 258 c 128
 860 309 860 309 885.5 378.5 c 128
 911 448 911 448 911 530 c 257
 911 590 911 590 889.5 633.5 c 128
 868 677 868 677 832 704.5 c 128
 796 732 796 732 749 745.5 c 128
 702 759 702 759 651 759 c 257
 553 759 553 759 470.5 718.5 c 128
 388 678 388 678 328 597 c 257
EndSplineSet
PickledDataWithLists: "(dp0
Vcom.fontlab.ttprogram
p1
(c_codecs
encode
p2
(Vdata
p3
Vlatin1
p4
tp5
Rp6
g2
(V<data>\\u000a        <ttProgram>\\u000a          <ttc align=\"round\" code=\"alignh\" point=\"ah01\"/>\\u000a          <ttc align=\"round\" code=\"alignh\" point=\"ah02\"/>\\u000a          <ttc align=\"round\" code=\"alignv\" point=\"av01\"/>\\u000a          <ttc code=\"alignt\" point=\"at01\" zone=\"t: 1\"/>\\u000a          <ttc code=\"alignb\" point=\"ab01\" zone=\"b: 0\"/>\\u000a        </ttProgram>\\u000a      </data>
p7
g4
tp8
Rp9
Ntp10
s."
EndChar
StartChar: seven
Encoding: 440 55 440
GlifName: seven
Width: 1300
VWidth: 0
Flags: W
LayerCount: 2
Fore
SplineSet
264 1500 m 257
 1157 1500 l 257
 1134 1370 l 257
 1126 1328 1126 1328 1082.5 1265.5 c 128
 1039 1203 1039 1203 975 1124.5 c 128
 911 1046 911 1046 835 953.5 c 128
 759 861 759 861 687.5 759 c 128
 616 657 616 657 557.5 548.5 c 128
 499 440 499 440 469 329 c 257
 458 288 458 288 447.5 244 c 128
 437 200 437 200 428 157.5 c 128
 419 115 419 115 411.5 74.5 c 128
 404 34 404 34 398 0 c 257
 200 0 l 257
 205 30 205 30 215 80 c 128
 225 130 225 130 237.5 186 c 128
 250 242 250 242 264 297 c 128
 278 352 278 352 291 392 c 257
 326 501 326 501 382 605.5 c 128
 438 710 438 710 503.5 805.5 c 128
 569 901 569 901 636.5 985 c 128
 704 1069 704 1069 762 1138 c 128
 820 1207 820 1207 861.5 1258.5 c 128
 903 1310 903 1310 915 1340 c 257
 236 1340 l 257
 264 1500 l 257
EndSplineSet
EndChar
StartChar: eight
Encoding: 225 56 225
GlifName: eight
Width: 1300
VWidth: 0
Flags: W
LayerCount: 2
Fore
SplineSet
798 1517 m 257
 879 1514 879 1514 944.5 1491.5 c 128
 1010 1469 1010 1469 1055.5 1429 c 128
 1101 1389 1101 1389 1125.5 1331 c 128
 1150 1273 1150 1273 1150 1199 c 257
NamedP: "ah04"
 1150 1127 1150 1127 1128.5 1073.5 c 128
 1107 1020 1107 1020 1071 979 c 128
 1035 938 1035 938 987 906 c 128
 939 874 939 874 886 846 c 257
 939 823 939 823 981.5 779.5 c 128
 1024 736 1024 736 1054 682.5 c 128
 1084 629 1084 629 1100.5 570 c 128
 1117 511 1117 511 1117 458 c 257
NamedP: "ah02"
 1117 328 1117 328 1073.5 237.5 c 128
 1030 147 1030 147 956.5 90.5 c 128
 883 34 883 34 786.5 8.5 c 128
 690 -17 690 -17 583 -17 c 257
NamedP: "ab01"
 489 -17 489 -17 406.5 5.5 c 128
 324 28 324 28 262.5 75.5 c 128
 201 123 201 123 165.5 195.5 c 128
 130 268 130 268 130 368 c 257
 130 457 130 457 158 531.5 c 128
 186 606 186 606 235.5 666 c 128
 285 726 285 726 352.5 771.5 c 128
 420 817 420 817 498 850 c 257
 424 903 424 903 379 976 c 128
 334 1049 334 1049 334 1132 c 257
 334 1201 334 1201 352 1256 c 128
 370 1311 370 1311 401.5 1354 c 128
 433 1397 433 1397 475.5 1427.5 c 128
 518 1458 518 1458 567 1478 c 128
 616 1498 616 1498 669.5 1507.5 c 128
 723 1517 723 1517 776 1517 c 257
NamedP: "at01"
 798 1517 l 257
654 760 m 257
 586 733 586 733 525.5 701 c 128
 465 669 465 669 418.5 628 c 128
 372 587 372 587 345 534.5 c 128
 318 482 318 482 318 414 c 257
 318 345 318 345 340 294.5 c 128
 362 244 362 244 400.5 210.5 c 128
 439 177 439 177 491 161 c 128
 543 145 543 145 602 145 c 257
 661 145 661 145 719 164.5 c 128
 777 184 777 184 823.5 219.5 c 128
 870 255 870 255 898.5 304.5 c 128
 927 354 927 354 927 415 c 257
 927 485 927 485 905 538.5 c 128
 883 592 883 592 845.5 632.5 c 128
 808 673 808 673 758.5 703.5 c 128
 709 734 709 734 654 760 c 257
723 923 m 257
 773 944 773 944 817.5 968 c 128
 862 992 862 992 895 1021 c 128
 928 1050 928 1050 947.5 1085.5 c 128
 967 1121 967 1121 967 1163 c 257
 967 1218 967 1218 948.5 1256 c 128
 930 1294 930 1294 900.5 1318 c 128
 871 1342 871 1342 835 1352.5 c 128
 799 1363 799 1363 763 1363 c 257
 720 1363 720 1363 677 1346.5 c 128
 634 1330 634 1330 600 1302.5 c 128
 566 1275 566 1275 544.5 1239.5 c 128
 523 1204 523 1204 523 1167 c 257
 523 1120 523 1120 537.5 1084.5 c 128
 552 1049 552 1049 578.5 1020.5 c 128
 605 992 605 992 642 968.5 c 128
 679 945 679 945 723 923 c 257
EndSplineSet
PickledDataWithLists: "(dp0
Vcom.fontlab.ttprogram
p1
(c_codecs
encode
p2
(Vdata
p3
Vlatin1
p4
tp5
Rp6
g2
(V<data>\\u000a        <ttProgram>\\u000a          <ttc align=\"round\" code=\"alignh\" point=\"ah01\"/>\\u000a          <ttc align=\"round\" code=\"alignh\" point=\"ah02\"/>\\u000a          <ttc align=\"round\" code=\"alignh\" point=\"ah03\"/>\\u000a          <ttc align=\"round\" code=\"alignh\" point=\"ah04\"/>\\u000a          <ttc code=\"alignt\" point=\"at01\" zone=\"t: 1\"/>\\u000a          <ttc code=\"alignb\" point=\"ab01\" zone=\"b: 0\"/>\\u000a        </ttProgram>\\u000a      </data>
p7
g4
tp8
Rp9
Ntp10
s."
EndChar
StartChar: nine
Encoding: 330 57 330
GlifName: nine
Width: 1300
VWidth: 0
Flags: W
LayerCount: 2
Fore
SplineSet
814 663 m 257
 782 641 782 641 751.5 624 c 128
 721 607 721 607 690.5 596 c 128
 660 585 660 585 628 579 c 128
 596 573 596 573 560 573 c 257
NamedP: "av01"
 472 573 472 573 400 602 c 128
 328 631 328 631 277 686.5 c 128
 226 742 226 742 198 823 c 128
 170 904 170 904 170 1008 c 257
NamedP: "ah01"
 170 1120 170 1120 211 1213.5 c 128
 252 1307 252 1307 322 1374.5 c 128
 392 1442 392 1442 484.5 1479.5 c 128
 577 1517 577 1517 680 1517 c 257
NamedP: "at01"
 770 1517 770 1517 838 1496.5 c 128
 906 1476 906 1476 955.5 1440 c 128
 1005 1404 1005 1404 1038 1355.5 c 128
 1071 1307 1071 1307 1090.5 1251 c 128
 1110 1195 1110 1195 1118 1133.5 c 128
 1126 1072 1126 1072 1126 1011 c 257
NamedP: "ah02"
 1126 869 1126 869 1094.5 738 c 128
 1063 607 1063 607 1005 492.5 c 128
 947 378 947 378 864 284 c 128
 781 190 781 190 678 123.5 c 128
 575 57 575 57 454.5 20 c 128
 334 -17 334 -17 200 -17 c 257
NamedP: "ab01"
 200 150 l 257
 325 153 325 153 443.5 198.5 c 128
 562 244 562 244 659.5 326 c 128
 757 408 757 408 824.5 523 c 128
 892 638 892 638 915 780 c 257
 814 663 l 257
934 953 m 257
 935 966 935 966 935 978.5 c 128
 935 991 935 991 935 1004 c 257
NamedP: "ah04"
 935 1076 935 1076 922.5 1139 c 128
 910 1202 910 1202 880.5 1248.5 c 128
 851 1295 851 1295 802 1322 c 128
 753 1349 753 1349 679 1349 c 257
 604 1349 604 1349 545 1320.5 c 128
 486 1292 486 1292 446 1243 c 128
 406 1194 406 1194 385 1128.5 c 128
 364 1063 364 1063 364 990 c 257
NamedP: "ah03"
 364 934 364 934 379.5 888 c 128
 395 842 395 842 426 809.5 c 128
 457 777 457 777 504.5 759 c 128
 552 741 552 741 616 741 c 257
 665 741 665 741 712.5 757 c 128
 760 773 760 773 802 801 c 128
 844 829 844 829 878 868 c 128
 912 907 912 907 934 953 c 257
EndSplineSet
PickledDataWithLists: "(dp0
Vcom.fontlab.ttprogram
p1
(c_codecs
encode
p2
(Vdata
p3
Vlatin1
p4
tp5
Rp6
g2
(V<data>\\u000a        <ttProgram>\\u000a          <ttc align=\"round\" code=\"alignh\" point=\"ah01\"/>\\u000a          <ttc align=\"round\" code=\"alignh\" point=\"ah02\"/>\\u000a          <ttc align=\"round\" code=\"alignh\" point=\"ah03\"/>\\u000a          <ttc align=\"round\" code=\"alignh\" point=\"ah04\"/>\\u000a          <ttc align=\"round\" code=\"alignv\" point=\"av01\"/>\\u000a          <ttc code=\"alignt\" point=\"at01\" zone=\"t: 1\"/>\\u000a          <ttc code=\"alignb\" point=\"ab01\" zone=\"b: 0\"/>\\u000a        </ttProgram>\\u000a      </data>
p7
g4
tp8
Rp9
Ntp10
s."
EndChar
StartChar: colon
Encoding: 190 58 190
GlifName: colon
Width: 1300
VWidth: 0
Flags: W
LayerCount: 2
Fore
SplineSet
135 133 m 257
 141 164 141 164 157.5 191 c 128
 174 218 174 218 197.5 238 c 128
 221 258 221 258 249.5 269.5 c 128
 278 281 278 281 309 281 c 257
NamedP: "av03"
 340 281 340 281 365 269.5 c 128
 390 258 390 258 406.5 238 c 128
 423 218 423 218 430 191 c 128
 437 164 437 164 431 133 c 257
 426 102 426 102 409.5 74.5 c 128
 393 47 393 47 369.5 27 c 128
 346 7 346 7 317.5 -5 c 128
 289 -17 289 -17 259 -17 c 257
NamedP: "ab01"
 228 -17 228 -17 202.5 -5 c 128
 177 7 177 7 160.5 27 c 128
 144 47 144 47 137 74.5 c 128
 130 102 130 102 135 133 c 257
226 647 m 257
 231 678 231 678 248 705 c 128
 265 732 265 732 288.5 752 c 128
 312 772 312 772 340.5 783.5 c 128
 369 795 369 795 400 795 c 257
NamedP: "av01"
 431 795 431 795 456 783.5 c 128
 481 772 481 772 497.5 752 c 128
 514 732 514 732 520.5 705 c 128
 527 678 527 678 522 647 c 257
 517 616 517 616 500.5 588.5 c 128
 484 561 484 561 460.5 541 c 128
 437 521 437 521 408.5 509 c 128
 380 497 380 497 350 497 c 257
NamedP: "av02"
 319 497 319 497 293.5 509 c 128
 268 521 268 521 251.5 541 c 128
 235 561 235 561 228 588.5 c 128
 221 616 221 616 226 647 c 257
EndSplineSet
PickledDataWithLists: "(dp0
Vcom.fontlab.ttprogram
p1
(c_codecs
encode
p2
(Vdata
p3
Vlatin1
p4
tp5
Rp6
g2
(V<data>\\u000a        <ttProgram>\\u000a          <ttc align=\"round\" code=\"alignv\" point=\"av01\"/>\\u000a          <ttc align=\"round\" code=\"alignv\" point=\"av02\"/>\\u000a          <ttc align=\"round\" code=\"alignv\" point=\"av03\"/>\\u000a          <ttc code=\"alignb\" point=\"ab01\" zone=\"b: 0\"/>\\u000a        </ttProgram>\\u000a      </data>
p7
g4
tp8
Rp9
Ntp10
s."
EndChar
StartChar: semicolon
Encoding: 438 59 438
GlifName: semicolon
Width: 1300
VWidth: 0
Flags: W
LayerCount: 2
Fore
SplineSet
226 641 m 257
 231 672 231 672 248 699 c 128
 265 726 265 726 288.5 746 c 128
 312 766 312 766 340.5 777.5 c 128
 369 789 369 789 400 789 c 257
NamedP: "av01"
 431 789 431 789 456 777.5 c 128
 481 766 481 766 497.5 746 c 128
 514 726 514 726 520.5 699 c 128
 527 672 527 672 522 641 c 257
 517 610 517 610 500.5 582.5 c 128
 484 555 484 555 460.5 535 c 128
 437 515 437 515 408.5 503 c 128
 380 491 380 491 350 491 c 257
NamedP: "av02"
 319 491 319 491 293.5 503 c 128
 268 515 268 515 251.5 535 c 128
 235 555 235 555 228 582.5 c 128
 221 610 221 610 226 641 c 257
135 127 m 257
 141 156 141 156 157 182.5 c 128
 173 209 173 209 197 228 c 128
 221 247 221 247 250 259 c 128
 279 271 279 271 309 271 c 257
NamedP: "av03"
 338 271 338 271 362.5 260.5 c 128
 387 250 387 250 404 230 c 128
 421 210 421 210 428 179.5 c 128
 435 149 435 149 428 110 c 257
 419 57 419 57 404 7.5 c 128
 389 -42 389 -42 359.5 -93 c 128
 330 -144 330 -144 282.5 -197 c 128
 235 -250 235 -250 163 -307 c 257
 115 -284 l 257
 146 -240 146 -240 172 -193 c 257
 194 -154 194 -154 214.5 -107.5 c 128
 235 -61 235 -61 243 -17 c 257
NamedP: "ab01"
 218 -16 218 -16 196 -6 c 128
 174 4 174 4 158 21.5 c 128
 142 39 142 39 135.5 66 c 128
 129 93 129 93 135 127 c 257
EndSplineSet
PickledDataWithLists: "(dp0
Vcom.fontlab.ttprogram
p1
(c_codecs
encode
p2
(Vdata
p3
Vlatin1
p4
tp5
Rp6
g2
(V<data>\\u000a        <ttProgram>\\u000a          <ttc align=\"round\" code=\"alignv\" point=\"av01\"/>\\u000a          <ttc align=\"round\" code=\"alignv\" point=\"av02\"/>\\u000a          <ttc align=\"round\" code=\"alignv\" point=\"av03\"/>\\u000a          <ttc code=\"alignb\" point=\"ab01\" zone=\"b: 0\"/>\\u000a        </ttProgram>\\u000a      </data>
p7
g4
tp8
Rp9
Ntp10
s."
EndChar
StartChar: less
Encoding: 308 60 308
GlifName: less
Width: 1300
VWidth: 0
Flags: W
LayerCount: 2
Fore
SplineSet
1107 1187 m 257
NamedP: "av01"
 1076 1012 l 257
NamedP: "sv01"
 324 646 l 257
 243 626 l 257
NamedP: "iv01"
 316 606 l 257
 940 242 l 257
NamedP: "sv02"
 909 67 l 257
NamedP: "av02"
 92 524 l 257
 129 733 l 257
 1107 1187 l 257
NamedP: "av01"
EndSplineSet
PickledDataWithLists: "(dp0
Vcom.fontlab.ttprogram
p1
(c_codecs
encode
p2
(Vdata
p3
Vlatin1
p4
tp5
Rp6
g2
(V<data>\\u000a        <ttProgram>\\u000a          <ttc align=\"round\" code=\"alignv\" point=\"av01\"/>\\u000a          <ttc align=\"round\" code=\"alignv\" point=\"av02\"/>\\u000a          <ttc code=\"singlev\" point1=\"av01\" point2=\"sv01\" stem=\"Y: 153\"/>\\u000a          <ttc code=\"interpolatev\" point=\"iv01\" point1=\"av01\" point2=\"av02\"/>\\u000a          <ttc code=\"singlev\" point1=\"av02\" point2=\"sv02\" stem=\"Y: 153\"/>\\u000a        </ttProgram>\\u000a      </data>
p7
g4
tp8
Rp9
Ntp10
sVcom.typemytype.robofont.guides
p11
(lp12
(dp13
Vangle
p14
I0
sVisGlobal
p15
I00
sVmagnetic
p16
I5
sVx
p17
I0
sVy
p18
I1298
sas."
EndChar
StartChar: equal
Encoding: 235 61 235
GlifName: equal
Width: 1300
VWidth: 0
Flags: W
LayerCount: 2
Fore
SplineSet
341 800 m 257
NamedP: "av01"
 1041 800 l 257
NamedP: "sv01"
 1013 645 l 257
NamedP: "sv02"
 313 645 l 257
 341 800 l 257
NamedP: "av01"
270 400 m 257
NamedP: "av02"
 970 400 l 257
NamedP: "sv03"
 943 245 l 257
NamedP: "sv04"
 243 245 l 257
 270 400 l 257
NamedP: "av02"
EndSplineSet
PickledDataWithLists: "(dp0
Vcom.fontlab.ttprogram
p1
(c_codecs
encode
p2
(Vdata
p3
Vlatin1
p4
tp5
Rp6
g2
(V<data>\\u000a        <ttProgram>\\u000a          <ttc align=\"round\" code=\"alignv\" point=\"av01\"/>\\u000a          <ttc align=\"round\" code=\"alignv\" point=\"av02\"/>\\u000a          <ttc code=\"singlev\" point1=\"av01\" point2=\"sv01\"/>\\u000a          <ttc code=\"singlev\" point1=\"sv01\" point2=\"sv02\" stem=\"Y: 153\"/>\\u000a          <ttc code=\"singlev\" point1=\"av02\" point2=\"sv03\"/>\\u000a          <ttc code=\"singlev\" point1=\"sv03\" point2=\"sv04\" stem=\"Y: 153\"/>\\u000a        </ttProgram>\\u000a      </data>
p7
g4
tp8
Rp9
Ntp10
s."
EndChar
StartChar: greater
Encoding: 269 62 269
GlifName: greater
Width: 1300
VWidth: 0
Flags: W
LayerCount: 2
Fore
SplineSet
1127 733 m 257
 1090 524 l 257
 111 67 l 257
NamedP: "av02"
 142 242 l 257
NamedP: "sv01"
 894 606 l 257
 975 626 l 257
NamedP: "iv01"
 900 646 l 257
 278 1012 l 257
NamedP: "sv02"
 309 1187 l 257
NamedP: "av01"
 1127 733 l 257
EndSplineSet
PickledDataWithLists: "(dp0
Vcom.fontlab.ttprogram
p1
(c_codecs
encode
p2
(Vdata
p3
Vlatin1
p4
tp5
Rp6
g2
(V<data>\\u000a        <ttProgram>\\u000a          <ttc align=\"round\" code=\"alignv\" point=\"av01\"/>\\u000a          <ttc align=\"round\" code=\"alignv\" point=\"av02\"/>\\u000a          <ttc code=\"singlev\" point1=\"av02\" point2=\"sv01\" stem=\"Y: 153\"/>\\u000a          <ttc code=\"interpolatev\" point=\"iv01\" point1=\"av01\" point2=\"av02\"/>\\u000a          <ttc code=\"singlev\" point1=\"av01\" point2=\"sv02\" stem=\"Y: 153\"/>\\u000a        </ttProgram>\\u000a      </data>
p7
g4
tp8
Rp9
Ntp10
s."
EndChar
StartChar: question
Encoding: 393 63 393
GlifName: question
Width: 1300
VWidth: 0
Flags: W
LayerCount: 2
Fore
SplineSet
727 1517 m 257
NamedP: "at01"
 815 1517 815 1517 885.5 1493 c 128
 956 1469 956 1469 1005 1425 c 128
 1054 1381 1054 1381 1080 1317.5 c 128
 1106 1254 1106 1254 1106 1176 c 257
 1106 1105 1106 1105 1085.5 1051.5 c 128
 1065 998 1065 998 1030.5 955 c 128
 996 912 996 912 952 877 c 128
 908 842 908 842 861 808.5 c 128
 814 775 814 775 767.5 740 c 128
 721 705 721 705 683 663.5 c 128
 645 622 645 622 618.5 570 c 128
 592 518 592 518 584 450 c 257
 370 429 l 257
 379 520 379 520 407 588 c 128
 435 656 435 656 473.5 708.5 c 128
 512 761 512 761 558.5 801 c 128
 605 841 605 841 652 874.5 c 128
 699 908 699 908 743.5 938.5 c 128
 788 969 788 969 822 1003 c 128
 856 1037 856 1037 876.5 1078 c 128
 897 1119 897 1119 897 1173 c 257
 897 1219 897 1219 880.5 1253 c 128
 864 1287 864 1287 834 1308.5 c 128
 804 1330 804 1330 763 1340.5 c 128
 722 1351 722 1351 673 1351 c 257
 624 1351 624 1351 582.5 1343 c 128
 541 1335 541 1335 503 1316.5 c 128
 465 1298 465 1298 427.5 1267 c 128
 390 1236 390 1236 349 1190 c 257
 236 1300 l 257
 285 1363 285 1363 343 1404.5 c 128
 401 1446 401 1446 464 1471 c 128
 527 1496 527 1496 593.5 1506.5 c 128
 660 1517 660 1517 727 1517 c 257
NamedP: "at01"
297 105 m 257
 297 128 297 128 307.5 149.5 c 128
 318 171 318 171 335 188 c 128
 352 205 352 205 375 215 c 128
 398 225 398 225 422 225 c 257
NamedP: "av01"
 476 225 476 225 505.5 191.5 c 128
 535 158 535 158 535 105 c 257
 535 82 535 82 526 60.5 c 128
 517 39 517 39 501 21.5 c 128
 485 4 485 4 463 -6.5 c 128
 441 -17 441 -17 416 -17 c 257
NamedP: "ab01"
 360 -17 360 -17 328.5 17 c 128
 297 51 297 51 297 105 c 257
EndSplineSet
PickledDataWithLists: "(dp0
Vcom.fontlab.ttprogram
p1
(c_codecs
encode
p2
(Vdata
p3
Vlatin1
p4
tp5
Rp6
g2
(V<data>\\u000a        <ttProgram>\\u000a          <ttc align=\"round\" code=\"alignv\" point=\"av01\"/>\\u000a          <ttc code=\"alignt\" point=\"at01\" zone=\"t: 1\"/>\\u000a          <ttc code=\"alignb\" point=\"ab01\" zone=\"b: 0\"/>\\u000a        </ttProgram>\\u000a      </data>
p7
g4
tp8
Rp9
Ntp10
s."
EndChar
StartChar: at
Encoding: 128 64 128
GlifName: at
Width: 1300
VWidth: 0
Flags: W
LayerCount: 2
Fore
SplineSet
749 700 m 257,0,-1
 804 838 l 257,1,2
 785 840 785 840 769 834 c 128,-1,3
 753 828 753 828 738 820 c 257,4,5
 719 809 719 809 691 780.5 c 128,-1,6
 663 752 663 752 634 707 c 128,-1,7
 605 662 605 662 578.5 600 c 128,-1,8
 552 538 552 538 536 462 c 257,9,10
 511 346 511 346 514.5 275 c 128,-1,11
 518 204 518 204 540 170 c 128,-1,12
 562 136 562 136 595.5 134 c 128,-1,13
 629 132 629 132 664 155 c 257,14,-1
 749 700 l 257,0,-1
838 -34 m 257,15,16
NamedP: "av02"
 793 -34 793 -34 763 -22.5 c 128,-1,17
 733 -11 733 -11 714.5 5.5 c 128,-1,18
 696 22 696 22 686.5 39.5 c 128,-1,19
 677 57 677 57 673 69 c 257,20,-1
 615 -17 l 257,21,22
NamedP: "ab01"
 543 -17 543 -17 488.5 16 c 128,-1,23
 434 49 434 49 401.5 110 c 128,-1,24
 369 171 369 171 360 256 c 128,-1,25
 351 341 351 341 368 446 c 257,26,27
NamedP: "ah01"
 384 546 384 546 427.5 642 c 128,-1,28
 471 738 471 738 532 813.5 c 128,-1,29
 593 889 593 889 667.5 935 c 128,-1,30
 742 981 742 981 822 981 c 257,31,32
NamedP: "av01"
 903 981 903 981 959 958 c 257,33,-1
NamedP: "ah02"
 835 180 l 257,34,35
 827 141 827 141 836 120.5 c 128,-1,36
 845 100 845 100 868 100 c 257,37,38
 888 100 888 100 906.5 124.5 c 128,-1,39
 925 149 925 149 941.5 187 c 128,-1,40
 958 225 958 225 971.5 272 c 128,-1,41
 985 319 985 319 995.5 363.5 c 128,-1,42
 1006 408 1006 408 1013.5 445 c 128,-1,43
 1021 482 1021 482 1024 501 c 257,44,45
 1032 548 1032 548 1041.5 609 c 128,-1,46
 1051 670 1051 670 1058 737 c 128,-1,47
 1065 804 1065 804 1067.5 874 c 128,-1,48
 1070 944 1070 944 1065 1010 c 128,-1,49
 1060 1076 1060 1076 1045 1134 c 128,-1,50
 1030 1192 1030 1192 1002 1235.5 c 128,-1,51
 974 1279 974 1279 931 1304.5 c 128,-1,52
 888 1330 888 1330 826 1330 c 257,53,54
 774 1330 774 1330 718.5 1301.5 c 128,-1,55
 663 1273 663 1273 608 1222 c 128,-1,56
 553 1171 553 1171 502 1101 c 128,-1,57
 451 1031 451 1031 408 948 c 128,-1,58
 365 865 365 865 333 772.5 c 128,-1,59
 301 680 301 680 284 584 c 257,60,61
 267 489 267 489 257.5 395.5 c 128,-1,62
 248 302 248 302 248 214 c 257,63,64
 248 115 248 115 262 29.5 c 128,-1,65
 276 -56 276 -56 307.5 -119 c 128,-1,66
 339 -182 339 -182 390 -218 c 128,-1,67
 441 -254 441 -254 515 -254 c 257,68,69
 545 -254 545 -254 574.5 -246.5 c 128,-1,70
 604 -239 604 -239 630.5 -227 c 128,-1,71
 657 -215 657 -215 678.5 -201 c 128,-1,72
 700 -187 700 -187 714 -173 c 257,73,-1
 687 -350 l 257,74,75
 675 -361 675 -361 654.5 -372 c 128,-1,76
 634 -383 634 -383 607 -391.5 c 128,-1,77
 580 -400 580 -400 548.5 -405 c 128,-1,78
 517 -410 517 -410 483 -410 c 257,79,80
NamedP: "av03"
 374 -410 374 -410 298 -367 c 128,-1,81
 222 -324 222 -324 174.5 -247.5 c 128,-1,82
 127 -171 127 -171 105.5 -65 c 128,-1,83
 84 41 84 41 84 166 c 257,84,85
 84 254 84 254 93.5 347 c 128,-1,86
 103 440 103 440 120 540 c 257,87,88
 143 671 143 671 182 792 c 128,-1,89
 221 913 221 913 273.5 1018.5 c 128,-1,90
 326 1124 326 1124 390.5 1210 c 128,-1,91
 455 1296 455 1296 529.5 1357.5 c 128,-1,92
 604 1419 604 1419 686.5 1452.5 c 128,-1,93
 769 1486 769 1486 858 1486 c 257,94,95
NamedP: "av04"
 935 1486 935 1486 992.5 1461 c 128,-1,96
 1050 1436 1050 1436 1091 1392.5 c 128,-1,97
 1132 1349 1132 1349 1158.5 1290 c 128,-1,98
 1185 1231 1185 1231 1199.5 1162 c 128,-1,99
 1214 1093 1214 1093 1218.5 1017.5 c 128,-1,100
 1223 942 1223 942 1220 866 c 128,-1,101
 1217 790 1217 790 1208 716.5 c 128,-1,102
 1199 643 1199 643 1188 578 c 257,103,104
 1167 458 1167 458 1139.5 347.5 c 128,-1,105
 1112 237 1112 237 1071.5 152 c 128,-1,106
 1031 67 1031 67 974 16.5 c 128,-1,107
 917 -34 917 -34 838 -34 c 257,15,16
NamedP: "av02"
EndSplineSet
PickledDataWithLists: "(dp0
Vcom.fontlab.ttprogram
p1
(c_codecs
encode
p2
(Vdata
p3
Vlatin1
p4
tp5
Rp6
g2
(V<data>\\u000a        <ttProgram>\\u000a          <ttc align=\"round\" code=\"alignh\" point=\"ah01\"/>\\u000a          <ttc align=\"round\" code=\"alignh\" point=\"ah02\"/>\\u000a          <ttc align=\"round\" code=\"alignv\" point=\"av01\"/>\\u000a          <ttc align=\"round\" code=\"alignv\" point=\"av02\"/>\\u000a          <ttc align=\"round\" code=\"alignv\" point=\"av03\"/>\\u000a          <ttc align=\"round\" code=\"alignv\" point=\"av04\"/>\\u000a          <ttc code=\"alignb\" point=\"ab01\" zone=\"b: 0\"/>\\u000a        </ttProgram>\\u000a      </data>
p7
g4
tp8
Rp9
Ntp10
s."
EndChar
StartChar: C
Encoding: 12 67 12
GlifName: C_
Width: 1300
VWidth: 0
Flags: W
LayerCount: 2
Fore
SplineSet
998 95 m 257
 978 81 978 81 942 62 c 128
 906 43 906 43 854 25.5 c 128
 802 8 802 8 733 -4.5 c 128
 664 -17 664 -17 577 -17 c 257
NamedP: "ab01"
 458 -17 458 -17 369.5 30.5 c 128
 281 78 281 78 222.5 162.5 c 128
 164 247 164 247 135 363 c 128
 106 479 106 479 106 616 c 257
 106 738 106 738 127.5 852.5 c 128
 149 967 149 967 191 1067 c 128
 233 1167 233 1167 295 1250 c 128
 357 1333 357 1333 438 1392 c 128
 519 1451 519 1451 618.5 1484 c 128
 718 1517 718 1517 835 1517 c 257
NamedP: "at01"
 1078 1517 1078 1517 1210 1385 c 257
 1112 1263 l 257
 1050 1306 1050 1306 983.5 1323.5 c 128
 917 1341 917 1341 829 1341 c 257
 735 1341 735 1341 660 1312 c 128
 585 1283 585 1283 527 1231.5 c 128
 469 1180 469 1180 427 1109.5 c 128
 385 1039 385 1039 358.5 957.5 c 128
 332 876 332 876 319.5 786 c 128
 307 696 307 696 307 605 c 257
 307 518 307 518 319.5 436.5 c 128
 332 355 332 355 367 292 c 128
 402 229 402 229 466 191 c 128
 530 153 530 153 632 153 c 257
 677 153 677 153 718 159 c 128
 759 165 759 165 798 177 c 128
 837 189 837 189 876 206.5 c 128
 915 224 915 224 956 247 c 257
 998 95 l 257
EndSplineSet
PickledDataWithLists: "(dp0
Vcom.fontlab.ttprogram
p1
(c_codecs
encode
p2
(Vdata
p3
Vlatin1
p4
tp5
Rp6
g2
(V<data>\\u000a        <ttProgram>\\u000a          <ttc code=\"alignt\" point=\"at01\" zone=\"t: 1\"/>\\u000a          <ttc code=\"alignb\" point=\"ab01\" zone=\"b: 0\"/>\\u000a        </ttProgram>\\u000a      </data>
p7
g4
tp8
Rp9
Ntp10
sVcom.typemytype.robofont.guides
p11
(lp12
(dp13
Vangle
p14
I0
sVisGlobal
p15
I00
sVmagnetic
p16
I5
sVx
p17
I0
sVy
p18
I153
sas."
EndChar
StartChar: D
Encoding: 15 68 15
GlifName: D_
Width: 1300
VWidth: 0
Flags: W
LayerCount: 2
Fore
SplineSet
293 1500 m 257,0,1
 324 1503 324 1503 365 1505 c 128,-1,2
 406 1507 406 1507 449.5 1508.5 c 128,-1,3
 493 1510 493 1510 535 1510.5 c 128,-1,4
 577 1511 577 1511 610 1511 c 257,5,6
NamedP: "at01"
 755 1511 755 1511 869.5 1479 c 128,-1,7
 984 1447 984 1447 1063.5 1377.5 c 128,-1,8
 1143 1308 1143 1308 1185 1198.5 c 128,-1,9
 1227 1089 1227 1089 1227 933 c 257,10,11
 1227 772 1227 772 1193.5 640.5 c 128,-1,12
 1160 509 1160 509 1099.5 405.5 c 128,-1,13
 1039 302 1039 302 955.5 225.5 c 128,-1,14
 872 149 872 149 773 99 c 128,-1,15
 674 49 674 49 562.5 24.5 c 128,-1,16
 451 0 451 0 335 0 c 257,17,-1
NamedP: "sv01"
 59 0 l 257,18,-1
NamedP: "ab01"
 286 1290 l 257,19,-1
 293 1500 l 257,0,1
461 1150 m 257,20,21
 449 1083 449 1083 426 953 c 257,22,23
 416 897 416 897 403 822 c 128,-1,24
 390 747 390 747 373 649.5 c 128,-1,25
 356 552 356 552 334.5 430.5 c 128,-1,26
 313 309 313 309 287 160 c 257,27,-1
 307 160 l 257,28,29
 450 160 450 160 560 193 c 128,-1,30
 670 226 670 226 751.5 283 c 128,-1,31
 833 340 833 340 888 416.5 c 128,-1,32
 943 493 943 493 976 580 c 128,-1,33
 1009 667 1009 667 1023.5 761 c 128,-1,34
 1038 855 1038 855 1038 946 c 257,35,36
 1038 1036 1038 1036 1015.5 1112 c 128,-1,37
 993 1188 993 1188 939.5 1242.5 c 128,-1,38
 886 1297 886 1297 798 1327.5 c 128,-1,39
 710 1358 710 1358 579 1358 c 257,40,41
 563 1358 563 1358 545 1357 c 128,-1,42
 527 1356 527 1356 510 1354 c 257,43,44
 491 1352 491 1352 472 1350 c 257,45,-1
 461 1150 l 257,20,21
EndSplineSet
PickledDataWithLists: "(dp0
Vcom.fontlab.ttprogram
p1
(c_codecs
encode
p2
(Vdata
p3
Vlatin1
p4
tp5
Rp6
g2
(V<data>\\u000a        <ttProgram>\\u000a          <ttc code=\"alignt\" point=\"at01\" zone=\"t: 1\"/>\\u000a          <ttc code=\"alignb\" point=\"ab01\" zone=\"b: 0\"/>\\u000a          <ttc code=\"singlev\" point1=\"ab01\" point2=\"sv01\"/>\\u000a        </ttProgram>\\u000a      </data>
p7
g4
tp8
Rp9
Ntp10
sVcom.typemytype.robofont.guides
p11
(lp12
(dp13
Vangle
p14
I0
sVisGlobal
p15
I00
sVmagnetic
p16
I5
sVx
p17
I0
sVy
p18
I1370
sa(dp19
g14
I0
sg15
I00
sg16
I5
sg17
I0
sg18
I130
sa(dp20
g14
I90
sg15
I00
sg16
I5
sg17
I278
sg18
I0
sas."
EndChar
StartChar: E
Encoding: 17 69 17
GlifName: E_
Width: 1300
VWidth: 0
Flags: W
LayerCount: 2
Fore
SplineSet
1040 160 m 257,0,-1
 992 0 l 257,1,-1
NamedP: "sv01"
 72 0 l 257,2,-1
NamedP: "ab01"
 123 200 l 257,3,-1
 315 1290 l 257,4,-1
 322 1500 l 257,5,-1
NamedP: "at01"
 1242 1500 l 257,6,-1
NamedP: "sv02"
 1214 1340 l 257,7,-1
 489 1340 l 257,8,-1
 475 1150 l 257,9,-1
 428 885 l 257,10,-1
 1063 885 l 257,11,-1
 1038 740 l 257,12,-1
NamedP: "sv03"
 403 740 l 257,13,-1
NamedP: "av01"
 332 340 l 257,14,-1
 290 160 l 257,15,-1
 1040 160 l 257,0,-1
EndSplineSet
PickledDataWithLists: "(dp0
Vcom.fontlab.ttprogram
p1
(c_codecs
encode
p2
(Vdata
p3
Vlatin1
p4
tp5
Rp6
g2
(V<data>\\u000a        <ttProgram>\\u000a          <ttc align=\"round\" code=\"alignv\" point=\"av01\"/>\\u000a          <ttc code=\"alignt\" point=\"at01\" zone=\"t: 1\"/>\\u000a          <ttc code=\"alignb\" point=\"ab01\" zone=\"b: 0\"/>\\u000a          <ttc code=\"singlev\" point1=\"ab01\" point2=\"sv01\"/>\\u000a          <ttc code=\"singlev\" point1=\"at01\" point2=\"sv02\"/>\\u000a          <ttc code=\"singlev\" point1=\"av01\" point2=\"sv03\"/>\\u000a        </ttProgram>\\u000a      </data>
p7
g4
tp8
Rp9
Ntp10
s."
EndChar
StartChar: F
Encoding: 26 70 26
GlifName: F_
Width: 1300
VWidth: 0
Flags: W
LayerCount: 2
Fore
SplineSet
300 0 m 257,0,-1
NamedP: "sv01"
 100 0 l 257,1,-1
NamedP: "ab01"
 327 1290 l 257,2,-1
 334 1500 l 257,3,-1
NamedP: "at01"
 1209 1500 l 257,4,-1
NamedP: "sv02"
 1161 1340 l 257,5,-1
 516 1340 l 257,6,-1
 502 1150 l 257,7,-1
 456 885 l 257,8,-1
 996 885 l 257,9,-1
 970 740 l 257,10,-1
NamedP: "sv03"
 430 740 l 257,11,-1
NamedP: "av01"
 300 0 l 257,0,-1
NamedP: "sv01"
EndSplineSet
PickledDataWithLists: "(dp0
Vcom.fontlab.ttprogram
p1
(c_codecs
encode
p2
(Vdata
p3
Vlatin1
p4
tp5
Rp6
g2
(V<data>\\u000a        <ttProgram>\\u000a          <ttc align=\"round\" code=\"alignv\" point=\"av01\"/>\\u000a          <ttc code=\"alignt\" point=\"at01\" zone=\"t: 1\"/>\\u000a          <ttc code=\"alignb\" point=\"ab01\" zone=\"b: 0\"/>\\u000a          <ttc code=\"singlev\" point1=\"ab01\" point2=\"sv01\"/>\\u000a          <ttc code=\"singlev\" point1=\"at01\" point2=\"sv02\"/>\\u000a          <ttc code=\"singlev\" point1=\"av01\" point2=\"sv03\"/>\\u000a        </ttProgram>\\u000a      </data>
p7
g4
tp8
Rp9
Ntp10
s."
EndChar
StartChar: G
Encoding: 27 71 27
GlifName: G_
Width: 1300
VWidth: 0
Flags: W
LayerCount: 2
Fore
SplineSet
1092 197 m 257
 1043 152 1043 152 985 112.5 c 128
 927 73 927 73 861 44.5 c 128
 795 16 795 16 720 -0.5 c 128
 645 -17 645 -17 562 -17 c 257
NamedP: "ab01"
 418 -17 418 -17 321.5 45.5 c 128
 225 108 225 108 173.5 215 c 128
 122 322 122 322 112 465 c 128
 102 608 102 608 131 770 c 257
 149 871 149 871 179 965.5 c 128
 209 1060 209 1060 253 1143 c 128
 297 1226 297 1226 355.5 1294.5 c 128
 414 1363 414 1363 488.5 1412.5 c 128
 563 1462 563 1462 654.5 1489.5 c 128
 746 1517 746 1517 856 1517 c 257
NamedP: "at01"
 971 1517 971 1517 1067 1480.5 c 128
 1163 1444 1163 1444 1223 1375 c 257
 1114 1268 l 257
 1071 1300 1071 1300 1003.5 1324 c 128
 936 1348 936 1348 842 1348 c 257
 720 1348 720 1348 634.5 1302 c 128
 549 1256 549 1256 491 1177.5 c 128
 433 1099 433 1099 398 994.5 c 128
 363 890 363 890 342 773 c 257
 330 704 330 704 324 631.5 c 128
 318 559 318 559 323.5 490 c 128
 329 421 329 421 346.5 360 c 128
 364 299 364 299 399 253 c 128
 434 207 434 207 487.5 180 c 128
 541 153 541 153 618 153 c 257
 663 153 663 153 709 163 c 128
 755 173 755 173 796.5 189 c 128
 838 205 838 205 872.5 224.5 c 128
 907 244 907 244 928 263 c 257
 989 612 l 257
 679 632 l 257
 702 762 l 257
NamedP: "av01"
 1192 762 l 257
NamedP: "sv01"
 1092 197 l 257
EndSplineSet
PickledDataWithLists: "(dp0
Vcom.fontlab.ttprogram
p1
(c_codecs
encode
p2
(Vdata
p3
Vlatin1
p4
tp5
Rp6
g2
(V<data>\\u000a        <ttProgram>\\u000a          <ttc align=\"round\" code=\"alignv\" point=\"av01\"/>\\u000a          <ttc code=\"alignt\" point=\"at01\" zone=\"t: 1\"/>\\u000a          <ttc code=\"alignb\" point=\"ab01\" zone=\"b: 0\"/>\\u000a          <ttc code=\"singlev\" point1=\"av01\" point2=\"sv01\"/>\\u000a        </ttProgram>\\u000a      </data>
p7
g4
tp8
Rp9
Ntp10
s."
EndChar
StartChar: H
Encoding: 29 72 29
GlifName: H_
Width: 1300
VWidth: 0
Flags: W
LayerCount: 2
Fore
SplineSet
787 0 m 257
 914 725 l 257
NamedP: "sv01"
 372 725 l 257
NamedP: "av01"
 245 0 l 257
 50 0 l 257
NamedP: "ab01"
 277 1290 l 257
 285 1500 l 257
NamedP: "at01"
 513 1520 l 257
NamedP: "at02"
 401 885 l 257
 943 885 l 257
 1051 1500 l 257
NamedP: "sv02"
 1250 1520 l 257
NamedP: "at03"
 982 0 l 257
NamedP: "sv03"
 787 0 l 257
EndSplineSet
PickledDataWithLists: "(dp0
Vcom.fontlab.ttprogram
p1
(c_codecs
encode
p2
(Vdata
p3
Vlatin1
p4
tp5
Rp6
g2
(V<data>\\u000a        <ttProgram>\\u000a          <ttc align=\"round\" code=\"alignv\" point=\"av01\"/>\\u000a          <ttc code=\"alignt\" point=\"at01\" zone=\"t: 1\"/>\\u000a          <ttc code=\"alignt\" point=\"at02\" zone=\"t: 1\"/>\\u000a          <ttc code=\"alignt\" point=\"at03\" zone=\"t: 1\"/>\\u000a          <ttc code=\"alignb\" point=\"ab01\" zone=\"b: 0\"/>\\u000a          <ttc code=\"singlev\" point1=\"av01\" point2=\"sv01\"/>\\u000a          <ttc code=\"singlev\" point1=\"at01\" point2=\"sv02\"/>\\u000a          <ttc code=\"singlev\" point1=\"ab01\" point2=\"sv03\"/>\\u000a        </ttProgram>\\u000a      </data>
p7
g4
tp8
Rp9
Ntp10
s."
EndChar
StartChar: I
Encoding: 30 73 30
GlifName: I_
Width: 1300
VWidth: 0
Flags: W
LayerCount: 2
Fore
SplineSet
332 1500 m 257
NamedP: "at01"
 1232 1500 l 257
NamedP: "sv01"
 1204 1340 l 257
 846 1340 l 257
 637 160 l 257
 1015 160 l 257
 967 0 l 257
NamedP: "sv02"
 67 0 l 257
NamedP: "ab01"
 95 160 l 257
 451 160 l 257
 660 1340 l 257
 284 1340 l 257
 332 1500 l 257
NamedP: "at01"
EndSplineSet
PickledDataWithLists: "(dp0
Vcom.fontlab.ttprogram
p1
(c_codecs
encode
p2
(Vdata
p3
Vlatin1
p4
tp5
Rp6
g2
(V<data>\\u000a        <ttProgram>\\u000a          <ttc code=\"alignt\" point=\"at01\" zone=\"t: 1\"/>\\u000a          <ttc code=\"alignb\" point=\"ab01\" zone=\"b: 0\"/>\\u000a          <ttc code=\"singlev\" point1=\"at01\" point2=\"sv01\"/>\\u000a          <ttc code=\"singlev\" point1=\"ab01\" point2=\"sv02\"/>\\u000a        </ttProgram>\\u000a      </data>
p7
g4
tp8
Rp9
Ntp10
s."
EndChar
StartChar: J
Encoding: 37 74 37
GlifName: J_
Width: 1300
VWidth: 0
Flags: W
LayerCount: 2
Fore
SplineSet
473 1325 m 257,0,-1
 500 1500 l 257,1,-1
NamedP: "at01"
 1068 1500 l 257,2,-1
NamedP: "sv01"
 872 415 l 257,3,4
 853 309 853 309 818.5 228 c 128,-1,5
 784 147 784 147 727.5 92.5 c 128,-1,6
 671 38 671 38 590.5 10.5 c 128,-1,7
 510 -17 510 -17 399 -17 c 257,8,9
NamedP: "ab01"
 358 -17 358 -17 317.5 -3.5 c 128,-1,10
 277 10 277 10 241 30 c 128,-1,11
 205 50 205 50 176 73 c 128,-1,12
 147 96 147 96 130 115 c 257,13,-1
 243 233 l 257,14,15
 252 223 252 223 269 209.5 c 128,-1,16
 286 196 286 196 309.5 184 c 128,-1,17
 333 172 333 172 362 164 c 128,-1,18
 391 156 391 156 424 156 c 257,19,20
 493 156 493 156 537 175.5 c 128,-1,21
 581 195 581 195 608.5 234 c 128,-1,22
 636 273 636 273 652 332 c 128,-1,23
 668 391 668 391 682 470 c 257,24,-1
 802 1148 l 257,25,-1
 875 1374 l 257,26,-1
 633 1325 l 257,27,-1
 473 1325 l 257,0,-1
EndSplineSet
PickledDataWithLists: "(dp0
Vcom.fontlab.ttprogram
p1
(c_codecs
encode
p2
(Vdata
p3
Vlatin1
p4
tp5
Rp6
g2
(V<data>\\u000a        <ttProgram>\\u000a          <ttc code=\"alignt\" point=\"at01\" zone=\"t: 1\"/>\\u000a          <ttc code=\"alignb\" point=\"ab01\" zone=\"b: 0\"/>\\u000a          <ttc code=\"singlev\" point1=\"at01\" point2=\"sv01\"/>\\u000a        </ttProgram>\\u000a      </data>
p7
g4
tp8
Rp9
Ntp10
s."
EndChar
StartChar: K
Encoding: 38 75 38
GlifName: K_
Width: 1300
VWidth: 0
Flags: W
LayerCount: 2
Fore
SplineSet
50 0 m 257
NamedP: "ab01"
 277 1290 l 257
 284 1500 l 257
NamedP: "at01"
 518 1520 l 257
NamedP: "at02"
 400 856 l 257
 1055 1500 l 257
 1277 1500 l 257
NamedP: "sv01"
 634 865 l 257
 454 802 l 257
 618 744 l 257
 1040 0 l 257
NamedP: "sv02"
 803 0 l 257
 381 746 l 257
 250 0 l 257
 50 0 l 257
NamedP: "ab01"
EndSplineSet
PickledDataWithLists: "(dp0
Vcom.fontlab.ttprogram
p1
(c_codecs
encode
p2
(Vdata
p3
Vlatin1
p4
tp5
Rp6
g2
(V<data>\\u000a        <ttProgram>\\u000a          <ttc code=\"alignt\" point=\"at01\" zone=\"t: 1\"/>\\u000a          <ttc code=\"alignt\" point=\"at02\" zone=\"t: 1\"/>\\u000a          <ttc code=\"alignb\" point=\"ab01\" zone=\"b: 0\"/>\\u000a          <ttc code=\"singlev\" point1=\"at01\" point2=\"sv01\"/>\\u000a          <ttc code=\"singlev\" point1=\"ab01\" point2=\"sv02\"/>\\u000a        </ttProgram>\\u000a      </data>
p7
g4
tp8
Rp9
Ntp10
sVcom.typemytype.robofont.guides
p11
(lp12
(dp13
Vangle
p14
I90
sVisGlobal
p15
I00
sVmagnetic
p16
I5
sVx
p17
I516
sVy
p18
I0
sas."
EndChar
StartChar: L
Encoding: 40 76 40
GlifName: L_
Width: 1300
VWidth: 0
Flags: W
LayerCount: 2
Fore
SplineSet
397 160 m 257,0,-1
 1127 160 l 257,1,-1
 1078 0 l 257,2,-1
NamedP: "sv01"
 173 0 l 257,3,-1
NamedP: "ab01"
 229 200 l 257,4,-1
 421 1290 l 257,5,-1
 428 1500 l 257,6,-1
 647 1520 l 257,7,-1
NamedP: "at01"
 438 340 l 257,8,-1
 397 160 l 257,0,-1
EndSplineSet
PickledDataWithLists: "(dp0
Vcom.fontlab.ttprogram
p1
(c_codecs
encode
p2
(Vdata
p3
Vlatin1
p4
tp5
Rp6
g2
(V<data>\\u000a        <ttProgram>\\u000a          <ttc code=\"alignt\" point=\"at01\" zone=\"t: 1\"/>\\u000a          <ttc code=\"alignb\" point=\"ab01\" zone=\"b: 0\"/>\\u000a          <ttc code=\"singlev\" point1=\"ab01\" point2=\"sv01\"/>\\u000a        </ttProgram>\\u000a      </data>
p7
g4
tp8
Rp9
Ntp10
s."
EndChar
StartChar: M
Encoding: 42 77 42
GlifName: M_
Width: 1300
VWidth: 0
Flags: W
LayerCount: 2
Fore
SplineSet
838 0 m 257
 997 901 l 257
 1154 1399 l 257
 1149 1400 l 257
 901 921 l 257
 654 500 l 257
 554 500 l 257
 456 920 l 257
 371 1400 l 257
 365 1399 l 257
 352 901 l 257
 193 0 l 257
 13 0 l 257
NamedP: "ab01"
 241 1290 l 257
 250 1500 l 257
NamedP: "at01"
 468 1520 l 257
NamedP: "at02"
 600 950 l 257
 632 700 l 257
 750 950 l 257
 1076 1500 l 257
NamedP: "sv01"
 1287 1520 l 257
NamedP: "at03"
 1018 0 l 257
NamedP: "sv02"
 838 0 l 257
EndSplineSet
PickledDataWithLists: "(dp0
Vcom.fontlab.ttprogram
p1
(c_codecs
encode
p2
(Vdata
p3
Vlatin1
p4
tp5
Rp6
g2
(V<data>\\u000a        <ttProgram>\\u000a          <ttc code=\"alignt\" point=\"at01\" zone=\"t: 1\"/>\\u000a          <ttc code=\"alignt\" point=\"at02\" zone=\"t: 1\"/>\\u000a          <ttc code=\"alignt\" point=\"at03\" zone=\"t: 1\"/>\\u000a          <ttc code=\"alignb\" point=\"ab01\" zone=\"b: 0\"/>\\u000a          <ttc code=\"singlev\" point1=\"at01\" point2=\"sv01\"/>\\u000a          <ttc code=\"singlev\" point1=\"ab01\" point2=\"sv02\"/>\\u000a        </ttProgram>\\u000a      </data>
p7
g4
tp8
Rp9
Ntp10
sVcom.typemytype.robofont.guides
p11
(lp12
(dp13
Vangle
p14
I0
sVisGlobal
p15
I00
sVmagnetic
p16
I5
sVx
p17
I0
sVy
p18
I1287
sas."
EndChar
StartChar: O
Encoding: 48 79 48
GlifName: O_
Width: 1300
VWidth: 0
Flags: W
LayerCount: 2
Fore
SplineSet
514 -17 m 261,0,1
NamedP: "ab01"
 424 -17 424 -17 353 10.5 c 132,-1,2
 282 38 282 38 230 88.5 c 132,-1,3
 178 139 178 139 144 209 c 132,-1,4
 110 279 110 279 94 364.5 c 132,-1,5
 78 450 78 450 79.5 547.5 c 132,-1,6
 81 645 81 645 100 750 c 261,7,8
 118 855 118 855 150.5 952.5 c 132,-1,9
 183 1050 183 1050 228.5 1135.5 c 132,-1,10
 274 1221 274 1221 331.5 1291 c 132,-1,11
 389 1361 389 1361 459 1411.5 c 132,-1,12
 529 1462 529 1462 611 1489.5 c 132,-1,13
 693 1517 693 1517 785 1517 c 261,14,15
NamedP: "at01"
 875 1517 875 1517 946 1489.5 c 132,-1,16
 1017 1462 1017 1462 1069 1411.5 c 132,-1,17
 1121 1361 1121 1361 1155 1291 c 132,-1,18
 1189 1221 1189 1221 1205 1135.5 c 132,-1,19
 1221 1050 1221 1050 1219.5 952.5 c 132,-1,20
 1218 855 1218 855 1200 750 c 261,21,22
 1181 645 1181 645 1148.5 547.5 c 132,-1,23
 1116 450 1116 450 1071 364.5 c 132,-1,24
 1026 279 1026 279 968 209 c 132,-1,25
 910 139 910 139 840 88.5 c 132,-1,26
 770 38 770 38 688 10.5 c 132,-1,27
 606 -17 606 -17 514 -17 c 261,0,1
NamedP: "ab01"
986 719 m 261,28,29
 998 789 998 789 1006.5 862 c 132,-1,30
 1015 935 1015 935 1014 1004.5 c 132,-1,31
 1013 1074 1013 1074 999.5 1135.5 c 132,-1,32
 986 1197 986 1197 955.5 1242.5 c 132,-1,33
 925 1288 925 1288 874.5 1315 c 132,-1,34
 824 1342 824 1342 748 1342 c 261,35,36
 676 1342 676 1342 619 1318 c 132,-1,37
 562 1294 562 1294 517 1252.5 c 132,-1,38
 472 1211 472 1211 439 1155.5 c 132,-1,39
 406 1100 406 1100 381.5 1038 c 132,-1,40
 357 976 357 976 341 911 c 132,-1,41
 325 846 325 846 314 785 c 261,42,43
 301 714 301 714 293 640 c 132,-1,44
 285 566 285 566 286 496.5 c 132,-1,45
 287 427 287 427 300 365.5 c 132,-1,46
 313 304 313 304 343.5 258 c 132,-1,47
 374 212 374 212 424.5 185 c 132,-1,48
 475 158 475 158 551 158 c 261,49,50
 622 158 622 158 679 182.5 c 132,-1,51
 736 207 736 207 781 249.5 c 132,-1,52
 826 292 826 292 859.5 347.5 c 132,-1,53
 893 403 893 403 917.5 465.5 c 132,-1,54
 942 528 942 528 958.5 593 c 132,-1,55
 975 658 975 658 986 719 c 261,28,29
EndSplineSet
PickledDataWithLists: "(dp0
Vcom.fontlab.ttprogram
p1
(c_codecs
encode
p2
(Vdata
p3
Vlatin1
p4
tp5
Rp6
g2
(V<data>\\u000a        <ttProgram>\\u000a          <ttc code=\"alignt\" point=\"at01\" zone=\"t: 1\"/>\\u000a          <ttc code=\"alignb\" point=\"ab01\" zone=\"b: 0\"/>\\u000a        </ttProgram>\\u000a      </data>
p7
g4
tp8
Rp9
Ntp10
s."
EndChar
StartChar: P
Encoding: 59 80 59
GlifName: P_
Width: 1300
VWidth: 0
Flags: W
LayerCount: 2
Fore
SplineSet
289 0 m 257
NamedP: "sv01"
 99 0 l 257
NamedP: "ab01"
 327 1290 l 257
 327 1490 l 257
 357 1495 357 1495 398.5 1499 c 128
 440 1503 440 1503 486 1506 c 128
 532 1509 532 1509 578 1510.5 c 128
 624 1512 624 1512 663 1512 c 257
NamedP: "at01"
 823 1512 823 1512 940 1481.5 c 128
 1057 1451 1057 1451 1130 1396.5 c 128
 1203 1342 1203 1342 1231.5 1266 c 128
 1260 1190 1260 1190 1244 1099 c 257
 1157 624 1157 624 399 624 c 257
 289 0 l 257
NamedP: "sv01"
491 1147 m 257
 424 765 l 257
 576 765 576 765 689.5 787 c 128
 803 809 803 809 881.5 852 c 128
 960 895 960 895 1005.5 957 c 128
 1051 1019 1051 1019 1066 1100 c 257
 1079 1167 1079 1167 1054.5 1217.5 c 128
 1030 1268 1030 1268 977.5 1302 c 128
 925 1336 925 1336 849 1353 c 128
 773 1370 773 1370 683 1370 c 257
 666 1370 666 1370 642.5 1369.5 c 128
 619 1369 619 1369 594.5 1367.5 c 128
 570 1366 570 1366 547 1364 c 128
 524 1362 524 1362 509 1359 c 257
 491 1147 l 257
EndSplineSet
PickledDataWithLists: "(dp0
Vcom.fontlab.ttprogram
p1
(c_codecs
encode
p2
(Vdata
p3
Vlatin1
p4
tp5
Rp6
g2
(V<data>\\u000a        <ttProgram>\\u000a          <ttc code=\"alignt\" point=\"at01\" zone=\"t: 1\"/>\\u000a          <ttc code=\"alignb\" point=\"ab01\" zone=\"b: 0\"/>\\u000a          <ttc code=\"singlev\" point1=\"ab01\" point2=\"sv01\"/>\\u000a        </ttProgram>\\u000a      </data>
p7
g4
tp8
Rp9
Ntp10
sVcom.typemytype.robofont.guides
p11
(lp12
(dp13
Vangle
p14
I0
sVisGlobal
p15
I00
sVmagnetic
p16
I5
sVx
p17
I0
sVy
p18
I810
sas."
EndChar
StartChar: Q
Encoding: 62 81 62
GlifName: Q_
Width: 1300
VWidth: 0
Flags: W
LayerCount: 2
Fore
SplineSet
841 314 m 257,0,1
 901 393 901 393 940 476 c 128,-1,2
 979 559 979 559 1002.5 642 c 128,-1,3
 1026 725 1026 725 1035.5 805.5 c 128,-1,4
 1045 886 1045 886 1045 961 c 257,5,6
 1045 1036 1045 1036 1029.5 1104.5 c 128,-1,7
 1014 1173 1014 1173 979 1224.5 c 128,-1,8
 944 1276 944 1276 887.5 1306.5 c 128,-1,9
 831 1337 831 1337 749 1337 c 257,10,11
 665 1337 665 1337 596 1297.5 c 128,-1,12
 527 1258 527 1258 473 1193 c 128,-1,13
 419 1128 419 1128 379 1044.5 c 128,-1,14
 339 961 339 961 313 872 c 128,-1,15
 287 783 287 783 274.5 696.5 c 128,-1,16
 262 610 262 610 262 539 c 257,17,18
 262 456 262 456 278.5 386.5 c 128,-1,19
 295 317 295 317 331 267 c 128,-1,20
 367 217 367 217 423 189.5 c 128,-1,21
 479 162 479 162 558 162 c 257,22,23
 570 162 570 162 579 162 c 128,-1,24
 588 162 588 162 596 163 c 128,-1,25
 604 164 604 164 613.5 166 c 128,-1,26
 623 168 623 168 636 172 c 257,27,28
 618 217 618 217 605 250.5 c 128,-1,29
 592 284 592 284 578.5 306 c 128,-1,30
 565 328 565 328 547 339 c 128,-1,31
 529 350 529 350 500 350 c 257,32,-1
 577 500 l 257,33,34
 618 500 618 500 649.5 479.5 c 128,-1,35
 681 459 681 459 708.5 418.5 c 128,-1,36
 736 378 736 378 762 317.5 c 128,-1,37
 788 257 788 257 817 177 c 257,38,-1
 841 314 l 257,0,1
626 0 m 257,39,40
 591 -8 591 -8 553 -12.5 c 128,-1,41
 515 -17 515 -17 467 -17 c 257,42,43
NamedP: "ab01"
 365 -17 365 -17 289.5 26.5 c 128,-1,44
 214 70 214 70 163.5 145.5 c 128,-1,45
 113 221 113 221 88 322.5 c 128,-1,46
 63 424 63 424 63 540 c 257,47,48
 63 657 63 657 86 775 c 128,-1,49
 109 893 109 893 153 1001.5 c 128,-1,50
 197 1110 197 1110 260 1204 c 128,-1,51
 323 1298 323 1298 403.5 1367.5 c 128,-1,52
 484 1437 484 1437 580.5 1477 c 128,-1,53
 677 1517 677 1517 787 1517 c 257,54,55
NamedP: "at01"
 899 1517 899 1517 984 1474.5 c 128,-1,56
 1069 1432 1069 1432 1126 1356.5 c 128,-1,57
 1183 1281 1183 1281 1211.5 1177.5 c 128,-1,58
 1240 1074 1240 1074 1240 953 c 257,59,60
 1240 837 1240 837 1215.5 718 c 128,-1,61
 1191 599 1191 599 1146 489 c 128,-1,62
 1101 379 1101 379 1036.5 284.5 c 128,-1,63
 972 190 972 190 893 124 c 257,64,65
 885 116 885 116 874 107.5 c 128,-1,66
 863 99 863 99 854 92 c 257,67,68
 867 60 867 60 879 42 c 128,-1,69
 891 24 891 24 908.5 14.5 c 128,-1,70
 926 5 926 5 952.5 2.5 c 128,-1,71
 979 0 979 0 1021 0 c 257,72,-1
 944 -145 l 257,73,74
 894 -145 894 -145 854 -137 c 128,-1,75
 814 -129 814 -129 780 -103 c 128,-1,76
 746 -77 746 -77 717.5 -28 c 128,-1,77
 689 21 689 21 662 102 c 257,78,-1
 650 137 l 257,79,-1
 626 0 l 257,39,40
EndSplineSet
PickledDataWithLists: "(dp0
Vcom.fontlab.ttprogram
p1
(c_codecs
encode
p2
(Vdata
p3
Vlatin1
p4
tp5
Rp6
g2
(V<data>\\u000a        <ttProgram>\\u000a          <ttc code=\"alignt\" point=\"at01\" zone=\"t: 1\"/>\\u000a          <ttc code=\"alignb\" point=\"ab01\" zone=\"b: 0\"/>\\u000a        </ttProgram>\\u000a      </data>
p7
g4
tp8
Rp9
Ntp10
s."
EndChar
StartChar: R
Encoding: 63 82 63
GlifName: R_
Width: 1300
VWidth: 0
Flags: W
LayerCount: 2
Fore
SplineSet
408 619 m 257
NamedP: "av01"
 300 0 l 257
 100 0 l 257
NamedP: "ab01"
 327 1290 l 257
 327 1490 l 257
 361 1494 361 1494 405 1499 c 128
 449 1504 449 1504 497.5 1508 c 128
 546 1512 546 1512 596 1514.5 c 128
 646 1517 646 1517 693 1517 c 257
NamedP: "at01"
 819 1517 819 1517 911 1489 c 128
 1003 1461 1003 1461 1062.5 1411 c 128
 1122 1361 1122 1361 1151 1291.5 c 128
 1180 1222 1180 1222 1180 1139 c 257
 1180 1010 1180 1010 1135 916 c 128
 1090 822 1090 822 1017.5 759.5 c 128
 945 697 945 697 853.5 665 c 128
 762 633 762 633 668 629 c 257
 794 593 l 257
 1133 0 l 257
NamedP: "sv01"
 910 0 l 257
 571 600 l 257
 563 614 563 614 549.5 616.5 c 128
 536 619 536 619 528 619 c 257
NamedP: "sv02"
 408 619 l 257
NamedP: "av01"
502 1147 m 257
 434 763 l 257
 582 763 l 257
 673 763 673 763 749.5 786.5 c 128
 826 810 826 810 881.5 855 c 128
 937 900 937 900 967.5 966.5 c 128
 998 1033 998 1033 998 1119 c 257
 998 1177 998 1177 971.5 1224.5 c 128
 945 1272 945 1272 902.5 1305.5 c 128
 860 1339 860 1339 805.5 1357 c 128
 751 1375 751 1375 694 1375 c 257
 652 1375 652 1375 603.5 1373 c 128
 555 1371 555 1371 520 1364 c 257
 502 1147 l 257
EndSplineSet
PickledDataWithLists: "(dp0
Vcom.fontlab.ttprogram
p1
(c_codecs
encode
p2
(Vdata
p3
Vlatin1
p4
tp5
Rp6
g2
(V<data>\\u000a        <ttProgram>\\u000a          <ttc align=\"round\" code=\"alignv\" point=\"av01\"/>\\u000a          <ttc code=\"alignt\" point=\"at01\" zone=\"t: 1\"/>\\u000a          <ttc code=\"alignb\" point=\"ab01\" zone=\"b: 0\"/>\\u000a          <ttc code=\"singlev\" point1=\"ab01\" point2=\"sv01\"/>\\u000a          <ttc code=\"singlev\" point1=\"av01\" point2=\"sv02\"/>\\u000a        </ttProgram>\\u000a      </data>
p7
g4
tp8
Rp9
Ntp10
s."
EndChar
StartChar: S
Encoding: 66 83 66
GlifName: S_
Width: 1300
VWidth: 0
Flags: W
LayerCount: 2
Fore
SplineSet
1087 1252 m 257
 1056 1277 1056 1277 1026.5 1295.5 c 128
 997 1314 997 1314 966 1326 c 128
 935 1338 935 1338 900.5 1344 c 128
 866 1350 866 1350 825 1350 c 257
 763 1350 763 1350 705 1332 c 128
 647 1314 647 1314 602 1281 c 128
 557 1248 557 1248 530 1202 c 128
 503 1156 503 1156 503 1101 c 257
 503 1049 503 1049 527.5 1011.5 c 128
 552 974 552 974 591.5 943.5 c 128
 631 913 631 913 682 887 c 128
 733 861 733 861 786.5 832.5 c 128
 840 804 840 804 891 769.5 c 128
 942 735 942 735 981.5 688.5 c 128
 1021 642 1021 642 1045.5 579.5 c 128
 1070 517 1070 517 1070 432 c 257
 1070 327 1070 327 1025.5 243.5 c 128
 981 160 981 160 905.5 102.5 c 128
 830 45 830 45 731 14 c 128
 632 -17 632 -17 524 -17 c 257
NamedP: "ab01"
 408 -17 408 -17 300.5 19.5 c 128
 193 56 193 56 97 134 c 257
 215 284 l 257
 241 258 241 258 275.5 234.5 c 128
 310 211 310 211 351 193.5 c 128
 392 176 392 176 438 165.5 c 128
 484 155 484 155 532 155 c 257
 588 155 588 155 647 169.5 c 128
 706 184 706 184 755 217 c 128
 804 250 804 250 835 303 c 128
 866 356 866 356 866 433 c 257
 866 488 866 488 841.5 529.5 c 128
 817 571 817 571 777 604.5 c 128
 737 638 737 638 686.5 666.5 c 128
 636 695 636 695 583 725 c 128
 530 755 530 755 479 789.5 c 128
 428 824 428 824 388.5 870 c 128
 349 916 349 916 324.5 976 c 128
 300 1036 300 1036 300 1116 c 257
 300 1216 300 1216 344.5 1291.5 c 128
 389 1367 389 1367 462.5 1417 c 128
 536 1467 536 1467 632 1492 c 128
 728 1517 728 1517 830 1517 c 257
NamedP: "at01"
 892 1517 892 1517 947 1504 c 128
 1002 1491 1002 1491 1049 1470 c 128
 1096 1449 1096 1449 1134.5 1423 c 128
 1173 1397 1173 1397 1203 1371 c 257
 1087 1252 l 257
EndSplineSet
PickledDataWithLists: "(dp0
Vcom.fontlab.ttprogram
p1
(c_codecs
encode
p2
(Vdata
p3
Vlatin1
p4
tp5
Rp6
g2
(V<data>\\u000a        <ttProgram>\\u000a          <ttc code=\"alignt\" point=\"at01\" zone=\"t: 1\"/>\\u000a          <ttc code=\"alignb\" point=\"ab01\" zone=\"b: 0\"/>\\u000a        </ttProgram>\\u000a      </data>
p7
g4
tp8
Rp9
Ntp10
s."
EndChar
StartChar: V
Encoding: 80 86 80
GlifName: V_
Width: 1300
VWidth: 0
Flags: W
LayerCount: 2
Fore
SplineSet
469 500 m 257
 493 140 l 257
 597 454 l 257
 1111 1500 l 257
 1300 1500 l 257
NamedP: "sv01"
 648 180 l 257
 587 -20 l 257
NamedP: "ab01"
 355 0 l 257
 137 1500 l 257
NamedP: "at01"
 326 1520 l 257
NamedP: "at02"
 469 500 l 257
EndSplineSet
PickledDataWithLists: "(dp0
Vcom.fontlab.ttprogram
p1
(c_codecs
encode
p2
(Vdata
p3
Vlatin1
p4
tp5
Rp6
g2
(V<data>\\u000a        <ttProgram>\\u000a          <ttc code=\"alignt\" point=\"at01\" zone=\"t: 1\"/>\\u000a          <ttc code=\"alignt\" point=\"at02\" zone=\"t: 1\"/>\\u000a          <ttc code=\"alignb\" point=\"ab01\" zone=\"b: 0\"/>\\u000a          <ttc code=\"singlev\" point1=\"at01\" point2=\"sv01\"/>\\u000a        </ttProgram>\\u000a      </data>
p7
g4
tp8
Rp9
Ntp10
s."
EndChar
StartChar: W
Encoding: 81 87 81
GlifName: W_
Width: 1300
VWidth: 0
Flags: W
LayerCount: 2
Fore
SplineSet
344 700 m 257
 510 1100 l 257
NamedP: "av01"
 650 1100 l 257
NamedP: "sv01"
 666 700 l 257
NamedP: "mh01"
 666 200 l 257
 670 200 l 257
 783 660 l 257
 1084 1500 l 257
 1261 1500 l 257
NamedP: "sv02"
 724 0 l 257
NamedP: "sv03"
 543 0 l 257
 527 450 l 257
 556 950 l 257
 552 950 l 257
 406 450 l 257
 228 0 l 257
 68 0 l 257
NamedP: "ab01"
 70 1500 l 257
NamedP: "at01"
 234 1520 l 257
NamedP: "at02"
 233 660 l 257
NamedP: "mh02"
 183 200 l 257
 187 200 l 257
 344 700 l 257
EndSplineSet
PickledDataWithLists: "(dp0
Vcom.fontlab.ttprogram
p1
(c_codecs
encode
p2
(Vdata
p3
Vlatin1
p4
tp5
Rp6
g2
(V<data>\\u000a        <ttProgram>\\u000a          <ttc code=\"mdeltah\" delta=\"1\" point=\"mh01\" ppm1=\"14\" ppm2=\"14\"/>\\u000a          <ttc code=\"mdeltah\" delta=\"-2\" point=\"mh02\" ppm1=\"14\" ppm2=\"14\"/>\\u000a          <ttc code=\"mdeltah\" delta=\"-3\" point=\"mh02\" ppm1=\"13\" ppm2=\"13\"/>\\u000a          <ttc align=\"round\" code=\"alignv\" point=\"av01\"/>\\u000a          <ttc code=\"alignt\" point=\"at01\" zone=\"t: 1\"/>\\u000a          <ttc code=\"alignt\" point=\"at02\" zone=\"t: 1\"/>\\u000a          <ttc code=\"alignb\" point=\"ab01\" zone=\"b: 0\"/>\\u000a          <ttc code=\"singlev\" point1=\"av01\" point2=\"sv01\"/>\\u000a          <ttc code=\"singlev\" point1=\"at01\" point2=\"sv02\"/>\\u000a          <ttc code=\"singlev\" point1=\"ab01\" point2=\"sv03\"/>\\u000a        </ttProgram>\\u000a      </data>
p7
g4
tp8
Rp9
Ntp10
s."
EndChar
StartChar: X
Encoding: 82 88 82
GlifName: X_
Width: 1300
VWidth: 0
Flags: W
LayerCount: 2
Fore
SplineSet
847 0 m 257,0,-1
 689 519 l 257,1,-1
 648 700 l 257,2,-1
 568 540 l 257,3,-1
 198 0 l 257,4,-1
 0 0 l 257,5,-1
NamedP: "ab01"
 570 799 l 257,6,-1
 321 1500 l 257,7,-1
NamedP: "at01"
 537 1520 l 257,8,-1
NamedP: "at02"
 683 1056 l 257,9,-1
 718 860 l 257,10,-1
 777 1020 l 257,11,-1
 1107 1500 l 257,12,-1
 1300 1500 l 257,13,-1
NamedP: "sv01"
 787 776 l 257,14,-1
 1067 0 l 257,15,-1
NamedP: "sv02"
 847 0 l 257,0,-1
EndSplineSet
PickledDataWithLists: "(dp0
Vcom.fontlab.ttprogram
p1
(c_codecs
encode
p2
(Vdata
p3
Vlatin1
p4
tp5
Rp6
g2
(V<data>\\u000a        <ttProgram>\\u000a          <ttc code=\"alignt\" point=\"at01\" zone=\"t: 1\"/>\\u000a          <ttc code=\"alignt\" point=\"at02\" zone=\"t: 1\"/>\\u000a          <ttc code=\"alignb\" point=\"ab01\" zone=\"b: 0\"/>\\u000a          <ttc code=\"singlev\" point1=\"at01\" point2=\"sv01\"/>\\u000a          <ttc code=\"singlev\" point1=\"ab01\" point2=\"sv02\"/>\\u000a        </ttProgram>\\u000a      </data>
p7
g4
tp8
Rp9
Ntp10
s."
EndChar
StartChar: bracketleft
Encoding: 158 91 158
GlifName: bracketleft
Width: 1300
VWidth: 0
Flags: W
LayerCount: 2
Fore
SplineSet
454 1320 m 257
 468 1520 l 257
NamedP: "at01"
 1034 1520 l 257
NamedP: "sv01"
 1007 1370 l 257
 635 1370 l 257
 620 1170 l 257
 401 -70 l 257
 346 -270 l 257
 718 -270 l 257
 691 -420 l 257
NamedP: "sv02"
 125 -420 l 257
NamedP: "av01"
 183 -220 l 257
 454 1320 l 257
EndSplineSet
PickledDataWithLists: "(dp0
Vcom.fontlab.ttprogram
p1
(c_codecs
encode
p2
(Vdata
p3
Vlatin1
p4
tp5
Rp6
g2
(V<data>\\u000a        <ttProgram>\\u000a          <ttc align=\"round\" code=\"alignv\" point=\"av01\"/>\\u000a          <ttc code=\"alignt\" point=\"at01\" zone=\"t: 1\"/>\\u000a          <ttc code=\"singlev\" point1=\"at01\" point2=\"sv01\"/>\\u000a          <ttc code=\"singlev\" point1=\"av01\" point2=\"sv02\"/>\\u000a        </ttProgram>\\u000a      </data>
p7
g4
tp8
Rp9
Ntp10
s."
EndChar
StartChar: bracketright
Encoding: 159 93 159
GlifName: bracketright
Width: 1300
VWidth: 0
Flags: W
LayerCount: 2
Fore
SplineSet
633 -220 m 257
 619 -420 l 257
NamedP: "sv01"
 53 -420 l 257
NamedP: "av01"
 80 -270 l 257
 452 -270 l 257
 467 -70 l 257
 686 1170 l 257
 741 1370 l 257
 369 1370 l 257
 396 1520 l 257
NamedP: "at01"
 962 1520 l 257
NamedP: "sv02"
 904 1320 l 257
 633 -220 l 257
EndSplineSet
PickledDataWithLists: "(dp0
Vcom.fontlab.ttprogram
p1
(c_codecs
encode
p2
(Vdata
p3
Vlatin1
p4
tp5
Rp6
g2
(V<data>\\u000a        <ttProgram>\\u000a          <ttc align=\"round\" code=\"alignv\" point=\"av01\"/>\\u000a          <ttc code=\"alignt\" point=\"at01\" zone=\"t: 1\"/>\\u000a          <ttc code=\"singlev\" point1=\"av01\" point2=\"sv01\"/>\\u000a          <ttc code=\"singlev\" point1=\"at01\" point2=\"sv02\"/>\\u000a        </ttProgram>\\u000a      </data>
p7
g4
tp8
Rp9
Ntp10
s."
EndChar
StartChar: asciicircum
Encoding: 123 94 123
GlifName: asciicircum
Width: 1300
VWidth: 0
Flags: W
LayerCount: 2
Fore
SplineSet
1273 912 m 257
NamedP: "sv01"
 1072 912 l 257
 752 1239 l 257
 727 1350 l 257
 663 1241 l 257
 239 914 l 257
 23 914 l 257
NamedP: "av01"
 681 1500 l 257
 813 1517 l 257
 1273 912 l 257
NamedP: "sv01"
EndSplineSet
PickledDataWithLists: "(dp0
Vcom.fontlab.ttprogram
p1
(c_codecs
encode
p2
(Vdata
p3
Vlatin1
p4
tp5
Rp6
g2
(V<data>\\u000a        <ttProgram>\\u000a          <ttc align=\"round\" code=\"alignv\" point=\"av01\"/>\\u000a          <ttc code=\"singlev\" point1=\"av01\" point2=\"sv01\"/>\\u000a        </ttProgram>\\u000a      </data>
p7
g4
tp8
Rp9
Ntp10
s."
EndChar
StartChar: underscore
Encoding: 545 95 545
GlifName: underscore
Width: 1300
VWidth: 0
Flags: W
LayerCount: 2
Fore
SplineSet
101 -300 m 257,0,-1
 1200 -300 l 257,1,-1
 1172 -455 l 257,2,-1
NamedP: "sv01"
 73 -455 l 257,3,-1
NamedP: "ab01"
 101 -300 l 257,0,-1
EndSplineSet
PickledDataWithLists: "(dp0
Vcom.fontlab.ttprogram
p1
(c_codecs
encode
p2
(Vdata
p3
Vlatin1
p4
tp5
Rp6
g2
(V<data>\\u000a        <ttProgram>\\u000a          <ttc code=\"alignb\" point=\"ab01\" zone=\"b: -500\"/>\\u000a          <ttc code=\"singlev\" point1=\"ab01\" point2=\"sv01\"/>\\u000a        </ttProgram>\\u000a      </data>
p7
g4
tp8
Rp9
Ntp10
s."
EndChar
StartChar: grave
Encoding: 268 96 268
GlifName: grave
Width: 1300
VWidth: 0
Flags: W
LayerCount: 2
Fore
SplineSet
871 1200 m 257
NamedP: "ah01"
 721 1200 l 257
NamedP: "sh01"
 549 1500 l 257
 757 1520 l 257
NamedP: "at01"
 871 1200 l 257
NamedP: "ah01"
EndSplineSet
PickledDataWithLists: "(dp0
Vcom.fontlab.ttprogram
p1
(c_codecs
encode
p2
(Vdata
p3
Vlatin1
p4
tp5
Rp6
g2
(V<data>\\u000a        <ttProgram>\\u000a          <ttc align=\"round\" code=\"alignh\" point=\"ah01\"/>\\u000a          <ttc code=\"singleh\" point1=\"ah01\" point2=\"sh01\" stem=\"X: ecart du B\"/>\\u000a          <ttc align=\"round\" code=\"alignv\" point=\"ah01\"/>\\u000a          <ttc code=\"alignt\" point=\"at01\" zone=\"t: 1\"/>\\u000a        </ttProgram>\\u000a      </data>
p7
g4
tp8
Rp9
Ntp10
s."
EndChar
StartChar: a
Encoding: 89 97 89
GlifName: a
Width: 1300
VWidth: 0
Flags: W
LayerCount: 2
Fore
SplineSet
927 930 m 257,0,1
 909 938 909 938 883.5 944 c 128,-1,2
 858 950 858 950 835 953 c 257,3,4
 808 957 808 957 779 958 c 257,5,6
 677 958 677 958 601 923 c 128,-1,7
 525 888 525 888 472 827 c 128,-1,8
 419 766 419 766 388 685 c 128,-1,9
 357 604 357 604 346 512 c 257,10,11
 340 462 340 462 340 421 c 257,12,13
 340 352 340 352 354 300 c 128,-1,14
 368 248 368 248 393 213.5 c 128,-1,15
 418 179 418 179 451 161.5 c 128,-1,16
 484 144 484 144 523 144 c 257,17,18
 575 144 575 144 619 158 c 128,-1,19
 663 172 663 172 699.5 195 c 128,-1,20
 736 218 736 218 766.5 247 c 128,-1,21
 797 276 797 276 821 306 c 257,22,-1
 927 930 l 257,0,1
768 0 m 257,23,-1
NamedP: "ab02"
 796 162 l 257,24,-1
 681 49 l 257,25,26
 660 32 660 32 639.5 19.5 c 128,-1,27
 619 7 619 7 594.5 -1 c 128,-1,28
 570 -9 570 -9 538 -13 c 128,-1,29
 506 -17 506 -17 462 -17 c 257,30,31
NamedP: "ab01"
 391 -17 391 -17 335 15 c 128,-1,32
 279 47 279 47 240 104.5 c 128,-1,33
 201 162 201 162 180.5 242 c 128,-1,34
 160 322 160 322 160 419 c 257,35,36
 160 447 160 447 161.5 476.5 c 128,-1,37
 163 506 163 506 167 536 c 257,38,39
 180 647 180 647 225 751.5 c 128,-1,40
 270 856 270 856 348.5 937 c 128,-1,41
 427 1018 427 1018 539.5 1067.5 c 128,-1,42
 652 1117 652 1117 800 1117 c 257,43,44
NamedP: "av01"
 884 1117 884 1117 970 1103 c 128,-1,45
 1056 1089 1056 1089 1133 1063 c 257,46,-1
 981 180 l 257,47,-1
 970 0 l 257,48,-1
NamedP: "sv01"
 768 0 l 257,23,-1
NamedP: "ab02"
EndSplineSet
PickledDataWithLists: "(dp0
Vcom.fontlab.ttprogram
p1
(c_codecs
encode
p2
(Vdata
p3
Vlatin1
p4
tp5
Rp6
g2
(V<data>\\u000a        <ttProgram>\\u000a          <ttc align=\"round\" code=\"alignv\" point=\"av01\"/>\\u000a          <ttc code=\"alignb\" point=\"ab01\" zone=\"b: 0\"/>\\u000a          <ttc code=\"alignb\" point=\"ab02\" zone=\"b: 0\"/>\\u000a          <ttc code=\"singlev\" point1=\"ab02\" point2=\"sv01\"/>\\u000a        </ttProgram>\\u000a      </data>
p7
g4
tp8
Rp9
Ntp10
s."
EndChar
StartChar: b
Encoding: 130 98 130
GlifName: b
Width: 1300
VWidth: 0
Flags: W
LayerCount: 2
Fore
SplineSet
353 171 m 257
 388 158 388 158 439 150.5 c 128
 490 143 490 143 565 143 c 257
 668 143 668 143 736.5 184.5 c 128
 805 226 805 226 848.5 292 c 128
 892 358 892 358 914.5 439.5 c 128
 937 521 937 521 948 601 c 257
 954 646 954 646 954 686 c 257
 954 749 954 749 940.5 799 c 128
 927 849 927 849 903.5 884.5 c 128
 880 920 880 920 847.5 938.5 c 128
 815 957 815 957 776 957 c 257
 733 957 733 957 695.5 952.5 c 128
 658 948 658 948 622 935.5 c 128
 586 923 586 923 549 901 c 128
 512 879 512 879 471 845 c 257
 353 171 l 257
391 1420 m 257
 403 1600 l 257
 608 1620 l 257
NamedP: "av02"
 494 974 l 257
 595 1065 l 257
 651 1089 651 1089 705 1103 c 128
 759 1117 759 1117 815 1117 c 257
NamedP: "av01"
 890 1117 890 1117 949 1085 c 128
 1008 1053 1008 1053 1049.5 995 c 128
 1091 937 1091 937 1113 857.5 c 128
 1135 778 1135 778 1135 684 c 257
 1135 663 1135 663 1133.5 641 c 128
 1132 619 1132 619 1130 596 c 257
 1115 457 1115 457 1068.5 344 c 128
 1022 231 1022 231 944.5 150.5 c 128
 867 70 867 70 760 26.5 c 128
 653 -17 653 -17 517 -17 c 257
NamedP: "ab01"
 492 -17 492 -17 459 -15 c 128
 426 -13 426 -13 389.5 -9 c 128
 353 -5 353 -5 315.5 0 c 128
 278 5 278 5 245.5 10.5 c 128
 213 16 213 16 187 22.5 c 128
 161 29 161 29 147 35 c 257
 391 1420 l 257
EndSplineSet
PickledDataWithLists: "(dp0
Vcom.fontlab.ttprogram
p1
(c_codecs
encode
p2
(Vdata
p3
Vlatin1
p4
tp5
Rp6
g2
(V<data>\\u000a        <ttProgram>\\u000a          <ttc align=\"round\" code=\"alignv\" point=\"av01\"/>\\u000a          <ttc align=\"round\" code=\"alignv\" point=\"av02\"/>\\u000a          <ttc code=\"alignb\" point=\"ab01\" zone=\"b: 0\"/>\\u000a        </ttProgram>\\u000a      </data>
p7
g4
tp8
Rp9
Ntp10
s."
EndChar
StartChar: c
Encoding: 164 99 164
GlifName: c
Width: 1300
VWidth: 0
Flags: W
LayerCount: 2
Fore
SplineSet
1044 885 m 257
 1007 917 1007 917 943.5 937 c 128
 880 957 880 957 775 957 c 257
 691 957 691 957 619 925.5 c 128
 547 894 547 894 491 840 c 128
 435 786 435 786 398 714.5 c 128
 361 643 361 643 347 564 c 257
 338 516 338 516 338 469 c 257
 338 403 338 403 356.5 345 c 128
 375 287 375 287 412.5 244 c 128
 450 201 450 201 508 176.5 c 128
 566 152 566 152 644 152 c 257
 686 152 686 152 732 165 c 128
 778 178 778 178 820.5 195 c 128
 863 212 863 212 896.5 230 c 128
 930 248 930 248 947 258 c 257
 1000 115 l 257
 970 93 970 93 926.5 70 c 128
 883 47 883 47 830.5 27.5 c 128
 778 8 778 8 719.5 -4.5 c 128
 661 -17 661 -17 601 -17 c 257
NamedP: "ab01"
 491 -17 491 -17 406 21.5 c 128
 321 60 321 60 263 125.5 c 128
 205 191 205 191 174.5 278.5 c 128
 144 366 144 366 144 464 c 257
 144 492 144 492 146.5 520 c 128
 149 548 149 548 154 577 c 257
 172 681 172 681 227.5 778.5 c 128
 283 876 283 876 368.5 951 c 128
 454 1026 454 1026 565 1071.5 c 128
 676 1117 676 1117 805 1117 c 257
NamedP: "av01"
 927 1117 927 1117 1013.5 1088.5 c 128
 1100 1060 1100 1060 1163 1000 c 257
 1044 885 l 257
EndSplineSet
PickledDataWithLists: "(dp0
Vcom.fontlab.ttprogram
p1
(c_codecs
encode
p2
(Vdata
p3
Vlatin1
p4
tp5
Rp6
g2
(V<data>\\u000a        <ttProgram>\\u000a          <ttc align=\"round\" code=\"alignv\" point=\"av01\"/>\\u000a          <ttc code=\"alignb\" point=\"ab01\" zone=\"b: 0\"/>\\u000a        </ttProgram>\\u000a      </data>
p7
g4
tp8
Rp9
Ntp10
s."
EndChar
StartChar: d
Encoding: 202 100 202
GlifName: d
Width: 1300
VWidth: 0
Flags: W
LayerCount: 2
Fore
SplineSet
715 940 m 257
 602 940 602 940 520 897.5 c 128
 438 855 438 855 385 783.5 c 128
 332 712 332 712 306 619.5 c 128
 280 527 280 527 280 427 c 257
 280 355 280 355 294 302 c 128
 308 249 308 249 333 213.5 c 128
 358 178 358 178 392 161 c 128
 426 144 426 144 466 144 c 257
 518 144 518 144 562 158 c 128
 606 172 606 172 642.5 195 c 128
 679 218 679 218 709.5 247 c 128
 740 276 740 276 764 306 c 257
 876 940 l 257
 715 940 l 257
711 0 m 257
NamedP: "ab02"
 739 162 l 257
 624 49 l 257
 603 32 603 32 582.5 19.5 c 128
 562 7 562 7 537.5 -1 c 128
 513 -9 513 -9 481 -13 c 128
 449 -17 449 -17 405 -17 c 257
NamedP: "ab01"
 332 -17 332 -17 275 15.5 c 128
 218 48 218 48 179 107.5 c 128
 140 167 140 167 120 249.5 c 128
 100 332 100 332 100 431 c 257
 100 516 100 516 117.5 599 c 128
 135 682 135 682 170 756 c 128
 205 830 205 830 259 892.5 c 128
 313 955 313 955 385.5 1001 c 128
 458 1047 458 1047 550.5 1073 c 128
 643 1099 643 1099 755 1100 c 257
NamedP: "av02"
 904 1100 l 257
NamedP: "sv01"
 996 1620 l 257
NamedP: "av01"
 1175 1600 l 257
 924 180 l 257
 913 0 l 257
NamedP: "sv02"
 711 0 l 257
NamedP: "ab02"
EndSplineSet
PickledDataWithLists: "(dp0
Vcom.fontlab.ttprogram
p1
(c_codecs
encode
p2
(Vdata
p3
Vlatin1
p4
tp5
Rp6
g2
(V<data>\\u000a        <ttProgram>\\u000a          <ttc align=\"round\" code=\"alignv\" point=\"av01\"/>\\u000a          <ttc align=\"round\" code=\"alignv\" point=\"av02\"/>\\u000a          <ttc code=\"alignb\" point=\"ab01\" zone=\"b: 0\"/>\\u000a          <ttc code=\"alignb\" point=\"ab02\" zone=\"b: 0\"/>\\u000a          <ttc code=\"singlev\" point1=\"av02\" point2=\"sv01\"/>\\u000a          <ttc code=\"singlev\" point1=\"ab02\" point2=\"sv02\"/>\\u000a        </ttProgram>\\u000a      </data>
p7
g4
tp8
Rp9
Ntp10
s."
EndChar
StartChar: f
Encoding: 245 102 245
GlifName: f
Width: 1300
VWidth: 0
Flags: W
LayerCount: 2
Fore
SplineSet
553 940 m 257
 403 940 l 257
NamedP: "av01"
 431 1100 l 257
 581 1100 l 257
 609 1255 l 257
 626 1348 626 1348 655 1416.5 c 128
 684 1485 684 1485 728.5 1529.5 c 128
 773 1574 773 1574 833 1596 c 128
 893 1618 893 1618 973 1618 c 257
 981 1618 981 1618 988 1617.5 c 128
NamedP: "av02"
 995 1617 995 1617 1003 1617 c 257
 1048 1615 1048 1615 1083 1607.5 c 128
 1118 1600 1118 1600 1146 1588 c 128
 1174 1576 1174 1576 1196 1561 c 128
 1218 1546 1218 1546 1236 1529 c 257
 1141 1406 l 257
 1112 1431 1112 1431 1074 1448 c 128
 1036 1465 1036 1465 997 1465 c 257
 986 1465 l 257
 948 1462 948 1462 916.5 1453 c 128
 885 1444 885 1444 860 1420.5 c 128
 835 1397 835 1397 816 1355 c 128
 797 1313 797 1313 785 1245 c 257
 758 1100 l 257
 1048 1100 l 257
 1000 940 l 257
NamedP: "sv01"
 735 940 l 257
 560 -99 l 257
 550 -156 550 -156 527.5 -213.5 c 128
 505 -271 505 -271 466 -317 c 128
 427 -363 427 -363 370 -392 c 128
 313 -421 313 -421 234 -421 c 257
NamedP: "av03"
 225 -421 225 -421 215.5 -421 c 128
 206 -421 206 -421 195 -420 c 257
 135 -415 135 -415 102.5 -401.5 c 128
 70 -388 70 -388 59 -382 c 257
 124 -238 l 257
 135 -242 135 -242 159 -250.5 c 128
 183 -259 183 -259 213 -260 c 257
 220 -260 l 257
 256 -260 256 -260 283 -242 c 128
 310 -224 310 -224 330 -190.5 c 128
 350 -157 350 -157 363.5 -108.5 c 128
 377 -60 377 -60 388 0 c 257
 553 940 l 257
EndSplineSet
PickledDataWithLists: "(dp0
Vcom.fontlab.ttprogram
p1
(c_codecs
encode
p2
(Vdata
p3
Vlatin1
p4
tp5
Rp6
g2
(V<data>\\u000a        <ttProgram>\\u000a          <ttc align=\"round\" code=\"alignv\" point=\"av01\"/>\\u000a          <ttc align=\"round\" code=\"alignv\" point=\"av02\"/>\\u000a          <ttc align=\"round\" code=\"alignv\" point=\"av03\"/>\\u000a          <ttc code=\"singlev\" point1=\"av01\" point2=\"sv01\"/>\\u000a        </ttProgram>\\u000a      </data>
p7
g4
tp8
Rp9
Ntp10
sVcom.typemytype.robofont.guides
p11
(lp12
(dp13
Vangle
p14
I0
sVisGlobal
p15
I00
sVmagnetic
p16
I5
sVx
p17
I0
sVy
p18
I3258
sas."
EndChar
StartChar: g
Encoding: 264 103 264
GlifName: g
Width: 1300
VWidth: 0
Flags: W
LayerCount: 2
Fore
SplineSet
813 135 m 257
 707 25 l 257
 698 20 698 20 683.5 12.5 c 128
 669 5 669 5 648 -1.5 c 128
 627 -8 627 -8 600 -12.5 c 128
 573 -17 573 -17 540 -17 c 257
NamedP: "ab01"
 455 -17 455 -17 388 17.5 c 128
 321 52 321 52 275 114.5 c 128
 229 177 229 177 204.5 264.5 c 128
 180 352 180 352 180 458 c 257
 180 543 180 543 196 625 c 128
 212 707 212 707 243 780 c 128
 274 853 274 853 320 915 c 128
 366 977 366 977 426.5 1022 c 128
 487 1067 487 1067 561.5 1092 c 128
 636 1117 636 1117 724 1117 c 257
NamedP: "av01"
 745 1117 745 1117 769.5 1114 c 128
 794 1111 794 1111 818 1105.5 c 128
 842 1100 842 1100 864 1091 c 128
 886 1082 886 1082 903 1070 c 257
 958 958 l 257
 988 1121 l 257
NamedP: "av03"
 1165 1100 l 257
 963 -46 l 257
 944 -151 944 -151 900.5 -237.5 c 128
 857 -324 857 -324 791.5 -386.5 c 128
 726 -449 726 -449 640.5 -483 c 128
 555 -517 555 -517 453 -517 c 257
NamedP: "av02"
 376 -517 376 -517 315.5 -501 c 128
 255 -485 255 -485 211.5 -463.5 c 128
 168 -442 168 -442 140 -420 c 128
 112 -398 112 -398 100 -386 c 257
 217 -276 l 257
 224 -282 224 -282 246 -295.5 c 128
 268 -309 268 -309 301.5 -322.5 c 128
 335 -336 335 -336 377.5 -346.5 c 128
 420 -357 420 -357 468 -357 c 257
 530 -357 530 -357 582.5 -333.5 c 128
 635 -310 635 -310 675.5 -267 c 128
 716 -224 716 -224 743.5 -164 c 128
 771 -104 771 -104 784 -31 c 257
 813 135 l 257
937 834 m 257
 922 855 922 855 900 877 c 128
 878 899 878 899 848.5 917 c 128
 819 935 819 935 781 946.5 c 128
 743 958 743 958 697 958 c 257
 634 958 634 958 584.5 935 c 128
 535 912 535 912 497.5 873.5 c 128
 460 835 460 835 433.5 783.5 c 128
 407 732 407 732 390.5 675.5 c 128
 374 619 374 619 366.5 560 c 128
 359 501 359 501 359 448 c 257
 359 312 359 312 405 235 c 128
 451 158 451 158 551 145 c 257
 572 142 572 142 592 142 c 257
 634 142 634 142 669.5 153 c 128
 705 164 705 164 735 182.5 c 128
 765 201 765 201 790.5 225 c 128
 816 249 816 249 838 275 c 257
 937 834 l 257
EndSplineSet
PickledDataWithLists: "(dp0
Vcom.fontlab.ttprogram
p1
(c_codecs
encode
p2
(Vdata
p3
Vlatin1
p4
tp5
Rp6
g2
(V<data>\\u000a        <ttProgram>\\u000a          <ttc align=\"round\" code=\"alignv\" point=\"av01\"/>\\u000a          <ttc align=\"round\" code=\"alignv\" point=\"av02\"/>\\u000a          <ttc align=\"round\" code=\"alignv\" point=\"av03\"/>\\u000a          <ttc code=\"alignb\" point=\"ab01\" zone=\"b: 0\"/>\\u000a        </ttProgram>\\u000a      </data>
p7
g4
tp8
Rp9
Ntp10
s."
EndChar
StartChar: h
Encoding: 275 104 275
GlifName: h
Width: 1300
VWidth: 0
Flags: W
LayerCount: 2
Fore
SplineSet
298 0 m 257
 108 0 l 257
NamedP: "ab01"
 355 1400 l 257
 370 1600 l 257
 583 1620 l 257
NamedP: "av01"
 465 950 l 257
 574 1065 l 257
 618 1087 618 1087 693.5 1102 c 128
 769 1117 769 1117 884 1117 c 257
NamedP: "av02"
 1009 1117 1009 1117 1072.5 1048.5 c 128
 1136 980 1136 980 1136 849 c 257
 1136 822 1136 822 1133.5 792 c 128
 1131 762 1131 762 1125 730 c 257
 997 0 l 257
NamedP: "sv01"
 807 0 l 257
 932 709 l 257
 941 761 941 761 941 803 c 257
 941 886 941 886 906.5 921.5 c 128
 872 957 872 957 809 957 c 257
 749 957 749 957 692.5 945 c 128
 636 933 636 933 587.5 914.5 c 128
 539 896 539 896 502 874 c 128
 465 852 465 852 445 833 c 257
 298 0 l 257
EndSplineSet
PickledDataWithLists: "(dp0
Vcom.fontlab.ttprogram
p1
(c_codecs
encode
p2
(Vdata
p3
Vlatin1
p4
tp5
Rp6
g2
(V<data>\\u000a        <ttProgram>\\u000a          <ttc align=\"round\" code=\"alignv\" point=\"av01\"/>\\u000a          <ttc align=\"round\" code=\"alignv\" point=\"av02\"/>\\u000a          <ttc code=\"alignb\" point=\"ab01\" zone=\"b: 0\"/>\\u000a          <ttc code=\"singlev\" point1=\"ab01\" point2=\"sv01\"/>\\u000a        </ttProgram>\\u000a      </data>
p7
g4
tp8
Rp9
Ntp10
s."
EndChar
StartChar: i
Encoding: 285 105 285
GlifName: i
Width: 1300
VWidth: 0
Flags: W
HStem: -17 150<653.52 909.809> 940 160<250 455> 1300 200<630 797>
VStem: 426 191<163.756 560.108>
DStem2: 366.736 -17 563.34 -17 0.173648 0.984808<325.454 950.478 1371.71 1539.67>
LayerCount: 2
Fore
SplineSet
630 1500 m 257,0,-1
NamedP: "at01"
 832 1500 l 257,1,-1
NamedP: "sv01"
 797 1300 l 257,2,-1
 595 1300 l 257,3,-1
 630 1500 l 257,0,-1
NamedP: "at01"
575 980 m 257,4,-1
 455 940 l 257,5,-1
 225 940 l 257,6,-1
 250 1100 l 257,7,-1
NamedP: "av01"
 756 1100 l 257,8,9
NamedP: "sv02"
 731 960 731 960 713 859 c 128,-1,10
 695 758 695 758 682.5 687 c 128,-1,11
 670 616 670 616 662.5 572 c 128,-1,12
 655 528 655 528 650.5 502 c 128,-1,13
 646 476 646 476 644 464.5 c 128,-1,14
 642 453 642 453 641 448.5 c 128,-1,15
 640 444 640 444 639.5 441.5 c 128,-1,16
 639 439 639 439 638 431 c 257,17,18
 636 417 636 417 632.5 394 c 128,-1,19
 629 371 629 371 625.5 347 c 128,-1,20
 622 323 622 323 619.5 301.5 c 128,-1,21
 617 280 617 280 617 269 c 257,22,23
 617 193 617 193 660 163 c 128,-1,24
 703 133 703 133 781 133 c 257,25,26
 807 133 807 133 839.5 145 c 128,-1,27
 872 157 872 157 904 173.5 c 128,-1,28
 936 190 936 190 963 208.5 c 128,-1,29
 990 227 990 227 1006 241 c 257,30,-1
 1054 120 l 257,31,32
 1045 112 1045 112 1015.5 89.5 c 128,-1,33
 986 67 986 67 944 43.5 c 128,-1,34
 902 20 902 20 850 1.5 c 128,-1,35
 798 -17 798 -17 743 -17 c 257,36,37
NamedP: "ab01"
 674 -17 674 -17 616 2.5 c 128,-1,38
 558 22 558 22 516 56.5 c 128,-1,39
 474 91 474 91 450 139 c 128,-1,40
 426 187 426 187 426 244 c 257,41,42
 426 262 426 262 428 288 c 128,-1,43
 430 314 430 314 433 342.5 c 128,-1,44
 436 371 436 371 440 398.5 c 128,-1,45
 444 426 444 426 448 447 c 257,46,-1
 532 919 l 257,47,-1
 575 980 l 257,4,-1
EndSplineSet
PickledDataWithLists: "(dp0
Vcom.fontlab.ttprogram
p1
(c_codecs
encode
p2
(Vdata
p3
Vlatin1
p4
tp5
Rp6
g2
(V<data>\\u000a        <ttProgram>\\u000a          <ttc align=\"round\" code=\"alignv\" point=\"av01\"/>\\u000a          <ttc code=\"alignt\" point=\"at01\" zone=\"t: 1\"/>\\u000a          <ttc code=\"alignb\" point=\"ab01\" zone=\"b: 0\"/>\\u000a          <ttc code=\"singlev\" point1=\"at01\" point2=\"sv01\"/>\\u000a          <ttc code=\"singlev\" point1=\"av01\" point2=\"sv02\"/>\\u000a        </ttProgram>\\u000a      </data>
p7
g4
tp8
Rp9
Ntp10
s."
EndChar
StartChar: j
Encoding: 298 106 298
GlifName: j
Width: 1300
VWidth: 0
Flags: W
LayerCount: 2
Fore
SplineSet
923 1500 m 257
NamedP: "at01"
 1125 1500 l 257
NamedP: "sv01"
 1090 1300 l 257
 888 1300 l 257
 923 1500 l 257
NamedP: "at01"
873 995 m 257
 753 955 l 257
 524 955 l 257
 550 1100 l 257
NamedP: "av02"
 1049 1100 l 257
NamedP: "sv02"
 838 -97 l 257
 822 -186 822 -186 797 -263 c 128
 772 -340 772 -340 728.5 -396.5 c 128
 685 -453 685 -453 618.5 -485 c 128
 552 -517 552 -517 454 -517 c 257
NamedP: "av01"
 388 -517 388 -517 331.5 -506.5 c 128
 275 -496 275 -496 233 -483.5 c 128
 191 -471 191 -471 165 -459 c 128
 139 -447 139 -447 134 -444 c 257
 200 -290 l 257
 205 -294 205 -294 224 -304.5 c 128
 243 -315 243 -315 273 -326.5 c 128
 303 -338 303 -338 343 -346.5 c 128
 383 -355 383 -355 431 -355 c 257
 478 -355 478 -355 513.5 -339 c 128
 549 -323 549 -323 575 -292 c 128
 601 -261 601 -261 618 -214.5 c 128
 635 -168 635 -168 646 -107 c 257
 830 934 l 257
 873 995 l 257
EndSplineSet
PickledDataWithLists: "(dp0
Vcom.fontlab.ttprogram
p1
(c_codecs
encode
p2
(Vdata
p3
Vlatin1
p4
tp5
Rp6
g2
(V<data>\\u000a        <ttProgram>\\u000a          <ttc align=\"round\" code=\"alignv\" point=\"av01\"/>\\u000a          <ttc align=\"round\" code=\"alignv\" point=\"av02\"/>\\u000a          <ttc code=\"alignt\" point=\"at01\" zone=\"t: 1\"/>\\u000a          <ttc code=\"singlev\" point1=\"at01\" point2=\"sv01\"/>\\u000a          <ttc code=\"singlev\" point1=\"av02\" point2=\"sv02\"/>\\u000a        </ttProgram>\\u000a      </data>
p7
g4
tp8
Rp9
Ntp10
s."
EndChar
StartChar: k
Encoding: 299 107 299
GlifName: k
Width: 1300
VWidth: 0
Flags: W
LayerCount: 2
Fore
SplineSet
160 0 m 257
NamedP: "ab01"
 410 1420 l 257
 422 1600 l 257
 627 1620 l 257
NamedP: "av02"
 463 690 l 257
 905 1100 l 257
NamedP: "av01"
 1134 1100 l 257
NamedP: "sv01"
 692 690 l 257
 513 627 l 257
 670 567 l 257
 1052 0 l 257
NamedP: "sv02"
 816 0 l 257
 440 557 l 257
 342 0 l 257
 160 0 l 257
NamedP: "ab01"
EndSplineSet
PickledDataWithLists: "(dp0
Vcom.fontlab.ttprogram
p1
(c_codecs
encode
p2
(Vdata
p3
Vlatin1
p4
tp5
Rp6
g2
(V<data>\\u000a        <ttProgram>\\u000a          <ttc align=\"round\" code=\"alignv\" point=\"av01\"/>\\u000a          <ttc align=\"round\" code=\"alignv\" point=\"av02\"/>\\u000a          <ttc code=\"alignb\" point=\"ab01\" zone=\"b: 0\"/>\\u000a          <ttc code=\"singlev\" point1=\"av01\" point2=\"sv01\"/>\\u000a          <ttc code=\"singlev\" point1=\"ab01\" point2=\"sv02\"/>\\u000a        </ttProgram>\\u000a      </data>
p7
g4
tp8
Rp9
Ntp10
s."
EndChar
StartChar: l
Encoding: 301 108 301
GlifName: l
Width: 1300
VWidth: 0
Flags: W
LayerCount: 2
Fore
SplineSet
635 1475 m 257
 515 1435 l 257
 305 1435 l 257
 333 1600 l 257
NamedP: "av01"
 819 1600 l 257
NamedP: "sv01"
 603 376 l 257
 597 344 597 344 595 317.5 c 128
 593 291 593 291 593 269 c 257
 593 193 593 193 636 163 c 128
 679 133 679 133 757 133 c 257
 783 133 783 133 815.5 145 c 128
 848 157 848 157 880 173.5 c 128
 912 190 912 190 939 208.5 c 128
 966 227 966 227 982 241 c 257
 1030 120 l 257
 1021 112 1021 112 991.5 89.5 c 128
 962 67 962 67 920 43.5 c 128
 878 20 878 20 826 1.5 c 128
 774 -17 774 -17 719 -17 c 257
NamedP: "ab01"
 650 -17 650 -17 592 2.5 c 128
 534 22 534 22 492 56.5 c 128
 450 91 450 91 426 139 c 128
 402 187 402 187 402 244 c 257
 402 280 402 280 406 319 c 128
 410 358 410 358 418 400 c 257
 592 1414 l 257
 635 1475 l 257
EndSplineSet
PickledDataWithLists: "(dp0
Vcom.fontlab.ttprogram
p1
(c_codecs
encode
p2
(Vdata
p3
Vlatin1
p4
tp5
Rp6
g2
(V<data>\\u000a        <ttProgram>\\u000a          <ttc align=\"round\" code=\"alignv\" point=\"av01\"/>\\u000a          <ttc code=\"alignb\" point=\"ab01\" zone=\"b: 0\"/>\\u000a          <ttc code=\"singlev\" point1=\"av01\" point2=\"sv01\"/>\\u000a        </ttProgram>\\u000a      </data>
p7
g4
tp8
Rp9
Ntp10
s."
EndChar
StartChar: m
Encoding: 317 109 317
GlifName: m
Width: 1300
VWidth: 0
Flags: W
LayerCount: 2
Fore
SplineSet
200 0 m 257
NamedP: "sv01"
 23 0 l 257
NamedP: "ab01"
 216 1100 l 257
 397 1121 l 257
NamedP: "av03"
 365 937 l 257
 393 977 393 977 408 999.5 c 128
 423 1022 423 1022 430.5 1032.5 c 128
 438 1043 438 1043 440 1045.5 c 128
 442 1048 442 1048 443 1048 c 257
 454 1057 454 1057 469.5 1069 c 128
 485 1081 485 1081 506.5 1091.5 c 128
 528 1102 528 1102 557.5 1109.5 c 128
 587 1117 587 1117 626 1117 c 257
NamedP: "av01"
 682 1117 682 1117 715.5 1102.5 c 128
 749 1088 749 1088 767 1062.5 c 128
 785 1037 785 1037 792.5 1001 c 128
 800 965 800 965 803 923 c 257
 887 1043 l 257
 898 1052 898 1052 919.5 1065 c 128
 941 1078 941 1078 969 1089.5 c 128
 997 1101 997 1101 1028.5 1109 c 128
 1060 1117 1060 1117 1092 1117 c 257
NamedP: "av02"
 1168 1117 1168 1117 1208 1091.5 c 128
 1248 1066 1248 1066 1262 1018 c 128
 1276 970 1276 970 1270.5 902 c 128
 1265 834 1265 834 1250 750 c 257
 1118 0 l 257
NamedP: "sv05"
 940 0 l 257
NamedP: "sv04"
 1070 740 l 257
 1080 794 1080 794 1085.5 834.5 c 128
 1091 875 1091 875 1085.5 902.5 c 128
 1080 930 1080 930 1060 943.5 c 128
 1040 957 1040 957 999 957 c 257
 979 957 979 957 951 944.5 c 128
 923 932 923 932 894.5 912.5 c 128
 866 893 866 893 840.5 868.5 c 128
 815 844 815 844 800 819 c 257
 799 813 799 813 797 799.5 c 128
 795 786 795 786 793 771.5 c 128
 791 757 791 757 789 744.5 c 128
 787 732 787 732 786 727 c 257
 658 0 l 257
NamedP: "sv03"
 479 0 l 257
NamedP: "sv02"
 606 720 l 257
 615 774 615 774 621 818 c 128
 627 862 627 862 622 892.5 c 128
 617 923 617 923 596.5 940 c 128
 576 957 576 957 533 957 c 257
 517 957 517 957 493.5 948 c 128
 470 939 470 939 444 921.5 c 128
 418 904 418 904 392 879.5 c 128
 366 855 366 855 345 824 c 257
 200 0 l 257
NamedP: "sv01"
EndSplineSet
PickledDataWithLists: "(dp0
Vcom.fontlab.ttprogram
p1
(c_codecs
encode
p2
(Vdata
p3
Vlatin1
p4
tp5
Rp6
g2
(V<data>\\u000a        <ttProgram>\\u000a          <ttc align=\"round\" code=\"alignv\" point=\"av01\"/>\\u000a          <ttc align=\"round\" code=\"alignv\" point=\"av02\"/>\\u000a          <ttc align=\"round\" code=\"alignv\" point=\"av03\"/>\\u000a          <ttc code=\"alignb\" point=\"ab01\" zone=\"b: 0\"/>\\u000a          <ttc code=\"singlev\" point1=\"ab01\" point2=\"sv01\"/>\\u000a          <ttc code=\"singlev\" point1=\"sv01\" point2=\"sv02\"/>\\u000a          <ttc code=\"singlev\" point1=\"sv02\" point2=\"sv03\"/>\\u000a          <ttc code=\"singlev\" point1=\"sv03\" point2=\"sv04\"/>\\u000a          <ttc code=\"singlev\" point1=\"sv04\" point2=\"sv05\"/>\\u000a        </ttProgram>\\u000a      </data>
p7
g4
tp8
Rp9
Ntp10
s."
EndChar
StartChar: n
Encoding: 326 110 326
GlifName: n
Width: 1300
VWidth: 0
Flags: W
LayerCount: 2
Fore
SplineSet
292 0 m 257,0,-1
 102 0 l 257,1,-1
NamedP: "ab01"
 296 1100 l 257,2,-1
 489 1121 l 257,3,-1
NamedP: "av01"
 455 927 l 257,4,-1
 537 1044 l 257,5,6
 557 1056 557 1056 586 1069 c 128,-1,7
 615 1082 615 1082 655 1092.5 c 128,-1,8
 695 1103 695 1103 746.5 1110 c 128,-1,9
 798 1117 798 1117 863 1117 c 257,10,11
NamedP: "av02"
 1000 1117 1000 1117 1071 1044.5 c 128,-1,12
 1142 972 1142 972 1142 844 c 257,13,14
 1142 799 1142 799 1133 750 c 257,15,-1
 1001 0 l 257,16,-1
NamedP: "sv01"
 811 0 l 257,17,-1
 943 750 l 257,18,19
 945 764 945 764 946.5 777 c 128,-1,20
 948 790 948 790 948 802 c 257,21,22
 948 851 948 851 935.5 881.5 c 128,-1,23
 923 912 923 912 899.5 929 c 128,-1,24
 876 946 876 946 843 951.5 c 128,-1,25
 810 957 810 957 770 957 c 257,26,27
 717 957 717 957 670 945 c 128,-1,28
 623 933 623 933 581.5 914.5 c 128,-1,29
 540 896 540 896 504.5 874.5 c 128,-1,30
 469 853 469 853 439 834 c 257,31,-1
 292 0 l 257,0,-1
EndSplineSet
PickledDataWithLists: "(dp0
Vcom.fontlab.ttprogram
p1
(c_codecs
encode
p2
(Vdata
p3
Vlatin1
p4
tp5
Rp6
g2
(V<data>\\u000a        <ttProgram>\\u000a          <ttc align=\"round\" code=\"alignv\" point=\"av01\"/>\\u000a          <ttc align=\"round\" code=\"alignv\" point=\"av02\"/>\\u000a          <ttc code=\"alignb\" point=\"ab01\" zone=\"b: 0\"/>\\u000a          <ttc code=\"singlev\" point1=\"ab01\" point2=\"sv01\"/>\\u000a        </ttProgram>\\u000a      </data>
p7
g4
tp8
Rp9
Ntp10
s."
EndChar
StartChar: p
Encoding: 360 112 360
GlifName: p
Width: 1300
VWidth: 0
Flags: W
LayerCount: 2
Fore
SplineSet
572 160 m 257
 686 160 686 160 765.5 202 c 128
 845 244 845 244 895 315.5 c 128
 945 387 945 387 968 480.5 c 128
 991 574 991 574 991 677 c 257
 991 815 991 815 931.5 887.5 c 128
 872 960 872 960 768 960 c 257
 693 960 693 960 630 922.5 c 128
 567 885 567 885 507 827 c 257
 390 160 l 257
 572 160 l 257
273 -500 m 257
NamedP: "sv01"
 91 -500 l 257
NamedP: "av03"
 373 1100 l 257
 559 1121 l 257
NamedP: "av01"
 528 944 l 257
 623 1047 l 257
 643 1060 643 1060 664 1072.5 c 128
 685 1085 685 1085 709.5 1095 c 128
 734 1105 734 1105 764.5 1111 c 128
 795 1117 795 1117 834 1117 c 257
NamedP: "av02"
 907 1117 907 1117 969.5 1089 c 128
 1032 1061 1032 1061 1077 1007 c 128
 1122 953 1122 953 1147.5 874.5 c 128
 1173 796 1173 796 1173 695 c 257
 1173 553 1173 553 1134 427 c 128
 1095 301 1095 301 1013.5 206 c 128
 932 111 932 111 806.5 55.5 c 128
 681 0 681 0 508 0 c 257
NamedP: "sv02"
 362 0 l 257
NamedP: "ab01"
 273 -500 l 257
NamedP: "sv01"
EndSplineSet
PickledDataWithLists: "(dp0
Vcom.fontlab.ttprogram
p1
(c_codecs
encode
p2
(Vdata
p3
Vlatin1
p4
tp5
Rp6
g2
(V<data>\\u000a        <ttProgram>\\u000a          <ttc align=\"round\" code=\"alignv\" point=\"av01\"/>\\u000a          <ttc align=\"round\" code=\"alignv\" point=\"av02\"/>\\u000a          <ttc align=\"round\" code=\"alignv\" point=\"av03\"/>\\u000a          <ttc code=\"alignb\" point=\"ab01\" zone=\"b: 0\"/>\\u000a          <ttc code=\"singlev\" point1=\"av03\" point2=\"sv01\"/>\\u000a          <ttc code=\"singlev\" point1=\"ab01\" point2=\"sv02\"/>\\u000a        </ttProgram>\\u000a      </data>
p7
g4
tp8
Rp9
Ntp10
s."
EndChar
StartChar: q
Encoding: 392 113 392
GlifName: q
Width: 1300
VWidth: 0
Flags: W
LayerCount: 2
Fore
SplineSet
933 935 m 257
 913 939 913 939 887 943 c 128
 861 947 861 947 831.5 950 c 128
 802 953 802 953 771.5 955 c 128
 741 957 741 957 713 957 c 257
 638 957 638 957 581.5 932 c 128
 525 907 525 907 483.5 865.5 c 128
 442 824 442 824 414.5 770 c 128
 387 716 387 716 370.5 657 c 128
 354 598 354 598 347 538 c 128
 340 478 340 478 340 425 c 257
 340 277 340 277 394 208.5 c 128
 448 140 448 140 545 140 c 257
 615 140 615 140 685 177 c 128
 755 214 755 214 816 270 c 257
 933 935 l 257
792 136 m 257
 669 29 l 257
 641 17 641 17 618 8.5 c 128
 595 0 595 0 572.5 -6 c 128
 550 -12 550 -12 525.5 -14.5 c 128
 501 -17 501 -17 470 -17 c 257
NamedP: "ab01"
 397 -17 397 -17 338.5 13.5 c 128
 280 44 280 44 239.5 101.5 c 128
 199 159 199 159 177 242.5 c 128
 155 326 155 326 155 432 c 257
 155 577 155 577 197 702 c 128
 239 827 239 827 314.5 919 c 128
 390 1011 390 1011 495.5 1064 c 128
 601 1117 601 1117 727 1117 c 257
NamedP: "av02"
 793 1117 793 1117 845 1113 c 128
 897 1109 897 1109 943.5 1101.5 c 128
 990 1094 990 1094 1036.5 1084.5 c 128
 1083 1075 1083 1075 1138 1065 c 257
 862 -500 l 257
NamedP: "sv01"
 680 -500 l 257
NamedP: "av01"
 792 136 l 257
EndSplineSet
PickledDataWithLists: "(dp0
Vcom.fontlab.ttprogram
p1
(c_codecs
encode
p2
(Vdata
p3
Vlatin1
p4
tp5
Rp6
g2
(V<data>\\u000a        <ttProgram>\\u000a          <ttc align=\"round\" code=\"alignv\" point=\"av01\"/>\\u000a          <ttc align=\"round\" code=\"alignv\" point=\"av02\"/>\\u000a          <ttc code=\"alignb\" point=\"ab01\" zone=\"b: 0\"/>\\u000a          <ttc code=\"singlev\" point1=\"av01\" point2=\"sv01\"/>\\u000a        </ttProgram>\\u000a      </data>
p7
g4
tp8
Rp9
Ntp10
s."
EndChar
StartChar: r
Encoding: 404 114 404
GlifName: r
Width: 1300
VWidth: 0
Flags: W
LayerCount: 2
Fore
SplineSet
448 895 m 257
 566 1053 l 257
 598 1074 598 1074 636 1087 c 128
 674 1100 674 1100 713.5 1106.5 c 128
 753 1113 753 1113 792 1115 c 128
 831 1117 831 1117 866 1117 c 257
NamedP: "av01"
 918 1117 918 1117 961 1110 c 128
 1004 1103 1004 1103 1037 1093 c 128
 1070 1083 1070 1083 1092 1072 c 128
 1114 1061 1114 1061 1125 1053 c 257
 1125 800 l 257
 980 779 l 257
 961 948 l 257
 947 953 947 953 919 960.5 c 128
 891 968 891 968 846 968 c 257
 778 968 778 968 716 949 c 128
 654 930 654 930 600 899 c 128
 546 868 546 868 501 829 c 128
 456 790 456 790 422 750 c 257
 290 0 l 257
NamedP: "sv01"
 100 0 l 257
NamedP: "ab01"
 294 1100 l 257
 487 1121 l 257
NamedP: "av02"
 448 895 l 257
EndSplineSet
PickledDataWithLists: "(dp0
Vcom.fontlab.ttprogram
p1
(c_codecs
encode
p2
(Vdata
p3
Vlatin1
p4
tp5
Rp6
g2
(V<data>\\u000a        <ttProgram>\\u000a          <ttc align=\"round\" code=\"alignv\" point=\"av01\"/>\\u000a          <ttc align=\"round\" code=\"alignv\" point=\"av02\"/>\\u000a          <ttc code=\"alignb\" point=\"ab01\" zone=\"b: 0\"/>\\u000a          <ttc code=\"singlev\" point1=\"ab01\" point2=\"sv01\"/>\\u000a        </ttProgram>\\u000a      </data>
p7
g4
tp8
Rp9
Ntp10
s."
EndChar
StartChar: t
Encoding: 514 116 514
GlifName: t
Width: 1300
VWidth: 0
Flags: W
LayerCount: 2
Fore
SplineSet
533 376 m 257
 521 307 521 307 521 261 c 257
 521 195 521 195 543 169 c 128
 565 143 565 143 607 143 c 257
 654 143 654 143 702 154 c 128
 750 165 750 165 792.5 179.5 c 128
 835 194 835 194 868.5 208.5 c 128
 902 223 902 223 920 230 c 257
 968 109 l 257
 957 101 957 101 919 80.5 c 128
 881 60 881 60 824.5 38 c 128
 768 16 768 16 699.5 -0.5 c 128
 631 -17 631 -17 559 -17 c 257
NamedP: "ab01"
 493 -17 493 -17 448.5 1 c 128
 404 19 404 19 377.5 52 c 128
 351 85 351 85 340 130 c 128
 329 175 329 175 329 229 c 257
 329 268 329 268 334 311 c 128
 339 354 339 354 347 400 c 257
 443 940 l 257
 142 940 l 257
 170 1100 l 257
NamedP: "av01"
 471 1100 l 257
 508 1309 l 257
 712 1420 l 257
NamedP: "av02"
 656 1100 l 257
 1096 1100 l 257
NamedP: "sv01"
 1048 940 l 257
 633 940 l 257
 533 376 l 257
EndSplineSet
PickledDataWithLists: "(dp0
Vcom.fontlab.ttprogram
p1
(c_codecs
encode
p2
(Vdata
p3
Vlatin1
p4
tp5
Rp6
g2
(V<data>\\u000a        <ttProgram>\\u000a          <ttc align=\"round\" code=\"alignv\" point=\"av01\"/>\\u000a          <ttc align=\"round\" code=\"alignv\" point=\"av02\"/>\\u000a          <ttc code=\"alignb\" point=\"ab01\" zone=\"b: 0\"/>\\u000a          <ttc code=\"singlev\" point1=\"av01\" point2=\"sv01\"/>\\u000a        </ttProgram>\\u000a      </data>
p7
g4
tp8
Rp9
Ntp10
s."
EndChar
StartChar: u
Encoding: 539 117 539
GlifName: u
Width: 1300
VWidth: 0
Flags: W
LayerCount: 2
Fore
SplineSet
967 1100 m 257
 1161 1121 l 257
NamedP: "av02"
 963 0 l 257
NamedP: "sv01"
 773 0 l 257
NamedP: "ab02"
 802 163 l 257
 722 56 l 257
 698 42 698 42 675 29 c 128
 652 16 652 16 620.5 6 c 128
 589 -4 589 -4 542.5 -10.5 c 128
 496 -17 496 -17 425 -17 c 257
NamedP: "ab01"
 356 -17 356 -17 300 9 c 128
 244 35 244 35 204.5 80.5 c 128
 165 126 165 126 143.5 187 c 128
 122 248 122 248 122 318 c 257
 122 338 122 338 123.5 359 c 128
 125 380 125 380 129 401 c 257
 257 1100 l 257
 451 1121 l 257
NamedP: "av01"
 319 401 l 257
 315 381 315 381 313.5 362.5 c 128
 312 344 312 344 312 326 c 257
 312 286 312 286 322 252.5 c 128
 332 219 332 219 354.5 194.5 c 128
 377 170 377 170 412.5 156.5 c 128
 448 143 448 143 498 143 c 257
 564 143 564 143 612.5 153 c 128
 661 163 661 163 698 179.5 c 128
 735 196 735 196 763.5 216.5 c 128
 792 237 792 237 819 258 c 257
 967 1100 l 257
EndSplineSet
PickledDataWithLists: "(dp0
Vcom.fontlab.ttprogram
p1
(c_codecs
encode
p2
(Vdata
p3
Vlatin1
p4
tp5
Rp6
g2
(V<data>\\u000a        <ttProgram>\\u000a          <ttc align=\"round\" code=\"alignv\" point=\"av01\"/>\\u000a          <ttc align=\"round\" code=\"alignv\" point=\"av02\"/>\\u000a          <ttc code=\"alignb\" point=\"ab01\" zone=\"b: 0\"/>\\u000a          <ttc code=\"alignb\" point=\"ab02\" zone=\"b: 0\"/>\\u000a          <ttc code=\"singlev\" point1=\"ab02\" point2=\"sv01\"/>\\u000a        </ttProgram>\\u000a      </data>
p7
g4
tp8
Rp9
Ntp10
s."
EndChar
StartChar: v
Encoding: 553 118 553
GlifName: v
Width: 1300
VWidth: 0
Flags: W
LayerCount: 2
Fore
SplineSet
1202 1121 m 257
NamedP: "av03"
 530 -20 l 257
NamedP: "ab01"
 328 0 l 257
 164 1100 l 257
NamedP: "av01"
 351 1121 l 257
NamedP: "av02"
 460 381 l 257
 472 149 l 257
 563 381 l 257
 983 1100 l 257
NamedP: "sv01"
 1202 1121 l 257
NamedP: "av03"
EndSplineSet
PickledDataWithLists: "(dp0
Vcom.fontlab.ttprogram
p1
(c_codecs
encode
p2
(Vdata
p3
Vlatin1
p4
tp5
Rp6
g2
(V<data>\\u000a        <ttProgram>\\u000a          <ttc align=\"round\" code=\"alignv\" point=\"av01\"/>\\u000a          <ttc align=\"round\" code=\"alignv\" point=\"av02\"/>\\u000a          <ttc align=\"round\" code=\"alignv\" point=\"av03\"/>\\u000a          <ttc code=\"alignb\" point=\"ab01\" zone=\"b: 0\"/>\\u000a          <ttc code=\"singlev\" point1=\"av01\" point2=\"sv01\"/>\\u000a        </ttProgram>\\u000a      </data>
p7
g4
tp8
Rp9
Ntp10
sVcom.typemytype.robofont.guides
p11
(lp12
(dp13
Vangle
p14
I0
sVisGlobal
p15
I00
sVmagnetic
p16
I5
sVx
p17
I0
sVy
p18
I381
sas."
EndChar
StartChar: w
Encoding: 555 119 555
GlifName: w
Width: 1300
VWidth: 0
Flags: W
LayerCount: 2
Fore
SplineSet
737 400 m 257,0,-1
 754 150 l 257,1,-1
 823 480 l 257,2,-1
 1063 1100 l 257,3,-1
NamedP: "sv01"
 1229 1121 l 257,4,-1
NamedP: "av02"
 813 0 l 257,5,-1
NamedP: "sv02"
 666 0 l 257,6,-1
 595 348 l 257,7,-1
 610 750 l 257,8,-1
 485 350 l 257,9,-1
 293 0 l 257,10,-1
 146 0 l 257,11,-1
NamedP: "ab01"
 146 1100 l 257,12,-1
NamedP: "av03"
 299 1121 l 257,13,-1
NamedP: "av01"
 300 480 l 257,14,-1
 263 150 l 257,15,-1
 558 885 l 257,16,-1
NamedP: "av04"
 711 885 l 257,17,-1
NamedP: "sv03"
 737 400 l 257,0,-1
EndSplineSet
PickledDataWithLists: "(dp0
Vcom.fontlab.ttprogram
p1
(c_codecs
encode
p2
(Vdata
p3
Vlatin1
p4
tp5
Rp6
g2
(V<data>\\u000a        <ttProgram>\\u000a          <ttc align=\"round\" code=\"alignv\" point=\"av01\"/>\\u000a          <ttc align=\"round\" code=\"alignv\" point=\"av02\"/>\\u000a          <ttc align=\"round\" code=\"alignv\" point=\"av03\"/>\\u000a          <ttc align=\"round\" code=\"alignv\" point=\"av04\"/>\\u000a          <ttc code=\"alignb\" point=\"ab01\" zone=\"b: 0\"/>\\u000a          <ttc code=\"singlev\" point1=\"av03\" point2=\"sv01\"/>\\u000a          <ttc code=\"singlev\" point1=\"ab01\" point2=\"sv02\"/>\\u000a          <ttc code=\"singlev\" point1=\"av04\" point2=\"sv03\"/>\\u000a        </ttProgram>\\u000a      </data>
p7
g4
tp8
Rp9
Ntp10
sVcom.typemytype.robofont.guides
p11
(lp12
(dp13
Vangle
p14
I0
sVisGlobal
p15
I00
sVmagnetic
p16
I5
sVx
p17
I0
sVy
p18
I500
sa(dp19
g14
I0
sg15
I00
sg16
I5
sg17
I0
sg18
I600
sa(dp20
g14
I90
sg15
I00
sg16
I5
sg17
I466
sg18
I0
sa(dp21
g14
I90
sg15
I00
sg16
I5
sg17
I1039
sg18
I0
sa(dp22
g14
I90
sg15
I00
sg16
I5
sg17
I742
sg18
I0
sas."
EndChar
StartChar: x
Encoding: 578 120 578
GlifName: x
Width: 1300
VWidth: 0
Flags: W
LayerCount: 2
Fore
SplineSet
851 0 m 257
 650 382 l 257
 626 500 l 257
 560 382 l 257
 225 0 l 257
 26 0 l 257
NamedP: "ab01"
 541 588 l 257
 273 1100 l 257
NamedP: "av01"
 487 1121 l 257
NamedP: "av02"
 663 781 l 257
 683 670 l 257
 740 781 l 257
 1021 1100 l 257
NamedP: "sv01"
 1236 1121 l 257
NamedP: "av03"
 767 583 l 257
 1076 0 l 257
NamedP: "sv02"
 851 0 l 257
EndSplineSet
PickledDataWithLists: "(dp0
Vcom.fontlab.ttprogram
p1
(c_codecs
encode
p2
(Vdata
p3
Vlatin1
p4
tp5
Rp6
g2
(V<data>\\u000a        <ttProgram>\\u000a          <ttc align=\"round\" code=\"alignv\" point=\"av01\"/>\\u000a          <ttc align=\"round\" code=\"alignv\" point=\"av02\"/>\\u000a          <ttc align=\"round\" code=\"alignv\" point=\"av03\"/>\\u000a          <ttc code=\"alignb\" point=\"ab01\" zone=\"b: 0\"/>\\u000a          <ttc code=\"singlev\" point1=\"av01\" point2=\"sv01\"/>\\u000a          <ttc code=\"singlev\" point1=\"ab01\" point2=\"sv02\"/>\\u000a        </ttProgram>\\u000a      </data>
p7
g4
tp8
Rp9
Ntp10
sVcom.typemytype.robofont.guides
p11
(lp12
(dp13
Vangle
p14
I0
sVisGlobal
p15
I00
sVmagnetic
p16
I5
sVx
p17
I0
sVy
p18
I382
sa(dp19
g14
I0
sg15
I00
sg16
I5
sg17
I0
sg18
I583
sa(dp20
g14
I0
sg15
I00
sg16
I5
sg17
I0
sg18
I781
sa(dp21
g14
I90
sg15
I00
sg16
I5
sg17
I565
sg18
I0
sa(dp22
g14
I90
sg15
I00
sg16
I5
sg17
I538
sg18
I0
sas."
EndChar
StartChar: y
Encoding: 580 121 580
GlifName: y
Width: 1300
VWidth: 0
Flags: W
LayerCount: 2
Fore
SplineSet
666 364 m 257
 1064 1100 l 257
NamedP: "sv01"
 1257 1121 l 257
NamedP: "av02"
 644 -17 l 257
 580 -136 580 -136 529.5 -223 c 128
 479 -310 479 -310 430 -367 c 128
 381 -424 381 -424 327.5 -452 c 128
 274 -480 274 -480 204 -480 c 257
NamedP: "av03"
 200 -480 l 257
 135 -480 135 -480 89 -459.5 c 128
 43 -439 43 -439 8 -403 c 257
 100 -296 l 257
 114 -308 114 -308 141 -317.5 c 128
 168 -327 168 -327 192 -328 c 257
 196 -328 l 257
 232 -328 232 -328 260 -314 c 128
 288 -300 288 -300 317 -267.5 c 128
 346 -235 346 -235 380 -181 c 128
 414 -127 414 -127 462 -47 c 257
 247 1100 l 257
NamedP: "av04"
 420 1121 l 257
NamedP: "av01"
 431 1064 431 1064 442 1002 c 257
 452 948 452 948 464.5 880.5 c 128
 477 813 477 813 491 742 c 257
 522 576 522 576 562 364 c 257
 573 132 l 257
 666 364 l 257
EndSplineSet
PickledDataWithLists: "(dp0
Vcom.fontlab.ttprogram
p1
(c_codecs
encode
p2
(Vdata
p3
Vlatin1
p4
tp5
Rp6
g2
(V<data>\\u000a        <ttProgram>\\u000a          <ttc align=\"round\" code=\"alignv\" point=\"av01\"/>\\u000a          <ttc align=\"round\" code=\"alignv\" point=\"av02\"/>\\u000a          <ttc align=\"round\" code=\"alignv\" point=\"av03\"/>\\u000a          <ttc align=\"round\" code=\"alignv\" point=\"av04\"/>\\u000a          <ttc code=\"singlev\" point1=\"av04\" point2=\"sv01\"/>\\u000a        </ttProgram>\\u000a      </data>
p7
g4
tp8
Rp9
Ntp10
sVcom.typemytype.robofont.guides
p11
(lp12
(dp13
Vangle
p14
I90
sVisGlobal
p15
I00
sVmagnetic
p16
I5
sVx
p17
I550
sVy
p18
I0
sas."
EndChar
StartChar: z
Encoding: 584 122 584
GlifName: z
Width: 1300
VWidth: 0
Flags: W
LayerCount: 2
Fore
SplineSet
1008 160 m 257,0,-1
 1000 0 l 257,1,-1
NamedP: "sv01"
 181 0 l 257,2,-1
NamedP: "ab01"
 169 50 l 257,3,-1
 769 826 l 257,4,-1
 948 980 l 257,5,-1
 736 940 l 257,6,-1
 313 940 l 257,7,-1
 321 1100 l 257,8,-1
NamedP: "av01"
 1125 1100 l 257,9,-1
NamedP: "sv02"
 1137 1051 l 257,10,-1
 552 280 l 257,11,-1
 373 120 l 257,12,-1
 585 160 l 257,13,-1
 1008 160 l 257,0,-1
EndSplineSet
PickledDataWithLists: "(dp0
Vcom.fontlab.ttprogram
p1
(c_codecs
encode
p2
(Vdata
p3
Vlatin1
p4
tp5
Rp6
g2
(V<data>\\u000a        <ttProgram>\\u000a          <ttc align=\"round\" code=\"alignv\" point=\"av01\"/>\\u000a          <ttc code=\"alignb\" point=\"ab01\" zone=\"b: 0\"/>\\u000a          <ttc code=\"singlev\" point1=\"ab01\" point2=\"sv01\"/>\\u000a          <ttc code=\"singlev\" point1=\"av01\" point2=\"sv02\"/>\\u000a        </ttProgram>\\u000a      </data>
p7
g4
tp8
Rp9
Ntp10
s."
EndChar
StartChar: braceleft
Encoding: 156 123 156
GlifName: braceleft
Width: 1300
VWidth: 0
Flags: W
LayerCount: 2
Fore
SplineSet
148 625 m 257
 270 625 l 257
 328 631 328 631 361.5 648.5 c 128
 395 666 395 666 414.5 696.5 c 128
 434 727 434 727 444 772.5 c 128
 454 818 454 818 465 880 c 257
 507 1119 l 257
 526 1227 526 1227 555 1304.5 c 128
 584 1382 584 1382 629.5 1431.5 c 128
 675 1481 675 1481 740 1502 c 128
 805 1523 805 1523 897 1519 c 257
NamedP: "at01"
 942 1517 942 1517 973 1513 c 128
 1004 1509 1004 1509 1027.5 1503.5 c 128
 1051 1498 1051 1498 1071 1490 c 128
 1091 1482 1091 1482 1113 1472 c 257
 1028 1349 l 257
 999 1364 999 1364 961 1369.5 c 128
 923 1375 923 1375 892 1374 c 257
 840 1372 840 1372 807.5 1356 c 128
 775 1340 775 1340 754 1309 c 128
 733 1278 733 1278 720.5 1230.5 c 128
 708 1183 708 1183 697 1119 c 257
 655 880 l 257
 643 809 643 809 631 759 c 128
 619 709 619 709 601 671.5 c 128
 583 634 583 634 556.5 605.5 c 128
 530 577 530 577 489 550 c 257
NamedP: "iv01"
 507 529 507 529 520 490.5 c 128
 533 452 533 452 539.5 406 c 128
 546 360 546 360 545.5 311 c 128
 545 262 545 262 538 220 c 257
 496 -20 l 257
 485 -82 485 -82 479.5 -130 c 128
 474 -178 474 -178 483 -210 c 128
 492 -242 492 -242 519.5 -258.5 c 128
 547 -275 547 -275 601 -275 c 257
 609 -277 609 -277 617 -277 c 128
 625 -277 625 -277 633 -277 c 257
 645 -277 645 -277 660.5 -275 c 128
 676 -273 676 -273 691.5 -269 c 128
 707 -265 707 -265 721.5 -260.5 c 128
 736 -256 736 -256 746 -250 c 257
 788 -373 l 257
 765 -383 765 -383 743 -392.5 c 128
 721 -402 721 -402 694.5 -408.5 c 128
 668 -415 668 -415 634.5 -418.5 c 128
 601 -422 601 -422 555 -420 c 257
NamedP: "av01"
 464 -417 464 -417 409 -380.5 c 128
 354 -344 354 -344 327 -287.5 c 128
 300 -231 300 -231 297 -161 c 128
 294 -91 294 -91 306 -20 c 257
 348 220 l 257
 359 284 359 284 363.5 332 c 128
 368 380 368 380 358.5 411.5 c 128
 349 443 349 443 322 459 c 128
 295 475 295 475 243 475 c 257
 121 475 l 257
 148 625 l 257
EndSplineSet
PickledDataWithLists: "(dp0
Vcom.fontlab.ttprogram
p1
(c_codecs
encode
p2
(Vdata
p3
Vlatin1
p4
tp5
Rp6
g2
(V<data>\\u000a        <ttProgram>\\u000a          <ttc align=\"round\" code=\"alignv\" point=\"av01\"/>\\u000a          <ttc code=\"alignt\" point=\"at01\" zone=\"t: 1\"/>\\u000a          <ttc code=\"interpolatev\" point=\"iv01\" point1=\"at01\" point2=\"av01\"/>\\u000a        </ttProgram>\\u000a      </data>
p7
g4
tp8
Rp9
Ntp10
sVcom.typemytype.robofont.guides
p11
(lp12
(dp13
Vangle
p14
I0
sVisGlobal
p15
I00
sVmagnetic
p16
I5
sVx
p17
I0
sVy
p18
I550
sa(dp19
g14
I0
sg15
I00
sg16
I5
sg17
I0
sg18
I475
sas."
EndChar
StartChar: bar
Encoding: 133 124 133
GlifName: bar
Width: 1300
VWidth: 0
Flags: W
LayerCount: 2
Fore
SplineSet
762 1520 m 257
NamedP: "at01"
 423 -400 l 257
NamedP: "sv01"
 229 -400 l 257
NamedP: "av01"
 564 1500 l 257
 762 1520 l 257
NamedP: "at01"
EndSplineSet
PickledDataWithLists: "(dp0
Vcom.fontlab.ttprogram
p1
(c_codecs
encode
p2
(Vdata
p3
Vlatin1
p4
tp5
Rp6
g2
(V<data>\\u000a        <ttProgram>\\u000a          <ttc align=\"round\" code=\"alignv\" point=\"av01\"/>\\u000a          <ttc code=\"alignt\" point=\"at01\" zone=\"t: 1\"/>\\u000a          <ttc code=\"singlev\" point1=\"av01\" point2=\"sv01\"/>\\u000a        </ttProgram>\\u000a      </data>
p7
g4
tp8
Rp9
Ntp10
s."
EndChar
StartChar: braceright
Encoding: 157 125 157
GlifName: braceright
Width: 1300
VWidth: 0
Flags: W
LayerCount: 2
Fore
SplineSet
1047 481 m 257
 925 481 l 257
 867 475 867 475 833.5 457.5 c 128
 800 440 800 440 780.5 409.5 c 128
 761 379 761 379 751 333.5 c 128
 741 288 741 288 730 226 c 257
 688 -13 l 257
 669 -121 669 -121 640 -198.5 c 128
 611 -276 611 -276 565.5 -325.5 c 128
 520 -375 520 -375 454.5 -396.5 c 128
 389 -418 389 -418 298 -413 c 257
NamedP: "av01"
 253 -411 253 -411 222 -407 c 128
 191 -403 191 -403 167.5 -397.5 c 128
 144 -392 144 -392 124 -384 c 128
 104 -376 104 -376 82 -366 c 257
 167 -243 l 257
 196 -258 196 -258 234 -263.5 c 128
 272 -269 272 -269 303 -268 c 257
 355 -266 355 -266 387.5 -250 c 128
 420 -234 420 -234 441 -203 c 128
 462 -172 462 -172 474.5 -125 c 128
 487 -78 487 -78 498 -13 c 257
 540 226 l 257
 552 296 552 296 564 346.5 c 128
 576 397 576 397 594 434.5 c 128
 612 472 612 472 638.5 500.5 c 128
 665 529 665 529 706 556 c 257
NamedP: "iv01"
 688 577 688 577 675 615.5 c 128
 662 654 662 654 655.5 700 c 128
 649 746 649 746 649 795 c 128
 649 844 649 844 657 886 c 257
 699 1126 l 257
 710 1188 710 1188 715.5 1235.5 c 128
 721 1283 721 1283 712 1315.5 c 128
 703 1348 703 1348 675.5 1364.5 c 128
 648 1381 648 1381 594 1381 c 257
 586 1383 586 1383 578 1383 c 128
 570 1383 570 1383 562 1383 c 257
 550 1383 550 1383 534.5 1381 c 128
 519 1379 519 1379 503.5 1375 c 128
 488 1371 488 1371 473.5 1366.5 c 128
 459 1362 459 1362 449 1356 c 257
 407 1479 l 257
 430 1489 430 1489 452 1498.5 c 128
 474 1508 474 1508 500.5 1514.5 c 128
 527 1521 527 1521 560.5 1524.5 c 128
 594 1528 594 1528 640 1526 c 257
NamedP: "at01"
 731 1523 731 1523 786 1486.5 c 128
 841 1450 841 1450 868 1393.5 c 128
 895 1337 895 1337 898 1267 c 128
 901 1197 901 1197 889 1126 c 257
 847 886 l 257
 836 822 836 822 831.5 774 c 128
 827 726 827 726 836.5 694.5 c 128
 846 663 846 663 873 647 c 128
 900 631 900 631 952 631 c 257
 1074 631 l 257
 1047 481 l 257
EndSplineSet
PickledDataWithLists: "(dp0
Vcom.fontlab.ttprogram
p1
(c_codecs
encode
p2
(Vdata
p3
Vlatin1
p4
tp5
Rp6
g2
(V<data>\\u000a        <ttProgram>\\u000a          <ttc align=\"round\" code=\"alignv\" point=\"av01\"/>\\u000a          <ttc code=\"alignt\" point=\"at01\" zone=\"t: 1\"/>\\u000a          <ttc code=\"interpolatev\" point=\"iv01\" point1=\"at01\" point2=\"av01\"/>\\u000a        </ttProgram>\\u000a      </data>
p7
g4
tp8
Rp9
Ntp10
s."
EndChar
StartChar: asciitilde
Encoding: 124 126 124
GlifName: asciitilde
Width: 1300
VWidth: 0
Flags: W
LayerCount: 2
Fore
SplineSet
78 484 m 257
 97 550 97 550 136.5 611.5 c 128
 176 673 176 673 228.5 719 c 128
 281 765 281 765 343.5 789 c 128
 406 813 406 813 472 805 c 257
 517 799 517 799 555.5 781 c 128
 594 763 594 763 628.5 740 c 128
 663 717 663 717 695.5 692.5 c 128
 728 668 728 668 760 649 c 128
 792 630 792 630 825 620 c 128
 858 610 858 610 895 616 c 257
 967 628 967 628 1015.5 670 c 128
 1064 712 1064 712 1099 792 c 257
 1242 776 l 257
 1222 703 1222 703 1181 634 c 128
 1140 565 1140 565 1085.5 514 c 128
 1031 463 1031 463 966.5 436.5 c 128
 902 410 902 410 836 422 c 257
 800 428 800 428 765 446.5 c 128
 730 465 730 465 695 488 c 128
 660 511 660 511 625 535.5 c 128
 590 560 590 560 555 578.5 c 128
 520 597 520 597 485 607 c 128
 450 617 450 617 414 611 c 257
 353 600 353 600 304 567 c 128
 255 534 255 534 224 468 c 257
 78 484 l 257
EndSplineSet
EndChar
StartChar: exclamdown
Encoding: 242 161 242
GlifName: exclamdown
Width: 1300
VWidth: 0
Flags: W
LayerCount: 2
Fore
SplineSet
196 -396 m 257
NamedP: "av01"
 381 654 l 257
 585 675 l 257
NamedP: "av02"
 396 -396 l 257
NamedP: "sv01"
 196 -396 l 257
NamedP: "av01"
664 998 m 257
 664 968 664 968 651 944 c 128
 638 920 638 920 617 904 c 128
 596 888 596 888 570.5 880.5 c 128
 545 873 545 873 521 877 c 257
NamedP: "av03"
 497 881 497 881 479 893 c 128
 461 905 461 905 448.5 922.5 c 128
 436 940 436 940 429.5 959.5 c 128
 423 979 423 979 422 998 c 257
 421 1028 421 1028 432.5 1052.5 c 128
 444 1077 444 1077 463.5 1093.5 c 128
 483 1110 483 1110 509 1117.5 c 128
 535 1125 535 1125 563 1121 c 257
NamedP: "av04"
 610 1115 610 1115 637 1082 c 128
 664 1049 664 1049 664 998 c 257
EndSplineSet
PickledDataWithLists: "(dp0
Vcom.fontlab.ttprogram
p1
(c_codecs
encode
p2
(Vdata
p3
Vlatin1
p4
tp5
Rp6
g2
(V<data>\\u000a        <ttProgram>\\u000a          <ttc align=\"round\" code=\"alignv\" point=\"av01\"/>\\u000a          <ttc align=\"round\" code=\"alignv\" point=\"av02\"/>\\u000a          <ttc align=\"round\" code=\"alignv\" point=\"av03\"/>\\u000a          <ttc align=\"round\" code=\"alignv\" point=\"av04\"/>\\u000a          <ttc code=\"singlev\" point1=\"av01\" point2=\"sv01\"/>\\u000a        </ttProgram>\\u000a      </data>
p7
g4
tp8
Rp9
Ntp10
s."
EndChar
StartChar: cent
Encoding: 170 162 170
GlifName: cent
Width: 1300
VWidth: 0
Flags: W
LayerCount: 2
Fore
SplineSet
905 1320 m 257,0,-1
NamedP: "av01"
 869 1113 l 257,1,2
 920 1105 920 1105 961 1088 c 257,3,4
 1029 1060 1029 1060 1080 991 c 257,5,-1
 961 878 l 257,6,7
 927 913 927 913 878 935 c 257,8,9
 866 940 866 940 853.5 944.5 c 128,-1,10
 841 949 841 949 827 951 c 257,11,-1
 686 153 l 257,12,13
 711 155 711 155 732.5 159 c 128,-1,14
 754 163 754 163 774 170 c 257,15,16
 831 188 831 188 864 208 c 257,17,-1
NamedP: "mv01"
 911 67 l 257,18,19
 848 28 848 28 770 6 c 257,20,21
 747 -1 747 -1 722 -6 c 128,-1,22
 697 -11 697 -11 670 -13 c 257,23,-1
 637 -200 l 257,24,-1
NamedP: "sv01"
 491 -200 l 257,25,-1
NamedP: "av02"
 524 -12 l 257,26,27
NamedP: "mh01"
 486 -7 486 -7 451 4 c 128,-1,28
 416 15 416 15 387 32 c 257,29,30
 322 78 322 78 282 140 c 128,-1,31
 242 202 242 202 222 275.5 c 128,-1,32
 202 349 202 349 199.5 431.5 c 128,-1,33
 197 514 197 514 206 601 c 257,34,35
 218 716 218 716 265 806 c 128,-1,36
 312 896 312 896 382.5 960 c 128,-1,37
 453 1024 453 1024 541 1062 c 128,-1,38
 629 1100 629 1100 723 1112 c 257,39,-1
 756 1300 l 257,40,-1
 905 1320 l 257,0,-1
NamedP: "av01"
377 574 m 257,41,42
 367 496 367 496 373.5 427 c 128,-1,43
 380 358 380 358 403 303.5 c 128,-1,44
 426 249 426 249 466.5 211.5 c 128,-1,45
 507 174 507 174 566 158 c 257,46,-1
 706 952 l 257,47,48
 634 938 634 938 577 904 c 128,-1,49
 520 870 520 870 478.5 820.5 c 128,-1,50
 437 771 437 771 411.5 708 c 128,-1,51
 386 645 386 645 377 574 c 257,41,42
EndSplineSet
PickledDataWithLists: "(dp0
Vcom.fontlab.ttprogram
p1
(c_codecs
encode
p2
(Vdata
p3
Vlatin1
p4
tp5
Rp6
g2
(V<data>\\u000a        <ttProgram>\\u000a          <ttc code=\"mdeltah\" delta=\"1\" point=\"mh01\" ppm1=\"14\" ppm2=\"14\"/>\\u000a          <ttc align=\"round\" code=\"alignv\" point=\"av01\"/>\\u000a          <ttc align=\"round\" code=\"alignv\" point=\"av02\"/>\\u000a          <ttc code=\"mdeltav\" delta=\"-1\" point=\"mv01\" ppm1=\"14\" ppm2=\"14\"/>\\u000a          <ttc code=\"mdeltav\" delta=\"-2\" point=\"mv01\" ppm1=\"13\" ppm2=\"13\"/>\\u000a          <ttc code=\"singlev\" point1=\"av02\" point2=\"sv01\"/>\\u000a        </ttProgram>\\u000a      </data>
p7
g4
tp8
Rp9
Ntp10
s."
EndChar
StartChar: sterling
Encoding: 480 163 480
GlifName: sterling
Width: 1300
VWidth: 0
Flags: W
LayerCount: 2
Fore
SplineSet
379 850 m 257
NamedP: "av01"
 540 850 l 257
 641 1165 l 257
 674 1267 674 1267 706.5 1334.5 c 128
 739 1402 739 1402 781.5 1442 c 128
 824 1482 824 1482 881 1499 c 128
 938 1516 938 1516 1020 1517 c 257
NamedP: "at01"
 1071 1518 1071 1518 1112 1509.5 c 128
 1153 1501 1153 1501 1186 1484 c 257
 1253 1451 1253 1451 1276 1425 c 257
 1168 1324 l 257
 1160 1329 1160 1329 1145.5 1336.5 c 128
 1131 1344 1131 1344 1113 1351 c 128
 1095 1358 1095 1358 1076 1363 c 128
 1057 1368 1057 1368 1040 1369 c 257
 995 1371 995 1371 963 1363.5 c 128
 931 1356 931 1356 906 1331.5 c 128
 881 1307 881 1307 860 1261.5 c 128
 839 1216 839 1216 815 1141 c 257
 722 850 l 257
 929 850 l 257
NamedP: "sv01"
 883 700 l 257
 675 700 l 257
 543 263 543 263 507 224 c 257
 398 104 l 257
 567 147 l 257
 1005 147 l 257
 980 0 l 257
NamedP: "sv02"
 34 0 l 257
NamedP: "ab01"
 79 147 l 257
 217 147 l 257
 252 147 252 147 300 197 c 257
 347 245 347 245 493 700 c 257
 353 700 l 257
 379 850 l 257
NamedP: "av01"
EndSplineSet
PickledDataWithLists: "(dp0
Vcom.fontlab.ttprogram
p1
(c_codecs
encode
p2
(Vdata
p3
Vlatin1
p4
tp5
Rp6
g2
(V<data>\\u000a        <ttProgram>\\u000a          <ttc align=\"round\" code=\"alignv\" point=\"av01\"/>\\u000a          <ttc code=\"alignt\" point=\"at01\" zone=\"t: 1\"/>\\u000a          <ttc code=\"alignb\" point=\"ab01\" zone=\"b: 0\"/>\\u000a          <ttc code=\"singlev\" point1=\"av01\" point2=\"sv01\"/>\\u000a          <ttc code=\"singlev\" point1=\"ab01\" point2=\"sv02\"/>\\u000a        </ttProgram>\\u000a      </data>
p7
g4
tp8
Rp9
Ntp10
s."
EndChar
StartChar: currency
Encoding: 201 164 201
GlifName: currency
Width: 1300
VWidth: 0
Flags: W
LayerCount: 2
Fore
SplineSet
1001 222 m 257
 882 121 l 257
 754 278 l 257
 741 260 741 260 713.5 245 c 128
 686 230 686 230 650 220.5 c 128
 614 211 614 211 572.5 207.5 c 128
NamedP: "sv01"
 531 204 531 204 490 210 c 128
 449 216 449 216 412 232.5 c 128
 375 249 375 249 348 278 c 257
 164 121 l 257
 81 222 l 257
 265 378 l 257
 237 437 237 437 231 497 c 128
 225 557 225 557 236.5 611.5 c 128
 248 666 248 666 274.5 710.5 c 128
 301 755 301 755 337 784 c 257
 207 940 l 257
 326 1042 l 257
 455 885 l 257
 475 909 475 909 508.5 923 c 128
 542 937 542 937 581.5 942.5 c 128
NamedP: "av02"
 621 948 621 948 664 946.5 c 128
 707 945 707 945 745.5 937 c 128
 784 929 784 929 814.5 915.5 c 128
 845 902 845 902 861 885 c 257
 1044 1042 l 257
 1127 940 l 257
 944 784 l 257
 965 760 965 760 976 711.5 c 128
 987 663 987 663 981 605 c 128
 975 547 975 547 949 486.5 c 128
 923 426 923 426 872 378 c 257
 1001 222 l 257
419 424 m 257
 453 386 453 386 494 369.5 c 128
NamedP: "av01"
 535 353 535 353 578.5 354.5 c 128
 622 356 622 356 664.5 374 c 128
 707 392 707 392 743 424 c 257
 776 452 776 452 799 492 c 128
 822 532 822 532 830.5 575.5 c 128
 839 619 839 619 829.5 661.5 c 128
 820 704 820 704 789 738 c 257
 756 773 756 773 714 785.5 c 128
 672 798 672 798 628.5 794.5 c 128
NamedP: "sv02"
 585 791 585 791 544.5 775 c 128
 504 759 504 759 475 738 c 257
 435 708 435 708 413 664.5 c 128
 391 621 391 621 385 576 c 128
 379 531 379 531 388 490 c 128
 397 449 397 449 419 424 c 257
EndSplineSet
PickledDataWithLists: "(dp0
Vcom.fontlab.ttprogram
p1
(c_codecs
encode
p2
(Vdata
p3
Vlatin1
p4
tp5
Rp6
g2
(V<data>\\u000a        <ttProgram>\\u000a          <ttc align=\"round\" code=\"alignv\" point=\"av01\"/>\\u000a          <ttc align=\"round\" code=\"alignv\" point=\"av02\"/>\\u000a          <ttc code=\"singlev\" point1=\"av01\" point2=\"sv01\" stem=\"Y: 162\"/>\\u000a          <ttc code=\"singlev\" point1=\"av02\" point2=\"sv02\" stem=\"Y: 153\"/>\\u000a        </ttProgram>\\u000a      </data>
p7
g4
tp8
Rp9
Ntp10
s."
EndChar
StartChar: yen
Encoding: 583 165 583
GlifName: yen
Width: 1300
VWidth: 0
Flags: W
LayerCount: 2
Fore
SplineSet
56 550 m 257,0,-1
NamedP: "av02"
 451 550 l 257,1,-1
 468 645 l 257,2,-1
 450 700 l 257,3,-1
 83 700 l 257,4,-1
NamedP: "mh01"
 109 850 l 257,5,-1
NamedP: "av01"
 399 850 l 257,6,-1
 183 1500 l 257,7,-1
NamedP: "at01"
 391 1520 l 257,8,-1
NamedP: "at02"
 579 954 l 257,9,-1
 614 705 l 257,10,-1
 684 935 l 257,11,-1
 1072 1500 l 257,12,-1
 1264 1500 l 257,13,-1
NamedP: "sv01"
 818 850 l 257,14,-1
 1109 850 l 257,15,-1
NamedP: "sv02"
 1083 700 l 257,16,-1
 715 700 l 257,17,-1
 678 646 l 257,18,-1
 661 550 l 257,19,-1
 1056 550 l 257,20,-1
NamedP: "sv03"
 1030 400 l 257,21,-1
 635 400 l 257,22,-1
 565 0 l 257,23,-1
NamedP: "sv04"
 355 0 l 257,24,-1
NamedP: "ab01"
 425 400 l 257,25,-1
 30 400 l 257,26,-1
 56 550 l 257,0,-1
NamedP: "av02"
EndSplineSet
PickledDataWithLists: "(dp0
Vcom.fontlab.ttprogram
p1
(c_codecs
encode
p2
(Vdata
p3
Vlatin1
p4
tp5
Rp6
g2
(V<data>\\u000a        <ttProgram>\\u000a          <ttc code=\"mdeltah\" delta=\"3\" point=\"mh01\" ppm1=\"12\" ppm2=\"12\"/>\\u000a          <ttc align=\"round\" code=\"alignv\" point=\"av01\"/>\\u000a          <ttc align=\"round\" code=\"alignv\" point=\"av02\"/>\\u000a          <ttc code=\"alignt\" point=\"at01\" zone=\"t: 1\"/>\\u000a          <ttc code=\"alignt\" point=\"at02\" zone=\"t: 1\"/>\\u000a          <ttc code=\"alignb\" point=\"ab01\" zone=\"b: 0\"/>\\u000a          <ttc code=\"mdeltav\" delta=\"3\" point=\"mh01\" ppm1=\"12\" ppm2=\"12\"/>\\u000a          <ttc code=\"singlev\" point1=\"at01\" point2=\"sv01\"/>\\u000a          <ttc code=\"singlev\" point1=\"av01\" point2=\"sv02\"/>\\u000a          <ttc code=\"singlev\" point1=\"av02\" point2=\"sv03\"/>\\u000a          <ttc code=\"singlev\" point1=\"ab01\" point2=\"sv04\"/>\\u000a        </ttProgram>\\u000a      </data>
p7
g4
tp8
Rp9
Ntp10
s."
EndChar
StartChar: brokenbar
Encoding: 161 166 161
GlifName: brokenbar
Width: 1300
VWidth: 0
Flags: W
LayerCount: 2
Fore
SplineSet
770 1520 m 257,0,-1
NamedP: "at01"
 625 700 l 257,1,-1
NamedP: "sv01"
 425 700 l 257,2,-1
NamedP: "av03"
 566 1500 l 257,3,-1
 770 1520 l 257,0,-1
NamedP: "at01"
565 362 m 257,4,-1
NamedP: "sv02"
 431 -400 l 257,5,-1
NamedP: "sv03"
 231 -400 l 257,6,-1
NamedP: "av01"
 365 362 l 257,7,-1
NamedP: "av02"
 565 362 l 257,4,-1
NamedP: "sv02"
EndSplineSet
PickledDataWithLists: "(dp0
Vcom.fontlab.ttprogram
p1
(c_codecs
encode
p2
(Vdata
p3
Vlatin1
p4
tp5
Rp6
g2
(V<data>\\u000a        <ttProgram>\\u000a          <ttc align=\"round\" code=\"alignv\" point=\"av01\"/>\\u000a          <ttc align=\"round\" code=\"alignv\" point=\"av02\"/>\\u000a          <ttc align=\"round\" code=\"alignv\" point=\"av03\"/>\\u000a          <ttc code=\"alignt\" point=\"at01\" zone=\"t: 1\"/>\\u000a          <ttc code=\"singlev\" point1=\"av03\" point2=\"sv01\"/>\\u000a          <ttc code=\"singlev\" point1=\"av02\" point2=\"sv02\"/>\\u000a          <ttc code=\"singlev\" point1=\"av01\" point2=\"sv03\"/>\\u000a        </ttProgram>\\u000a      </data>
p7
g4
tp8
Rp9
Ntp10
s."
EndChar
StartChar: copyright
Encoding: 198 169 198
GlifName: copyright
Width: 1300
VWidth: 0
Flags: W
LayerCount: 2
Fore
SplineSet
717 1517 m 256,0,1
 579 1527 579 1527 454.5 1465 c 0,2,3
 330 1403 330 1403 252 1291 c 0,4,5
 174 1179 174 1179 164 1047 c 256,6,7
 154 916 154 916 198.5 810.5 c 0,8,9
 243 705 243 705 336.5 642.5 c 0,10,11
 430 580 430 580 557 577 c 256,12,13
 769 572 769 572 923.5 708 c 0,14,15
 1078 844 1078 844 1104 1047 c 256,16,17
 1130 1252 1130 1252 1023 1377 c 0,18,19
 916 1502 916 1502 717 1517 c 256,0,1
571 663 m 256,20,21
 466 663 466 663 390 715.5 c 0,22,23
 314 768 314 768 279 854.5 c 0,24,25
 244 941 244 941 250 1047 c 256,26,27
 259 1214 259 1214 390 1326.5 c 0,28,29
 521 1439 521 1439 696 1439 c 256,30,31
 763 1439 763 1439 827 1411 c 0,32,33
 891 1383 891 1383 939.5 1334 c 0,34,35
 988 1285 988 1285 1009.5 1209.5 c 0,36,37
 1031 1134 1031 1134 1013 1047 c 256,38,39
 993 949 993 949 948 873.5 c 0,40,41
 903 798 903 798 842.5 753 c 0,42,43
 782 708 782 708 713.5 685.5 c 0,44,45
 645 663 645 663 571 663 c 256,20,21
831 1200 m 257,46,47
 812 1215 812 1215 780.5 1224 c 128,-1,48
 749 1233 749 1233 696 1233 c 257,49,50
 654 1233 654 1233 618 1218.5 c 128,-1,51
 582 1204 582 1204 554 1180 c 128,-1,52
 526 1156 526 1156 507.5 1123.5 c 128,-1,53
 489 1091 489 1091 482 1056 c 257,54,55
 478 1034 478 1034 478 1013 c 257,56,57
 478 983 478 983 487 957 c 128,-1,58
 496 931 496 931 515 911.5 c 128,-1,59
 534 892 534 892 563 881 c 128,-1,60
 592 870 592 870 631 870 c 257,61,62
 652 870 652 870 675 876 c 128,-1,63
 698 882 698 882 719 889.5 c 128,-1,64
 740 897 740 897 757 905.5 c 128,-1,65
 774 914 774 914 782 918 c 257,66,-1
 809 854 l 257,67,68
 794 844 794 844 772 833.5 c 128,-1,69
 750 823 750 823 724 814.5 c 128,-1,70
 698 806 698 806 668.5 800 c 128,-1,71
 639 794 639 794 609 794 c 257,72,73
 554 794 554 794 511.5 811.5 c 128,-1,74
 469 829 469 829 440 858.5 c 128,-1,75
 411 888 411 888 396 927.5 c 128,-1,76
 381 967 381 967 381 1011 c 257,77,78
 381 1023 381 1023 382 1036 c 128,-1,79
 383 1049 383 1049 386 1062 c 257,80,81
 395 1108 395 1108 422.5 1152 c 128,-1,82
 450 1196 450 1196 493 1230 c 128,-1,83
 536 1264 536 1264 591.5 1284.5 c 128,-1,84
 647 1305 647 1305 711 1305 c 257,85,86
 772 1305 772 1305 815.5 1292 c 128,-1,87
 859 1279 859 1279 890 1252 c 257,88,-1
 831 1200 l 257,46,47
EndSplineSet
EndChar
StartChar: ordfeminine
Encoding: 356 170 356
GlifName: ordfeminine
Width: 1300
VWidth: 0
Flags: W
LayerCount: 2
Fore
SplineSet
241 800 m 257
 641 800 l 257
 623 700 l 257
 223 700 l 257
 241 800 l 257
665 1427 m 257
 656 1431 656 1431 643.5 1434 c 128
 631 1437 631 1437 619 1438 c 257
 606 1440 606 1440 591 1441 c 257
 540 1441 540 1441 502 1423.5 c 128
 464 1406 464 1406 437.5 1375.5 c 128
 411 1345 411 1345 395.5 1304.5 c 128
 380 1264 380 1264 375 1218 c 257
 372 1193 372 1193 372 1172 c 257
 372 1138 372 1138 379 1112 c 128
 386 1086 386 1086 398.5 1068.5 c 128
 411 1051 411 1051 427.5 1042.5 c 128
 444 1034 444 1034 463 1034 c 257
 489 1034 489 1034 511 1041 c 128
 533 1048 533 1048 551.5 1059.5 c 128
 570 1071 570 1071 585 1085.5 c 128
 600 1100 600 1100 612 1115 c 257
 665 1427 l 257
586 962 m 257
 600 1043 l 257
 542 986 l 257
 532 978 532 978 521.5 971.5 c 128
 511 965 511 965 499 961 c 128
 487 957 487 957 471 955 c 128
 455 953 455 953 433 953 c 257
 397 953 397 953 369 969 c 128
 341 985 341 985 321.5 1014 c 128
 302 1043 302 1043 292 1083 c 128
 282 1123 282 1123 282 1171 c 257
 282 1185 282 1185 282.5 1200 c 128
 283 1215 283 1215 285 1230 c 257
 292 1285 292 1285 314.5 1337.5 c 128
 337 1390 337 1390 376 1430.5 c 128
 415 1471 415 1471 471.5 1495.5 c 128
 528 1520 528 1520 602 1520 c 257
 644 1520 644 1520 687 1513 c 128
 730 1506 730 1506 768 1493 c 257
 692 1052 l 257
 687 962 l 257
 586 962 l 257
EndSplineSet
EndChar
StartChar: guillemotleft
Encoding: 271 171 271
GlifName: guillemotleft
Width: 1300
VWidth: 0
Flags: W
LayerCount: 2
Fore
SplineSet
650 1026 m 257
NamedP: "at01"
 678 901 l 257
 302 610 l 257
 153 550 l 257
NamedP: "iv01"
 280 490 l 257
 557 201 l 257
 479 66 l 257
NamedP: "av01"
 84 478 l 257
 108 617 l 257
 650 1026 l 257
NamedP: "at01"
1150 1026 m 257
NamedP: "at02"
 1178 901 l 257
 802 610 l 257
 653 550 l 257
NamedP: "iv02"
 780 490 l 257
 1057 201 l 257
 979 66 l 257
NamedP: "av02"
 584 478 l 257
 608 617 l 257
 1150 1026 l 257
NamedP: "at02"
EndSplineSet
PickledDataWithLists: "(dp0
Vcom.fontlab.ttprogram
p1
(c_codecs
encode
p2
(Vdata
p3
Vlatin1
p4
tp5
Rp6
g2
(V<data>\\u000a        <ttProgram>\\u000a          <ttc align=\"round\" code=\"alignv\" point=\"av01\"/>\\u000a          <ttc code=\"alignt\" point=\"at01\" zone=\"t: x\"/>\\u000a          <ttc code=\"interpolatev\" point=\"iv01\" point1=\"at01\" point2=\"av01\"/>\\u000a          <ttc align=\"round\" code=\"alignv\" point=\"av02\"/>\\u000a          <ttc code=\"alignt\" point=\"at02\" zone=\"t: x\"/>\\u000a          <ttc code=\"interpolatev\" point=\"iv02\" point1=\"at02\" point2=\"av02\"/>\\u000a        </ttProgram>\\u000a      </data>
p7
g4
tp8
Rp9
Ntp10
s."
EndChar
StartChar: logicalnot
Encoding: 314 172 314
GlifName: logicalnot
Width: 1300
VWidth: 0
Flags: W
LayerCount: 2
Fore
SplineSet
1258 800 m 257
NamedP: "sv01"
 1203 589 l 257
 1149 280 l 257
NamedP: "sv02"
 949 280 l 257
NamedP: "av02"
 979 449 l 257
 1028 640 l 257
 24 640 l 257
NamedP: "sv03"
 53 800 l 257
NamedP: "av01"
 1258 800 l 257
NamedP: "sv01"
EndSplineSet
PickledDataWithLists: "(dp0
Vcom.fontlab.ttprogram
p1
(c_codecs
encode
p2
(Vdata
p3
Vlatin1
p4
tp5
Rp6
g2
(V<data>\\u000a        <ttProgram>\\u000a          <ttc align=\"round\" code=\"alignv\" point=\"av01\"/>\\u000a          <ttc align=\"round\" code=\"alignv\" point=\"av02\"/>\\u000a          <ttc code=\"singlev\" point1=\"av01\" point2=\"sv01\"/>\\u000a          <ttc code=\"singlev\" point1=\"av02\" point2=\"sv02\"/>\\u000a          <ttc code=\"singlev\" point1=\"av01\" point2=\"sv03\" stem=\"Y: 153\"/>\\u000a        </ttProgram>\\u000a      </data>
p7
g4
tp8
Rp9
Ntp10
s."
EndChar
StartChar: registered
Encoding: 411 174 411
GlifName: registered
Width: 1300
VWidth: 0
Flags: W
LayerCount: 2
Fore
SplineSet
717 1517 m 256
 579 1527 579 1527 454.5 1465 c 0
 330 1403 330 1403 252 1291 c 0
 174 1179 174 1179 164 1047 c 256
 154 916 154 916 198.5 810.5 c 0
 243 705 243 705 336.5 642.5 c 0
 430 580 430 580 557 577 c 256
 769 572 769 572 923.5 708 c 0
 1078 844 1078 844 1104 1047 c 256
 1130 1252 1130 1252 1023 1377 c 0
 916 1502 916 1502 717 1517 c 256
571 663 m 256
 466 663 466 663 390 715.5 c 0
 314 768 314 768 279 854.5 c 0
 244 941 244 941 250 1047 c 256
 259 1214 259 1214 390 1326.5 c 0
 521 1439 521 1439 696 1439 c 256
 763 1439 763 1439 827 1411 c 0
 891 1383 891 1383 939.5 1334 c 0
 988 1285 988 1285 1009.5 1209.5 c 0
 1031 1134 1031 1134 1013 1047 c 256
 993 949 993 949 948 873.5 c 0
 903 798 903 798 842.5 753 c 0
 782 708 782 708 713.5 685.5 c 0
 645 663 645 663 571 663 c 256
541 1006 m 257
 505 802 l 257
 439 802 l 257
 514 1228 l 257
 514 1294 l 257
 525 1295 525 1295 539.5 1296.5 c 128
 554 1298 554 1298 570 1299.5 c 128
 586 1301 586 1301 602.5 1302 c 128
 619 1303 619 1303 635 1303 c 257
 676 1303 676 1303 706.5 1293.5 c 128
 737 1284 737 1284 756.5 1267.5 c 128
 776 1251 776 1251 785.5 1228 c 128
 795 1205 795 1205 795 1178 c 257
 795 1135 795 1135 780.5 1104 c 128
 766 1073 766 1073 742 1052.5 c 128
 718 1032 718 1032 687.5 1021.5 c 128
 657 1011 657 1011 626 1010 c 257
 668 998 l 257
 780 802 l 257
 706 802 l 257
 594 1000 l 257
 592 1005 592 1005 587.5 1005.5 c 128
 583 1006 583 1006 580 1006 c 257
 541 1006 l 257
572 1181 m 257
 549 1054 l 257
 598 1054 l 257
 628 1054 628 1054 653.5 1061.5 c 128
 679 1069 679 1069 697 1084 c 128
 715 1099 715 1099 725 1121 c 128
 735 1143 735 1143 735 1171 c 257
 735 1190 735 1190 726.5 1206 c 128
 718 1222 718 1222 704 1233 c 128
 690 1244 690 1244 672 1250 c 128
 654 1256 654 1256 635 1256 c 257
 621 1256 621 1256 605 1255 c 128
 589 1254 589 1254 578 1252 c 257
 572 1181 l 257
EndSplineSet
EndChar
StartChar: degree
Encoding: 206 176 206
GlifName: degree
Width: 1300
VWidth: 0
Flags: W
LayerCount: 2
Fore
SplineSet
568 1520 m 257
 679 1505 679 1505 737.5 1434.5 c 128
 796 1364 796 1364 789 1250 c 257
 786 1194 786 1194 756.5 1142.5 c 128
 727 1091 727 1091 682.5 1052.5 c 128
 638 1014 638 1014 582.5 994 c 128
 527 974 527 974 472 980 c 257
 362 993 362 993 305.5 1065 c 128
 249 1137 249 1137 251 1250 c 257
 252 1288 252 1288 265.5 1324 c 128
 279 1360 279 1360 302 1391.5 c 128
 325 1423 325 1423 355.5 1449 c 128
 386 1475 386 1475 421 1492.5 c 128
 456 1510 456 1510 493.5 1517.5 c 128
 531 1525 531 1525 568 1520 c 257
492 1091 m 257
 523 1088 523 1088 555.5 1097.5 c 128
 588 1107 588 1107 615 1127.5 c 128
 642 1148 642 1148 659.5 1179 c 128
 677 1210 677 1210 679 1250 c 257
 682 1317 682 1317 648 1357 c 128
 614 1397 614 1397 548 1409 c 257
 514 1415 514 1415 480.5 1406 c 128
 447 1397 447 1397 420.5 1376 c 128
 394 1355 394 1355 377.5 1322.5 c 128
 361 1290 361 1290 361 1250 c 257
 362 1184 362 1184 396.5 1141 c 128
 431 1098 431 1098 492 1091 c 257
EndSplineSet
EndChar
StartChar: plusminus
Encoding: 385 177 385
GlifName: plusminus
Width: 1300
VWidth: 0
Flags: W
LayerCount: 2
Fore
SplineSet
223 862 m 257
NamedP: "hr00"
 596 862 l 257
 671 1200 l 257
 826 1200 l 257
 751 862 l 257
 1123 862 l 257
 1096 738 l 257
 724 738 l 257
 649 400 l 257
 494 400 l 257
 569 738 l 257
 196 738 l 257
 223 862 l 257
NamedP: "hr00"
98 290 m 257
 998 290 l 257
 998 150 l 257
 98 150 l 257
 98 290 l 257
EndSplineSet
PickledDataWithLists: "(dp0
Vcom.adobe.type.autohint
p1
(c_codecs
encode
p2
(Vdata
p3
Vlatin1
p4
tp5
Rp6
g2
(V<data>\\u000a        <hintSetList>\\u000a          <hintset pointTag=\"hr00\">\\u000a            <hstem pos=\"-261\" width=\"-19\"/>\\u000a            <hstem pos=\"56\" width=\"139\"/>\\u000a            <hstem pos=\"531\" width=\"-18\"/>\\u000a            <vstem pos=\"370\" width=\"155\"/>\\u000a          </hintset>\\u000a        </hintSetList>\\u000a      </data>
p7
g4
tp8
Rp9
Ntp10
s."
EndChar
StartChar: twosuperior
Encoding: 537 178 537
GlifName: twosuperior
Width: 1300
VWidth: 0
Flags: W
LayerCount: 2
Fore
SplineSet
135 720 m 257
 150 804 l 257
 184 853 184 853 220 893.5 c 128
 256 934 256 934 292 968.5 c 128
 328 1003 328 1003 363.5 1032.5 c 128
 399 1062 399 1062 432 1089 c 257
 462 1113 462 1113 489 1136.5 c 128
 516 1160 516 1160 536.5 1183 c 128
 557 1206 557 1206 569 1230.5 c 128
 581 1255 581 1255 581 1281 c 257
 581 1308 581 1308 574 1329.5 c 128
 567 1351 567 1351 551.5 1365.5 c 128
 536 1380 536 1380 511 1388 c 128
 486 1396 486 1396 449 1396 c 257
 425 1396 425 1396 405 1387.5 c 128
 385 1379 385 1379 368 1365.5 c 128
 351 1352 351 1352 337 1335 c 128
 323 1318 323 1318 313 1300 c 257
 248 1330 l 257
 281 1401 281 1401 340 1439.5 c 128
 399 1478 399 1478 476 1478 c 257
 481 1478 481 1478 485.5 1478 c 128
 490 1478 490 1478 495 1478 c 257
 541 1475 541 1475 574 1457.5 c 128
 607 1440 607 1440 629 1413 c 128
 651 1386 651 1386 661.5 1352.5 c 128
 672 1319 672 1319 672 1284 c 257
 672 1281 672 1281 671.5 1278 c 128
 671 1275 671 1275 671 1272 c 257
 669 1232 669 1232 650.5 1198 c 128
 632 1164 632 1164 605 1133.5 c 128
 578 1103 578 1103 546 1076 c 128
 514 1049 514 1049 486 1023 c 257
 450 991 450 991 417.5 962.5 c 128
 385 934 385 934 357.5 907 c 128
 330 880 330 880 307 853.5 c 128
 284 827 284 827 266 800 c 257
 601 800 l 257
 587 720 l 257
 135 720 l 257
EndSplineSet
EndChar
StartChar: threesuperior
Encoding: 526 179 526
GlifName: threesuperior
Width: 1300
VWidth: 0
Flags: W
LayerCount: 2
Fore
SplineSet
285 1390 m 257
 307 1470 l 257
 672 1470 l 257
 659 1400 l 257
 650 1380 650 1380 632 1358 c 128
 614 1336 614 1336 590.5 1314 c 128
 567 1292 567 1292 540.5 1270.5 c 128
 514 1249 514 1249 488 1229 c 257
 415 1194 l 257
 451 1194 l 257
 484 1194 484 1194 517 1181.5 c 128
 550 1169 550 1169 576 1146 c 128
 602 1123 602 1123 618 1090.5 c 128
 634 1058 634 1058 634 1018 c 257
 634 962 634 962 613.5 918 c 128
 593 874 593 874 558.5 841 c 128
 524 808 524 808 477.5 785 c 128
 431 762 431 762 378.5 747.5 c 128
 326 733 326 733 269.5 726.5 c 128
 213 720 213 720 160 720 c 257
 174 800 l 257
 213 800 213 800 255 806 c 128
 297 812 297 812 336.5 823.5 c 128
 376 835 376 835 411.5 851 c 128
 447 867 447 867 473.5 888 c 128
 500 909 500 909 515.5 935 c 128
 531 961 531 961 531 991 c 257
 531 1023 531 1023 519.5 1046.5 c 128
 508 1070 508 1070 487 1085 c 128
 466 1100 466 1100 437 1107.5 c 128
 408 1115 408 1115 373 1115 c 257
 350 1115 350 1115 328.5 1114.5 c 128
 307 1114 307 1114 286 1113 c 257
 300 1190 l 257
 323 1205 323 1205 350.5 1224 c 128
 378 1243 378 1243 406.5 1263.5 c 128
 435 1284 435 1284 462 1305.5 c 128
 489 1327 489 1327 512 1346 c 128
 535 1365 535 1365 551 1382 c 128
 567 1399 567 1399 573 1410 c 257
 493 1390 l 257
 285 1390 l 257
EndSplineSet
EndChar
StartChar: mu
Encoding: 324 181 324
GlifName: mu
Width: 1300
VWidth: 0
Flags: W
LayerCount: 2
Fore
SplineSet
1237 36 m 257
 1226 27 1226 27 1206 18 c 128
 1186 9 1186 9 1160.5 1 c 128
 1135 -7 1135 -7 1107 -12 c 128
 1079 -17 1079 -17 1054 -17 c 257
NamedP: "ab02"
 1021 -17 1021 -17 987 -5.5 c 128
 953 6 953 6 923.5 28 c 128
 894 50 894 50 872 82 c 128
 850 114 850 114 841 155 c 257
 804 86 l 257
 783 61 783 61 751 39.5 c 128
 719 18 719 18 679.5 4 c 128
 640 -10 640 -10 595 -16 c 128
 550 -22 550 -22 504 -17 c 257
NamedP: "ab01"
 485 -15 485 -15 460 -13 c 128
 435 -11 435 -11 410 -7 c 128
 385 -3 385 -3 363 4.5 c 128
 341 12 341 12 328 25 c 257
 339 -166 l 257
 280 -500 l 257
NamedP: "sv01"
 100 -500 l 257
NamedP: "av04"
 382 1100 l 257
NamedP: "av01"
 567 1121 l 257
NamedP: "av02"
 430 348 l 257
 421 298 421 298 423.5 256.5 c 128
 426 215 426 215 443.5 186 c 128
 461 157 461 157 494.5 143 c 128
 528 129 528 129 581 133 c 257
 613 136 613 136 642.5 144.5 c 128
 672 153 672 153 701.5 166.5 c 128
 731 180 731 180 762.5 199 c 128
 794 218 794 218 831 241 c 257
 982 1100 l 257
NamedP: "sv02"
 1165 1121 l 257
NamedP: "av03"
 1029 352 l 257
 1015 276 1015 276 1014 232.5 c 128
 1013 189 1013 189 1022 166.5 c 128
 1031 144 1031 144 1050.5 138.5 c 128
 1070 133 1070 133 1098 133 c 257
 1122 133 1122 133 1145.5 137.5 c 128
 1169 142 1169 142 1192 150 c 257
 1237 36 l 257
EndSplineSet
PickledDataWithLists: "(dp0
Vcom.fontlab.ttprogram
p1
(c_codecs
encode
p2
(Vdata
p3
Vlatin1
p4
tp5
Rp6
g2
(V<data>\\u000a        <ttProgram>\\u000a          <ttc align=\"round\" code=\"alignv\" point=\"av01\"/>\\u000a          <ttc align=\"round\" code=\"alignv\" point=\"av02\"/>\\u000a          <ttc align=\"round\" code=\"alignv\" point=\"av03\"/>\\u000a          <ttc align=\"round\" code=\"alignv\" point=\"av04\"/>\\u000a          <ttc code=\"alignb\" point=\"ab01\" zone=\"b: 0\"/>\\u000a          <ttc code=\"alignb\" point=\"ab02\" zone=\"b: 0\"/>\\u000a          <ttc code=\"singlev\" point1=\"av04\" point2=\"sv01\"/>\\u000a          <ttc code=\"singlev\" point1=\"av01\" point2=\"sv02\"/>\\u000a        </ttProgram>\\u000a      </data>
p7
g4
tp8
Rp9
Ntp10
s."
EndChar
StartChar: paragraph
Encoding: 363 182 363
GlifName: paragraph
Width: 1300
VWidth: 0
Flags: W
LayerCount: 2
Fore
SplineSet
544 647 m 257
NamedP: "av01"
 507 649 507 649 477 655 c 128
 447 661 447 661 421.5 669 c 128
 396 677 396 677 373.5 685.5 c 128
 351 694 351 694 330 702 c 257
 301 712 301 712 267.5 750.5 c 128
 234 789 234 789 210 847.5 c 128
 186 906 186 906 177.5 982 c 128
NamedP: "ah01"
 169 1058 169 1058 190 1144 c 257
 214 1246 214 1246 259.5 1317 c 128
 305 1388 305 1388 369.5 1430.5 c 128
 434 1473 434 1473 515.5 1489.5 c 128
 597 1506 597 1506 694 1500 c 257
NamedP: "at01"
 1166 1500 l 257
NamedP: "ah02"
 831 -400 l 257
 662 -400 l 257
 970 1348 l 257
 836 1348 l 257
 528 -400 l 257
 359 -400 l 257
 544 647 l 257
NamedP: "av01"
EndSplineSet
PickledDataWithLists: "(dp0
Vcom.fontlab.ttprogram
p1
(c_codecs
encode
p2
(Vdata
p3
Vlatin1
p4
tp5
Rp6
g2
(V<data>\\u000a        <ttProgram>\\u000a          <ttc align=\"round\" code=\"alignh\" point=\"ah01\"/>\\u000a          <ttc align=\"round\" code=\"alignh\" point=\"ah02\"/>\\u000a          <ttc align=\"round\" code=\"alignv\" point=\"av01\"/>\\u000a          <ttc code=\"alignt\" point=\"at01\" zone=\"t: 1\"/>\\u000a        </ttProgram>\\u000a      </data>
p7
g4
tp8
Rp9
Ntp10
s."
EndChar
StartChar: periodcentered
Encoding: 372 183 372
GlifName: periodcentered
Width: 1300
VWidth: 0
Flags: W
LayerCount: 2
Fore
SplineSet
307 650 m 257
 313 684 313 684 331 714 c 128
 349 744 349 744 375.5 766.5 c 128
 402 789 402 789 434 802 c 128
 466 815 466 815 500 815 c 257
NamedP: "av01"
 534 815 534 815 561.5 802 c 128
 589 789 589 789 607.5 766.5 c 128
 626 744 626 744 634 714 c 128
 642 684 642 684 636 650 c 257
 630 616 630 616 611.5 585.5 c 128
 593 555 593 555 567 532.5 c 128
 541 510 541 510 509 496.5 c 128
 477 483 477 483 443 483 c 257
NamedP: "av02"
 409 483 409 483 381 496.5 c 128
 353 510 353 510 334.5 532.5 c 128
 316 555 316 555 308.5 585.5 c 128
 301 616 301 616 307 650 c 257
EndSplineSet
PickledDataWithLists: "(dp0
Vcom.fontlab.ttprogram
p1
(c_codecs
encode
p2
(Vdata
p3
Vlatin1
p4
tp5
Rp6
g2
(V<data>\\u000a        <ttProgram>\\u000a          <ttc align=\"round\" code=\"alignv\" point=\"av01\"/>\\u000a          <ttc align=\"round\" code=\"alignv\" point=\"av02\"/>\\u000a        </ttProgram>\\u000a      </data>
p7
g4
tp8
Rp9
Ntp10
s."
EndChar
StartChar: cedilla
Encoding: 169 184 169
GlifName: cedilla
Width: 1300
VWidth: 0
Flags: W
LayerCount: 2
Fore
SplineSet
524 0 m 257
NamedP: "sv01"
 542 -27 542 -27 554 -59 c 257
 565 -86 565 -86 571 -122 c 128
 577 -158 577 -158 572 -198 c 257
 565 -248 565 -248 542 -287 c 128
 519 -326 519 -326 484.5 -352.5 c 128
 450 -379 450 -379 405.5 -393 c 128
 361 -407 361 -407 311 -407 c 257
NamedP: "sv02"
 269 -407 269 -407 225.5 -393.5 c 128
 182 -380 182 -380 146 -363 c 257
 104 -344 104 -344 65 -318 c 257
 154 -218 l 257
 177 -235 177 -235 203 -248 c 257
 225 -259 225 -259 252.5 -269 c 128
 280 -279 280 -279 309 -279 c 257
NamedP: "av01"
 352 -280 352 -280 382 -259 c 128
 412 -238 412 -238 420 -189 c 257
 425 -156 425 -156 415 -122 c 128
 405 -88 405 -88 390 -61 c 257
 372 -29 372 -29 348 0 c 257
NamedP: "ab01"
 524 0 l 257
NamedP: "sv01"
EndSplineSet
PickledDataWithLists: "(dp0
Vcom.fontlab.ttprogram
p1
(c_codecs
encode
p2
(Vdata
p3
Vlatin1
p4
tp5
Rp6
g2
(V<data>\\u000a        <ttProgram>\\u000a          <ttc align=\"round\" code=\"alignv\" point=\"av01\"/>\\u000a          <ttc code=\"alignb\" point=\"ab01\" zone=\"b: 0\"/>\\u000a          <ttc code=\"singlev\" point1=\"ab01\" point2=\"sv01\"/>\\u000a          <ttc code=\"singlev\" point1=\"av01\" point2=\"sv02\" stem=\"Y: 144\"/>\\u000a        </ttProgram>\\u000a      </data>
p7
g4
tp8
Rp9
Ntp10
s."
EndChar
StartChar: onesuperior
Encoding: 354 185 354
GlifName: onesuperior
Width: 1300
VWidth: 0
Flags: W
LayerCount: 2
Fore
SplineSet
148 720 m 257
 162 800 l 257
 284 800 l 257
 369 1283 l 257
 418 1396 l 257
 334 1303 l 257
 211 1209 l 257
 168 1270 l 257
 434 1480 l 257
 502 1470 l 257
 384 800 l 257
 507 800 l 257
 493 720 l 257
 148 720 l 257
EndSplineSet
EndChar
StartChar: guillemotright
Encoding: 272 187 272
GlifName: guillemotright
Width: 1300
VWidth: 0
Flags: W
LayerCount: 2
Fore
SplineSet
708 617 m 257
 684 478 l 257
 143 66 l 257
NamedP: "av01"
 113 201 l 257
 492 490 l 257
 639 550 l 257
NamedP: "iv01"
 512 610 l 257
 238 901 l 257
 310 1026 l 257
NamedP: "at01"
 708 617 l 257
1208 617 m 257
 1184 478 l 257
 643 66 l 257
NamedP: "av02"
 613 201 l 257
 992 490 l 257
 1139 550 l 257
NamedP: "iv02"
 1012 610 l 257
 738 901 l 257
 810 1026 l 257
NamedP: "at02"
 1208 617 l 257
EndSplineSet
PickledDataWithLists: "(dp0
Vcom.fontlab.ttprogram
p1
(c_codecs
encode
p2
(Vdata
p3
Vlatin1
p4
tp5
Rp6
g2
(V<data>\\u000a        <ttProgram>\\u000a          <ttc align=\"round\" code=\"alignv\" point=\"av01\"/>\\u000a          <ttc code=\"alignt\" point=\"at01\" zone=\"t: x\"/>\\u000a          <ttc code=\"interpolatev\" point=\"iv01\" point1=\"av01\" point2=\"at01\"/>\\u000a          <ttc align=\"round\" code=\"alignv\" point=\"av02\"/>\\u000a          <ttc code=\"alignt\" point=\"at02\" zone=\"t: x\"/>\\u000a          <ttc code=\"interpolatev\" point=\"iv02\" point1=\"av02\" point2=\"at02\"/>\\u000a        </ttProgram>\\u000a      </data>
p7
g4
tp8
Rp9
Ntp10
s."
EndChar
StartChar: onequarter
Encoding: 352 188 352
GlifName: onequarter
Width: 1300
VWidth: 0
Flags: W
LayerCount: 2
Fore
SplineSet
354 0 m 257
 219 0 l 257
 994 1500 l 257
 1120 1500 l 257
 354 0 l 257
1206 150 m 257
 1116 150 l 257
 1090 0 l 257
 990 0 l 257
 1016 150 l 257
 719 150 l 257
 734 235 l 257
 1069 760 l 257
 1161 750 l 257
 874 300 l 257
 816 230 l 257
 1031 230 l 257
 1066 433 l 257
 1165 425 l 257
 1131 230 l 257
 1228 230 l 257
 1206 150 l 257
46 720 m 257
 60 800 l 257
 182 800 l 257
 267 1283 l 257
 316 1396 l 257
 232 1303 l 257
 109 1209 l 257
 66 1270 l 257
 332 1480 l 257
 400 1470 l 257
 282 800 l 257
 405 800 l 257
 391 720 l 257
 46 720 l 257
EndSplineSet
EndChar
StartChar: threequarters
Encoding: 525 190 525
GlifName: threequarters
Width: 1300
VWidth: 0
Flags: W
LayerCount: 2
Fore
SplineSet
354 0 m 257
 219 0 l 257
 994 1500 l 257
 1120 1500 l 257
 354 0 l 257
1206 150 m 257
 1116 150 l 257
 1090 0 l 257
 990 0 l 257
 1016 150 l 257
 719 150 l 257
 734 235 l 257
 1069 760 l 257
 1161 750 l 257
 874 300 l 257
 816 230 l 257
 1031 230 l 257
 1066 433 l 257
 1165 425 l 257
 1131 230 l 257
 1228 230 l 257
 1206 150 l 257
185 1390 m 257
 207 1470 l 257
 572 1470 l 257
 559 1400 l 257
 550 1380 550 1380 532 1358 c 128
 514 1336 514 1336 490.5 1314 c 128
 467 1292 467 1292 440.5 1270.5 c 128
 414 1249 414 1249 388 1229 c 257
 315 1194 l 257
 351 1194 l 257
 384 1194 384 1194 417 1181.5 c 128
 450 1169 450 1169 476 1146 c 128
 502 1123 502 1123 518 1090.5 c 128
 534 1058 534 1058 534 1018 c 257
 534 962 534 962 513.5 918 c 128
 493 874 493 874 458.5 841 c 128
 424 808 424 808 377.5 785 c 128
 331 762 331 762 278.5 747.5 c 128
 226 733 226 733 169.5 726.5 c 128
 113 720 113 720 60 720 c 257
 74 800 l 257
 113 800 113 800 155 806 c 128
 197 812 197 812 236.5 823.5 c 128
 276 835 276 835 311.5 851 c 128
 347 867 347 867 373.5 888 c 128
 400 909 400 909 415.5 935 c 128
 431 961 431 961 431 991 c 257
 431 1023 431 1023 419.5 1046.5 c 128
 408 1070 408 1070 387 1085 c 128
 366 1100 366 1100 337 1107.5 c 128
 308 1115 308 1115 273 1115 c 257
 250 1115 250 1115 228.5 1114.5 c 128
 207 1114 207 1114 186 1113 c 257
 200 1190 l 257
 223 1205 223 1205 250.5 1224 c 128
 278 1243 278 1243 306.5 1263.5 c 128
 335 1284 335 1284 362 1305.5 c 128
 389 1327 389 1327 412 1346 c 128
 435 1365 435 1365 451 1382 c 128
 467 1399 467 1399 473 1410 c 257
 393 1390 l 257
 185 1390 l 257
EndSplineSet
EndChar
StartChar: questiondown
Encoding: 394 191 394
GlifName: questiondown
Width: 1300
VWidth: 0
Flags: W
LayerCount: 2
Fore
SplineSet
573 -16 m 257
 485 -16 485 -16 414.5 8 c 128
 344 32 344 32 295 76 c 128
 246 120 246 120 220 183.5 c 128
 194 247 194 247 194 325 c 257
 194 396 194 396 214.5 449.5 c 128
 235 503 235 503 269.5 546 c 128
 304 589 304 589 348 624 c 128
 392 659 392 659 439 692.5 c 128
 486 726 486 726 532.5 761 c 128
 579 796 579 796 617 837.5 c 128
 655 879 655 879 681.5 931 c 128
 708 983 708 983 716 1051 c 257
 930 1072 l 257
 921 981 921 981 893 913 c 128
 865 845 865 845 826.5 792.5 c 128
 788 740 788 740 741.5 700 c 128
 695 660 695 660 648 626.5 c 128
 601 593 601 593 556.5 562.5 c 128
 512 532 512 532 478 498 c 128
 444 464 444 464 423.5 423 c 128
 403 382 403 382 403 328 c 257
 403 282 403 282 419.5 248 c 128
 436 214 436 214 466 192.5 c 128
 496 171 496 171 537 160.5 c 128
 578 150 578 150 627 150 c 257
 676 150 676 150 717.5 158 c 128
 759 166 759 166 797 184.5 c 128
 835 203 835 203 872.5 234 c 128
 910 265 910 265 951 311 c 257
 1064 201 l 257
 1015 138 1015 138 957 96.5 c 128
 899 55 899 55 836 30 c 128
 773 5 773 5 706.5 -5.5 c 128
 640 -16 640 -16 573 -16 c 257
1003 1396 m 257
 1003 1373 1003 1373 992.5 1351.5 c 128
 982 1330 982 1330 965 1313 c 128
 948 1296 948 1296 925 1286 c 128
 902 1276 902 1276 878 1276 c 257
 824 1276 824 1276 794.5 1309.5 c 128
 765 1343 765 1343 765 1396 c 257
 765 1419 765 1419 774 1440.5 c 128
 783 1462 783 1462 799 1479.5 c 128
 815 1497 815 1497 837 1507.5 c 128
 859 1518 859 1518 884 1518 c 257
 940 1518 940 1518 971.5 1484 c 128
 1003 1450 1003 1450 1003 1396 c 257
EndSplineSet
EndChar
StartChar: Agrave
Encoding: 6 192 6
GlifName: A_grave
Width: 1300
VWidth: 0
Flags: W
LayerCount: 2
Fore
SplineSet
18 0 m 257
NamedP: "ab01"
 719 1300 l 257
 789 1500 l 257
 971 1520 l 257
NamedP: "at01"
 1250 0 l 257
NamedP: "sv01"
 1050 0 l 257
 982 450 l 257
NamedP: "sv02"
 447 450 l 257
NamedP: "av01"
 201 0 l 257
 18 0 l 257
NamedP: "ab01"
877 1400 m 257
 776 1080 l 257
 522 600 l 257
 959 600 l 257
 866 1080 l 257
 877 1400 l 257
981 1600 m 257
NamedP: "ah01"
 831 1600 l 257
NamedP: "sh01"
 659 1900 l 257
 867 1920 l 257
NamedP: "at02"
 981 1600 l 257
NamedP: "ah01"
EndSplineSet
PickledDataWithLists: "(dp0
Vcom.fontlab.ttprogram
p1
(c_codecs
encode
p2
(Vdata
p3
Vlatin1
p4
tp5
Rp6
g2
(V<data>\\u000a        <ttProgram>\\u000a          <ttc align=\"round\" code=\"alignv\" point=\"av01\"/>\\u000a          <ttc code=\"alignt\" point=\"at01\" zone=\"t: 1\"/>\\u000a          <ttc code=\"alignb\" point=\"ab01\" zone=\"b: 0\"/>\\u000a          <ttc code=\"singlev\" point1=\"ab01\" point2=\"sv01\"/>\\u000a          <ttc code=\"singlev\" point1=\"av01\" point2=\"sv02\"/>\\u000a          <ttc align=\"round\" code=\"alignh\" point=\"ah01\"/>\\u000a          <ttc code=\"singleh\" point1=\"ah01\" point2=\"sh01\" stem=\"X: ecart du B\"/>\\u000a          <ttc align=\"round\" code=\"alignv\" point=\"ah01\"/>\\u000a          <ttc code=\"alignt\" point=\"at02\" zone=\"t: 1\"/>\\u000a        </ttProgram>\\u000a      </data>
p7
g4
tp8
Rp9
Ntp10
s."
EndChar
StartChar: Acircumflex
Encoding: 4 194 4
GlifName: A_circumflex
Width: 1300
VWidth: 0
Flags: W
LayerCount: 2
Fore
SplineSet
18 0 m 257,0,-1
NamedP: "ab01"
 719 1300 l 257,1,-1
 789 1500 l 257,2,-1
 971 1520 l 257,3,-1
NamedP: "at01"
 1250 0 l 257,4,-1
NamedP: "sv01"
 1050 0 l 257,5,-1
 982 450 l 257,6,-1
NamedP: "sv02"
 447 450 l 257,7,-1
NamedP: "av01"
 201 0 l 257,8,-1
 18 0 l 257,0,-1
NamedP: "ab01"
877 1400 m 257,9,-1
 776 1080 l 257,10,-1
 522 600 l 257,11,-1
 959 600 l 257,12,-1
 866 1080 l 257,13,-1
 877 1400 l 257,9,-1
1173 1620 m 257,14,-1
NamedP: "sv03"
 1023 1620 l 257,15,-1
 949 1772 l 257,16,-1
 935 1860 l 257,17,-1
 890 1773 l 257,18,-1
 762 1620 l 257,19,-1
 612 1620 l 257,20,-1
NamedP: "av02"
 837 1900 l 257,21,-1
 1041 1920 l 257,22,-1
 1173 1620 l 257,14,-1
NamedP: "sv03"
EndSplineSet
PickledDataWithLists: "(dp0
Vcom.fontlab.ttprogram
p1
(c_codecs
encode
p2
(Vdata
p3
Vlatin1
p4
tp5
Rp6
g2
(V<data>\\u000a        <ttProgram>\\u000a          <ttc align=\"round\" code=\"alignv\" point=\"av01\"/>\\u000a          <ttc code=\"alignt\" point=\"at01\" zone=\"t: 1\"/>\\u000a          <ttc code=\"alignb\" point=\"ab01\" zone=\"b: 0\"/>\\u000a          <ttc code=\"singlev\" point1=\"ab01\" point2=\"sv01\"/>\\u000a          <ttc code=\"singlev\" point1=\"av01\" point2=\"sv02\"/>\\u000a          <ttc align=\"round\" code=\"alignv\" point=\"av02\"/>\\u000a          <ttc code=\"singlev\" point1=\"av02\" point2=\"sv03\"/>\\u000a        </ttProgram>\\u000a      </data>
p7
g4
tp8
Rp9
Ntp10
s."
EndChar
StartChar: Atilde
Encoding: 9 195 9
GlifName: A_tilde
Width: 1300
VWidth: 0
Flags: W
LayerCount: 2
Fore
SplineSet
18 0 m 257,0,-1
NamedP: "ab01"
 719 1300 l 257,1,-1
 789 1500 l 257,2,-1
 971 1520 l 257,3,-1
NamedP: "at01"
 1250 0 l 257,4,-1
NamedP: "sv01"
 1050 0 l 257,5,-1
 982 450 l 257,6,-1
NamedP: "sv02"
 447 450 l 257,7,-1
NamedP: "av01"
 201 0 l 257,8,-1
 18 0 l 257,0,-1
NamedP: "ab01"
877 1400 m 257,9,-1
 776 1080 l 257,10,-1
 522 600 l 257,11,-1
 959 600 l 257,12,-1
 866 1080 l 257,13,-1
 877 1400 l 257,9,-1
566 1616 m 257,14,15
 578 1671 578 1671 602 1712 c 128,-1,16
 626 1753 626 1753 656 1779.5 c 128,-1,17
 686 1806 686 1806 719.5 1817.5 c 128,-1,18
 753 1829 753 1829 785 1825 c 257,19,20
 824 1819 824 1819 855 1804.5 c 128,-1,21
 886 1790 886 1790 914.5 1774.5 c 128,-1,22
 943 1759 943 1759 970.5 1747 c 128,-1,23
 998 1735 998 1735 1029 1735 c 257,24,25
 1057 1735 1057 1735 1076.5 1745.5 c 128,-1,26
 1096 1756 1096 1756 1109 1772 c 128,-1,27
 1122 1788 1122 1788 1129 1806.5 c 128,-1,28
 1136 1825 1136 1825 1140 1842 c 257,29,-1
 1235 1839 l 257,30,31
 1229 1791 1229 1791 1206 1746.5 c 128,-1,32
 1183 1702 1183 1702 1150.5 1670 c 128,-1,33
 1118 1638 1118 1638 1078.5 1621.5 c 128,-1,34
 1039 1605 1039 1605 1000 1612 c 257,35,36
 972 1617 972 1617 944 1633.5 c 128,-1,37
 916 1650 916 1650 886.5 1667 c 128,-1,38
 857 1684 857 1684 825 1695 c 128,-1,39
 793 1706 793 1706 757 1701 c 257,40,41
 719 1696 719 1696 692.5 1677 c 128,-1,42
 666 1658 666 1658 651 1613 c 257,43,-1
 566 1616 l 257,14,15
EndSplineSet
PickledDataWithLists: "(dp0
Vcom.fontlab.ttprogram
p1
(c_codecs
encode
p2
(Vdata
p3
Vlatin1
p4
tp5
Rp6
g2
(V<data>\\u000a        <ttProgram>\\u000a          <ttc align=\"round\" code=\"alignv\" point=\"av01\"/>\\u000a          <ttc code=\"alignt\" point=\"at01\" zone=\"t: 1\"/>\\u000a          <ttc code=\"alignb\" point=\"ab01\" zone=\"b: 0\"/>\\u000a          <ttc code=\"singlev\" point1=\"ab01\" point2=\"sv01\"/>\\u000a          <ttc code=\"singlev\" point1=\"av01\" point2=\"sv02\"/>\\u000a        </ttProgram>\\u000a      </data>
p7
g4
tp8
Rp9
Ntp10
s."
EndChar
StartChar: Adieresis
Encoding: 5 196 5
GlifName: A_dieresis
Width: 1300
VWidth: 0
Flags: W
LayerCount: 2
Fore
SplineSet
18 0 m 257
NamedP: "ab01"
 719 1300 l 257
 789 1500 l 257
 971 1520 l 257
NamedP: "at01"
 1250 0 l 257
NamedP: "sv01"
 1050 0 l 257
 982 450 l 257
NamedP: "sv02"
 447 450 l 257
NamedP: "av01"
 201 0 l 257
 18 0 l 257
NamedP: "ab01"
877 1400 m 257
 776 1080 l 257
 522 600 l 257
 959 600 l 257
 866 1080 l 257
 877 1400 l 257
637 1800 m 257
 837 1800 l 257
 802 1600 l 257
 602 1600 l 257
 637 1800 l 257
1037 1800 m 257
 1237 1800 l 257
 1202 1600 l 257
 1002 1600 l 257
 1037 1800 l 257
EndSplineSet
PickledDataWithLists: "(dp0
Vcom.fontlab.ttprogram
p1
(c_codecs
encode
p2
(Vdata
p3
Vlatin1
p4
tp5
Rp6
g2
(V<data>\\u000a        <ttProgram>\\u000a          <ttc align=\"round\" code=\"alignv\" point=\"av01\"/>\\u000a          <ttc code=\"alignt\" point=\"at01\" zone=\"t: 1\"/>\\u000a          <ttc code=\"alignb\" point=\"ab01\" zone=\"b: 0\"/>\\u000a          <ttc code=\"singlev\" point1=\"ab01\" point2=\"sv01\"/>\\u000a          <ttc code=\"singlev\" point1=\"av01\" point2=\"sv02\"/>\\u000a        </ttProgram>\\u000a      </data>
p7
g4
tp8
Rp9
Ntp10
s."
EndChar
StartChar: Aring
Encoding: 8 197 8
GlifName: A_ring
Width: 1300
VWidth: 0
Flags: W
LayerCount: 2
Fore
SplineSet
18 0 m 257
NamedP: "ab01"
 719 1300 l 257
 789 1500 l 257
 971 1520 l 257
NamedP: "at01"
 1250 0 l 257
NamedP: "sv01"
 1050 0 l 257
 982 450 l 257
NamedP: "sv02"
 447 450 l 257
NamedP: "av01"
 201 0 l 257
 18 0 l 257
NamedP: "ab01"
877 1400 m 257
 776 1080 l 257
 522 600 l 257
 959 600 l 257
 866 1080 l 257
 877 1400 l 257
968 1881 m 257
NamedP: "av02"
 1016 1873 1016 1873 1053.5 1851.5 c 128
 1091 1830 1091 1830 1116 1798.5 c 128
 1141 1767 1141 1767 1153 1727.5 c 128
 1165 1688 1165 1688 1163 1644 c 257
 1160 1587 1160 1587 1135.5 1541.5 c 128
 1111 1496 1111 1496 1072.5 1464.5 c 128
 1034 1433 1034 1433 985.5 1417 c 128
 937 1401 937 1401 886 1403 c 257
NamedP: "av03"
 842 1404 842 1404 804.5 1424.5 c 128
 767 1445 767 1445 740 1478 c 128
 713 1511 713 1511 699 1554 c 128
 685 1597 685 1597 688 1644 c 257
 691 1694 691 1694 715.5 1740.5 c 128
 740 1787 740 1787 779 1821 c 128
 818 1855 818 1855 867.5 1872 c 128
 917 1889 917 1889 968 1881 c 257
NamedP: "av02"
905 1520 m 257
 929 1515 929 1515 954.5 1522 c 128
 980 1529 980 1529 1001.5 1545.5 c 128
 1023 1562 1023 1562 1036 1587 c 128
 1049 1612 1049 1612 1047 1643 c 257
 1044 1695 1044 1695 1020.5 1724.5 c 128
 997 1754 997 1754 947 1764 c 257
 921 1769 921 1769 895.5 1760.5 c 128
 870 1752 870 1752 849.5 1734.5 c 128
 829 1717 829 1717 816.5 1693 c 128
 804 1669 804 1669 805 1643 c 257
 808 1541 808 1541 905 1520 c 257
EndSplineSet
PickledDataWithLists: "(dp0
Vcom.fontlab.ttprogram
p1
(c_codecs
encode
p2
(Vdata
p3
Vlatin1
p4
tp5
Rp6
g2
(V<data>\\u000a        <ttProgram>\\u000a          <ttc align=\"round\" code=\"alignv\" point=\"av01\"/>\\u000a          <ttc code=\"alignt\" point=\"at01\" zone=\"t: 1\"/>\\u000a          <ttc code=\"alignb\" point=\"ab01\" zone=\"b: 0\"/>\\u000a          <ttc code=\"singlev\" point1=\"ab01\" point2=\"sv01\"/>\\u000a          <ttc code=\"singlev\" point1=\"av01\" point2=\"sv02\"/>\\u000a          <ttc align=\"round\" code=\"alignv\" point=\"av02\"/>\\u000a          <ttc align=\"round\" code=\"alignv\" point=\"av03\"/>\\u000a        </ttProgram>\\u000a      </data>
p7
g4
tp8
Rp9
Ntp10
s."
EndChar
StartChar: AE
Encoding: 2 198 2
GlifName: A_E_
Width: 1300
VWidth: 0
Flags: W
LayerCount: 2
Fore
SplineSet
1300 160 m 257,0,-1
 1252 0 l 257,1,-1
NamedP: "sv01"
 546 0 l 257,2,-1
 598 200 l 257,3,-1
 642 450 l 257,4,-1
 347 450 l 257,5,-1
 113 0 l 257,6,-1
 -103 0 l 257,7,-1
NamedP: "ab01"
 575 1300 l 257,8,-1
 655 1500 l 257,9,-1
NamedP: "at01"
 1400 1500 l 257,10,-1
NamedP: "sv02"
 1372 1340 l 257,11,-1
 986 1340 l 257,12,-1
 974 1149 l 257,13,-1
 927 885 l 257,14,-1
NamedP: "av02"
 1252 885 l 257,15,-1
NamedP: "sv03"
 1227 740 l 257,16,-1
 902 740 l 257,17,-1
 831 340 l 257,18,-1
 789 160 l 257,19,-1
 1300 160 l 257,0,-1
669 600 m 257,20,-1
NamedP: "sv04"
 757 1106 l 257,21,-1
 758 1340 l 257,22,-1
 662 1099 l 257,23,-1
 415 600 l 257,24,-1
NamedP: "av01"
 669 600 l 257,20,-1
NamedP: "sv04"
EndSplineSet
PickledDataWithLists: "(dp0
Vcom.fontlab.ttprogram
p1
(c_codecs
encode
p2
(Vdata
p3
Vlatin1
p4
tp5
Rp6
g2
(V<data>\\u000a        <ttProgram>\\u000a          <ttc align=\"round\" code=\"alignv\" point=\"av01\"/>\\u000a          <ttc align=\"round\" code=\"alignv\" point=\"av02\"/>\\u000a          <ttc code=\"alignt\" point=\"at01\" zone=\"t: 1\"/>\\u000a          <ttc code=\"alignb\" point=\"ab01\" zone=\"b: 0\"/>\\u000a          <ttc code=\"singlev\" point1=\"ab01\" point2=\"sv01\"/>\\u000a          <ttc code=\"singlev\" point1=\"at01\" point2=\"sv02\"/>\\u000a          <ttc code=\"singlev\" point1=\"av02\" point2=\"sv03\"/>\\u000a          <ttc code=\"singlev\" point1=\"av01\" point2=\"sv04\"/>\\u000a        </ttProgram>\\u000a      </data>
p7
g4
tp8
Rp9
Ntp10
sVcom.typemytype.robofont.guides
p11
(lp12
(dp13
Vangle
p14
I80
sVisGlobal
p15
I00
sVmagnetic
p16
I5
sVx
p17
I707
sVy
p18
I0
sas."
EndChar
StartChar: Ccedilla
Encoding: 13 199 13
GlifName: C_cedilla
Width: 1300
VWidth: 0
Flags: W
LayerCount: 2
Fore
SplineSet
998 95 m 257,0,1
 978 81 978 81 942 62 c 128,-1,2
 906 43 906 43 854 25.5 c 128,-1,3
 802 8 802 8 733 -4.5 c 128,-1,4
 664 -17 664 -17 577 -17 c 257,5,6
NamedP: "ab01"
 458 -17 458 -17 369.5 30.5 c 128,-1,7
 281 78 281 78 222.5 162.5 c 128,-1,8
 164 247 164 247 135 363 c 128,-1,9
 106 479 106 479 106 616 c 257,10,11
 106 738 106 738 127.5 852.5 c 128,-1,12
 149 967 149 967 191 1067 c 128,-1,13
 233 1167 233 1167 295 1250 c 128,-1,14
 357 1333 357 1333 438 1392 c 128,-1,15
 519 1451 519 1451 618.5 1484 c 128,-1,16
 718 1517 718 1517 835 1517 c 257,17,18
NamedP: "at01"
 1078 1517 1078 1517 1210 1385 c 257,19,-1
 1112 1263 l 257,20,21
 1050 1306 1050 1306 983.5 1323.5 c 128,-1,22
 917 1341 917 1341 829 1341 c 257,23,24
 735 1341 735 1341 660 1312 c 128,-1,25
 585 1283 585 1283 527 1231.5 c 128,-1,26
 469 1180 469 1180 427 1109.5 c 128,-1,27
 385 1039 385 1039 358.5 957.5 c 128,-1,28
 332 876 332 876 319.5 786 c 128,-1,29
 307 696 307 696 307 605 c 257,30,31
 307 518 307 518 319.5 436.5 c 128,-1,32
 332 355 332 355 367 292 c 128,-1,33
 402 229 402 229 466 191 c 128,-1,34
 530 153 530 153 632 153 c 257,35,36
 677 153 677 153 718 159 c 128,-1,37
 759 165 759 165 798 177 c 128,-1,38
 837 189 837 189 876 206.5 c 128,-1,39
 915 224 915 224 956 247 c 257,40,-1
 998 95 l 257,0,1
648 0 m 257,41,42
NamedP: "sv01"
 666 -27 666 -27 678 -59 c 257,43,44
 689 -86 689 -86 695 -122 c 128,-1,45
 701 -158 701 -158 696 -198 c 257,46,47
 689 -248 689 -248 666 -287 c 128,-1,48
 643 -326 643 -326 608.5 -352.5 c 128,-1,49
 574 -379 574 -379 529.5 -393 c 128,-1,50
 485 -407 485 -407 435 -407 c 257,51,52
NamedP: "sv02"
 393 -407 393 -407 349.5 -393.5 c 128,-1,53
 306 -380 306 -380 270 -363 c 257,54,55
 228 -344 228 -344 189 -318 c 257,56,-1
 278 -218 l 257,57,58
 301 -235 301 -235 327 -248 c 257,59,60
 349 -259 349 -259 376.5 -269 c 128,-1,61
 404 -279 404 -279 433 -279 c 257,62,63
NamedP: "av01"
 476 -280 476 -280 506 -259 c 128,-1,64
 536 -238 536 -238 544 -189 c 257,65,66
 549 -156 549 -156 539 -122 c 128,-1,67
 529 -88 529 -88 514 -61 c 257,68,69
 496 -29 496 -29 472 0 c 257,70,-1
NamedP: "ab02"
 648 0 l 257,41,42
NamedP: "sv01"
EndSplineSet
PickledDataWithLists: "(dp0
Vcom.fontlab.ttprogram
p1
(c_codecs
encode
p2
(Vdata
p3
Vlatin1
p4
tp5
Rp6
g2
(V<data>\\u000a        <ttProgram>\\u000a          <ttc code=\"alignt\" point=\"at01\" zone=\"t: 1\"/>\\u000a          <ttc code=\"alignb\" point=\"ab01\" zone=\"b: 0\"/>\\u000a          <ttc align=\"round\" code=\"alignv\" point=\"av01\"/>\\u000a          <ttc code=\"alignb\" point=\"ab02\" zone=\"b: 0\"/>\\u000a          <ttc code=\"singlev\" point1=\"ab02\" point2=\"sv01\"/>\\u000a          <ttc code=\"singlev\" point1=\"av01\" point2=\"sv02\" stem=\"Y: 144\"/>\\u000a        </ttProgram>\\u000a      </data>
p7
g4
tp8
Rp9
Ntp10
s."
EndChar
StartChar: Ecircumflex
Encoding: 19 202 19
GlifName: E_circumflex
Width: 1300
VWidth: 0
Flags: W
LayerCount: 2
Fore
SplineSet
1040 160 m 257
 992 0 l 257
NamedP: "sv01"
 72 0 l 257
NamedP: "ab01"
 123 200 l 257
 315 1290 l 257
 322 1500 l 257
NamedP: "at01"
 1242 1500 l 257
NamedP: "sv02"
 1214 1340 l 257
 489 1340 l 257
 475 1150 l 257
 428 885 l 257
 1063 885 l 257
 1038 740 l 257
NamedP: "sv03"
 403 740 l 257
NamedP: "av01"
 332 340 l 257
 290 160 l 257
 1040 160 l 257
1045 1620 m 257
NamedP: "sv04"
 895 1620 l 257
 821 1772 l 257
 807 1860 l 257
 762 1773 l 257
 634 1620 l 257
 484 1620 l 257
NamedP: "av02"
 709 1900 l 257
 913 1920 l 257
 1045 1620 l 257
NamedP: "sv04"
EndSplineSet
PickledDataWithLists: "(dp0
Vcom.fontlab.ttprogram
p1
(c_codecs
encode
p2
(Vdata
p3
Vlatin1
p4
tp5
Rp6
g2
(V<data>\\u000a        <ttProgram>\\u000a          <ttc align=\"round\" code=\"alignv\" point=\"av01\"/>\\u000a          <ttc code=\"alignt\" point=\"at01\" zone=\"t: 1\"/>\\u000a          <ttc code=\"alignb\" point=\"ab01\" zone=\"b: 0\"/>\\u000a          <ttc code=\"singlev\" point1=\"ab01\" point2=\"sv01\"/>\\u000a          <ttc code=\"singlev\" point1=\"at01\" point2=\"sv02\"/>\\u000a          <ttc code=\"singlev\" point1=\"av01\" point2=\"sv03\"/>\\u000a          <ttc align=\"round\" code=\"alignv\" point=\"av02\"/>\\u000a          <ttc code=\"singlev\" point1=\"av02\" point2=\"sv04\"/>\\u000a        </ttProgram>\\u000a      </data>
p7
g4
tp8
Rp9
Ntp10
s."
EndChar
StartChar: Iacute
Encoding: 31 205 31
GlifName: I_acute
Width: 1300
VWidth: 0
Flags: W
LayerCount: 2
Fore
SplineSet
338 1500 m 257
NamedP: "at01"
 1238 1500 l 257
NamedP: "sv01"
 1210 1340 l 257
 852 1340 l 257
 643 160 l 257
 1021 160 l 257
 973 0 l 257
NamedP: "sv02"
 73 0 l 257
NamedP: "ab01"
 101 160 l 257
 457 160 l 257
 666 1340 l 257
 290 1340 l 257
 338 1500 l 257
NamedP: "at01"
894 1900 m 257
NamedP: "at02"
 1128 1920 l 257
 831 1600 l 257
 681 1600 l 257
NamedP: "av01"
 894 1900 l 257
NamedP: "at02"
EndSplineSet
PickledDataWithLists: "(dp0
Vcom.fontlab.ttprogram
p1
(c_codecs
encode
p2
(Vdata
p3
Vlatin1
p4
tp5
Rp6
g2
(V<data>\\u000a        <ttProgram>\\u000a          <ttc code=\"alignt\" point=\"at01\" zone=\"t: 1\"/>\\u000a          <ttc code=\"alignb\" point=\"ab01\" zone=\"b: 0\"/>\\u000a          <ttc code=\"singlev\" point1=\"at01\" point2=\"sv01\"/>\\u000a          <ttc code=\"singlev\" point1=\"ab01\" point2=\"sv02\"/>\\u000a          <ttc align=\"round\" code=\"alignv\" point=\"av01\"/>\\u000a          <ttc code=\"alignt\" point=\"at02\" zone=\"t: 1\"/>\\u000a        </ttProgram>\\u000a      </data>
p7
g4
tp8
Rp9
Ntp10
s."
EndChar
StartChar: Icircumflex
Encoding: 32 206 32
GlifName: I_circumflex
Width: 1300
VWidth: 0
Flags: W
LayerCount: 2
Fore
SplineSet
338 1500 m 257,0,-1
NamedP: "at01"
 1238 1500 l 257,1,-1
NamedP: "sv01"
 1210 1340 l 257,2,-1
 852 1340 l 257,3,-1
 643 160 l 257,4,-1
 1021 160 l 257,5,-1
 973 0 l 257,6,-1
NamedP: "sv02"
 73 0 l 257,7,-1
NamedP: "ab01"
 101 160 l 257,8,-1
 457 160 l 257,9,-1
 666 1340 l 257,10,-1
 290 1340 l 257,11,-1
 338 1500 l 257,0,-1
NamedP: "at01"
1142 1620 m 257,12,-1
NamedP: "sv03"
 992 1620 l 257,13,-1
 918 1772 l 257,14,-1
 904 1860 l 257,15,-1
 859 1773 l 257,16,-1
 731 1620 l 257,17,-1
 581 1620 l 257,18,-1
NamedP: "av01"
 806 1900 l 257,19,-1
 1010 1920 l 257,20,-1
 1142 1620 l 257,12,-1
NamedP: "sv03"
EndSplineSet
PickledDataWithLists: "(dp0
Vcom.fontlab.ttprogram
p1
(c_codecs
encode
p2
(Vdata
p3
Vlatin1
p4
tp5
Rp6
g2
(V<data>\\u000a        <ttProgram>\\u000a          <ttc code=\"alignt\" point=\"at01\" zone=\"t: 1\"/>\\u000a          <ttc code=\"alignb\" point=\"ab01\" zone=\"b: 0\"/>\\u000a          <ttc code=\"singlev\" point1=\"at01\" point2=\"sv01\"/>\\u000a          <ttc code=\"singlev\" point1=\"ab01\" point2=\"sv02\"/>\\u000a          <ttc align=\"round\" code=\"alignv\" point=\"av01\"/>\\u000a          <ttc code=\"singlev\" point1=\"av01\" point2=\"sv03\"/>\\u000a        </ttProgram>\\u000a      </data>
p7
g4
tp8
Rp9
Ntp10
s."
EndChar
StartChar: Eth
Encoding: 24 208 24
GlifName: E_th
Width: 1300
VWidth: 0
Flags: W
LayerCount: 2
Fore
SplineSet
50 856 m 257
 649 856 l 257
 622 701 l 257
 23 701 l 257
 50 856 l 257
294 1500 m 257
 325 1503 325 1503 366 1505 c 128
 407 1507 407 1507 450.5 1508.5 c 128
 494 1510 494 1510 536 1510.5 c 128
 578 1511 578 1511 611 1511 c 257
 756 1511 756 1511 870.5 1479 c 128
 985 1447 985 1447 1064.5 1377.5 c 128
 1144 1308 1144 1308 1186 1198.5 c 128
 1228 1089 1228 1089 1228 933 c 257
 1228 772 1228 772 1194.5 640.5 c 128
 1161 509 1161 509 1100.5 405.5 c 128
 1040 302 1040 302 956.5 225.5 c 128
 873 149 873 149 774 99 c 128
 675 49 675 49 563.5 24.5 c 128
 452 0 452 0 336 0 c 257
 60 0 l 257
 287 1290 l 257
 294 1500 l 257
462 1150 m 257
 450 1083 450 1083 427 953 c 257
 417 897 417 897 404 822 c 128
 391 747 391 747 374 649.5 c 128
 357 552 357 552 335.5 430.5 c 128
 314 309 314 309 288 160 c 257
 308 160 l 257
 451 160 451 160 561 193 c 128
 671 226 671 226 752.5 283 c 128
 834 340 834 340 889 416.5 c 128
 944 493 944 493 977 580 c 128
 1010 667 1010 667 1024.5 761 c 128
 1039 855 1039 855 1039 946 c 257
 1039 1036 1039 1036 1016.5 1112 c 128
 994 1188 994 1188 940.5 1242.5 c 128
 887 1297 887 1297 799 1327.5 c 128
 711 1358 711 1358 580 1358 c 257
 564 1358 564 1358 546 1357 c 128
 528 1356 528 1356 511 1354 c 257
 492 1352 492 1352 473 1350 c 257
 462 1150 l 257
EndSplineSet
EndChar
StartChar: Ocircumflex
Encoding: 51 212 51
GlifName: O_circumflex
Width: 1300
VWidth: 0
Flags: W
LayerCount: 2
Fore
SplineSet
488 -17 m 257
NamedP: "ab01"
 398 -17 398 -17 327 10.5 c 128
 256 38 256 38 204 88.5 c 128
 152 139 152 139 118 209 c 128
 84 279 84 279 68 364.5 c 128
 52 450 52 450 53.5 547.5 c 128
 55 645 55 645 74 750 c 257
 92 855 92 855 124.5 952.5 c 128
 157 1050 157 1050 202.5 1135.5 c 128
 248 1221 248 1221 305.5 1291 c 128
 363 1361 363 1361 433 1411.5 c 128
 503 1462 503 1462 585 1489.5 c 128
 667 1517 667 1517 759 1517 c 257
NamedP: "at01"
 849 1517 849 1517 920 1489.5 c 128
 991 1462 991 1462 1043 1411.5 c 128
 1095 1361 1095 1361 1129 1291 c 128
 1163 1221 1163 1221 1179 1135.5 c 128
 1195 1050 1195 1050 1193.5 952.5 c 128
 1192 855 1192 855 1174 750 c 257
 1155 645 1155 645 1122.5 547.5 c 128
 1090 450 1090 450 1045 364.5 c 128
 1000 279 1000 279 942 209 c 128
 884 139 884 139 814 88.5 c 128
 744 38 744 38 662 10.5 c 128
 580 -17 580 -17 488 -17 c 257
NamedP: "ab01"
960 719 m 257
 972 789 972 789 980.5 862 c 128
 989 935 989 935 988 1004.5 c 128
 987 1074 987 1074 973.5 1135.5 c 128
 960 1197 960 1197 929.5 1242.5 c 128
 899 1288 899 1288 848.5 1315 c 128
 798 1342 798 1342 722 1342 c 257
 650 1342 650 1342 593 1318 c 128
 536 1294 536 1294 491 1252.5 c 128
 446 1211 446 1211 413 1155.5 c 128
 380 1100 380 1100 355.5 1038 c 128
 331 976 331 976 315 911 c 128
 299 846 299 846 288 785 c 257
 275 714 275 714 267 640 c 128
 259 566 259 566 260 496.5 c 128
 261 427 261 427 274 365.5 c 128
 287 304 287 304 317.5 258 c 128
 348 212 348 212 398.5 185 c 128
 449 158 449 158 525 158 c 257
 596 158 596 158 653 182.5 c 128
 710 207 710 207 755 249.5 c 128
 800 292 800 292 833.5 347.5 c 128
 867 403 867 403 891.5 465.5 c 128
 916 528 916 528 932.5 593 c 128
 949 658 949 658 960 719 c 257
1138 1620 m 257
NamedP: "sv01"
 988 1620 l 257
 914 1772 l 257
 900 1860 l 257
 855 1773 l 257
 727 1620 l 257
 577 1620 l 257
NamedP: "av01"
 802 1900 l 257
 1006 1920 l 257
 1138 1620 l 257
NamedP: "sv01"
EndSplineSet
PickledDataWithLists: "(dp0
Vcom.fontlab.ttprogram
p1
(c_codecs
encode
p2
(Vdata
p3
Vlatin1
p4
tp5
Rp6
g2
(V<data>\\u000a        <ttProgram>\\u000a          <ttc code=\"alignt\" point=\"at01\" zone=\"t: 1\"/>\\u000a          <ttc code=\"alignb\" point=\"ab01\" zone=\"b: 0\"/>\\u000a          <ttc align=\"round\" code=\"alignv\" point=\"av01\"/>\\u000a          <ttc code=\"singlev\" point1=\"av01\" point2=\"sv01\"/>\\u000a        </ttProgram>\\u000a      </data>
p7
g4
tp8
Rp9
Ntp10
s."
EndChar
StartChar: Otilde
Encoding: 58 213 58
GlifName: O_tilde
Width: 1300
VWidth: 0
Flags: W
LayerCount: 2
Fore
SplineSet
488 -17 m 257
NamedP: "ab01"
 398 -17 398 -17 327 10.5 c 128
 256 38 256 38 204 88.5 c 128
 152 139 152 139 118 209 c 128
 84 279 84 279 68 364.5 c 128
 52 450 52 450 53.5 547.5 c 128
 55 645 55 645 74 750 c 257
 92 855 92 855 124.5 952.5 c 128
 157 1050 157 1050 202.5 1135.5 c 128
 248 1221 248 1221 305.5 1291 c 128
 363 1361 363 1361 433 1411.5 c 128
 503 1462 503 1462 585 1489.5 c 128
 667 1517 667 1517 759 1517 c 257
NamedP: "at01"
 849 1517 849 1517 920 1489.5 c 128
 991 1462 991 1462 1043 1411.5 c 128
 1095 1361 1095 1361 1129 1291 c 128
 1163 1221 1163 1221 1179 1135.5 c 128
 1195 1050 1195 1050 1193.5 952.5 c 128
 1192 855 1192 855 1174 750 c 257
 1155 645 1155 645 1122.5 547.5 c 128
 1090 450 1090 450 1045 364.5 c 128
 1000 279 1000 279 942 209 c 128
 884 139 884 139 814 88.5 c 128
 744 38 744 38 662 10.5 c 128
 580 -17 580 -17 488 -17 c 257
NamedP: "ab01"
960 719 m 257
 972 789 972 789 980.5 862 c 128
 989 935 989 935 988 1004.5 c 128
 987 1074 987 1074 973.5 1135.5 c 128
 960 1197 960 1197 929.5 1242.5 c 128
 899 1288 899 1288 848.5 1315 c 128
 798 1342 798 1342 722 1342 c 257
 650 1342 650 1342 593 1318 c 128
 536 1294 536 1294 491 1252.5 c 128
 446 1211 446 1211 413 1155.5 c 128
 380 1100 380 1100 355.5 1038 c 128
 331 976 331 976 315 911 c 128
 299 846 299 846 288 785 c 257
 275 714 275 714 267 640 c 128
 259 566 259 566 260 496.5 c 128
 261 427 261 427 274 365.5 c 128
 287 304 287 304 317.5 258 c 128
 348 212 348 212 398.5 185 c 128
 449 158 449 158 525 158 c 257
 596 158 596 158 653 182.5 c 128
 710 207 710 207 755 249.5 c 128
 800 292 800 292 833.5 347.5 c 128
 867 403 867 403 891.5 465.5 c 128
 916 528 916 528 932.5 593 c 128
 949 658 949 658 960 719 c 257
516 1655 m 257
 528 1710 528 1710 552 1751 c 128
 576 1792 576 1792 606 1818.5 c 128
 636 1845 636 1845 669.5 1856.5 c 128
 703 1868 703 1868 735 1864 c 257
 774 1858 774 1858 805 1843.5 c 128
 836 1829 836 1829 864.5 1813.5 c 128
 893 1798 893 1798 920.5 1786 c 128
 948 1774 948 1774 979 1774 c 257
 1007 1774 1007 1774 1026.5 1784.5 c 128
 1046 1795 1046 1795 1059 1811 c 128
 1072 1827 1072 1827 1079 1845.5 c 128
 1086 1864 1086 1864 1090 1881 c 257
 1185 1878 l 257
 1179 1830 1179 1830 1156 1785.5 c 128
 1133 1741 1133 1741 1100.5 1709 c 128
 1068 1677 1068 1677 1028.5 1660.5 c 128
 989 1644 989 1644 950 1651 c 257
 922 1656 922 1656 894 1672.5 c 128
 866 1689 866 1689 836.5 1706 c 128
 807 1723 807 1723 775 1734 c 128
 743 1745 743 1745 707 1740 c 257
 669 1735 669 1735 642.5 1716 c 128
 616 1697 616 1697 601 1652 c 257
 516 1655 l 257
EndSplineSet
PickledDataWithLists: "(dp0
Vcom.fontlab.ttprogram
p1
(c_codecs
encode
p2
(Vdata
p3
Vlatin1
p4
tp5
Rp6
g2
(V<data>\\u000a        <ttProgram>\\u000a          <ttc code=\"alignt\" point=\"at01\" zone=\"t: 1\"/>\\u000a          <ttc code=\"alignb\" point=\"ab01\" zone=\"b: 0\"/>\\u000a        </ttProgram>\\u000a      </data>
p7
g4
tp8
Rp9
Ntp10
s."
EndChar
StartChar: multiply
Encoding: 325 215 325
GlifName: multiply
Width: 1300
VWidth: 0
Flags: W
LayerCount: 2
Fore
SplineSet
760 627 m 257,0,-1
 1110 203 l 257,1,-1
 968 102 l 257,2,-1
NamedP: "ih03"
 659 477 l 257,3,-1
 660 477 l 257,4,-1
 619 576 l 257,5,-1
NamedP: "ih01"
 584 477 l 257,6,-1
 142 102 l 257,7,-1
NamedP: "ih02"
 35 203 l 257,8,-1
 536 627 l 257,9,-1
 185 1052 l 257,10,-1
 328 1153 l 257,11,-1
NamedP: "ih05"
 637 777 l 257,12,-1
 677 679 l 257,13,-1
NamedP: "ih04"
 713 777 l 257,14,-1
 1154 1153 l 257,15,-1
NamedP: "ih06"
 1260 1052 l 257,16,-1
 760 627 l 257,0,-1
EndSplineSet
PickledDataWithLists: "(dp0
Vcom.fontlab.ttprogram
p1
(c_codecs
encode
p2
(Vdata
p3
Vlatin1
p4
tp5
Rp6
g2
(V<data>\\u000a        <ttProgram>\\u000a          <ttc code=\"interpolateh\" point=\"ih01\" point1=\"ih02\" point2=\"ih03\"/>\\u000a          <ttc code=\"interpolateh\" point=\"ih04\" point1=\"ih05\" point2=\"ih06\"/>\\u000a        </ttProgram>\\u000a      </data>
p7
g4
tp8
Rp9
Ntp10
s."
EndChar
StartChar: Udieresis
Encoding: 76 220 76
GlifName: U_dieresis
Width: 1300
VWidth: 0
Flags: W
LayerCount: 2
Fore
SplineSet
1226 1500 m 257
NamedP: "sv01"
 1054 523 l 257
 1030 387 1030 387 980 285.5 c 128
 930 184 930 184 856.5 117 c 128
 783 50 783 50 688 16.5 c 128
 593 -17 593 -17 479 -17 c 257
NamedP: "ab01"
 357 -17 357 -17 279.5 25.5 c 128
 202 68 202 68 161.5 145.5 c 128
 121 223 121 223 115.5 332 c 128
 110 441 110 441 133 573 c 257
 259 1290 l 257
 266 1500 l 257
NamedP: "at01"
 490 1520 l 257
NamedP: "at02"
 320 554 l 257
 303 459 303 459 308.5 384.5 c 128
 314 310 314 310 340 258.5 c 128
 366 207 366 207 411 180 c 128
 456 153 456 153 519 153 c 257
 666 153 666 153 748 240.5 c 128
 830 328 830 328 861 504 c 257
 1036 1500 l 257
 1226 1500 l 257
NamedP: "sv01"
495 1800 m 257
 695 1800 l 257
 660 1600 l 257
 460 1600 l 257
 495 1800 l 257
895 1800 m 257
 1095 1800 l 257
 1060 1600 l 257
 860 1600 l 257
 895 1800 l 257
EndSplineSet
PickledDataWithLists: "(dp0
Vcom.fontlab.ttprogram
p1
(c_codecs
encode
p2
(Vdata
p3
Vlatin1
p4
tp5
Rp6
g2
(V<data>\\u000a        <ttProgram>\\u000a          <ttc code=\"alignt\" point=\"at01\" zone=\"t: 1\"/>\\u000a          <ttc code=\"alignt\" point=\"at02\" zone=\"t: 1\"/>\\u000a          <ttc code=\"alignb\" point=\"ab01\" zone=\"b: 0\"/>\\u000a          <ttc code=\"singlev\" point1=\"at01\" point2=\"sv01\"/>\\u000a        </ttProgram>\\u000a      </data>
p7
g4
tp8
Rp9
Ntp10
s."
EndChar
StartChar: Yacute
Encoding: 85 221 85
GlifName: Y_acute
Width: 1300
VWidth: 0
Flags: W
LayerCount: 2
Fore
SplineSet
588 935 m 257,0,-1
 976 1500 l 257,1,-1
 1168 1500 l 257,2,-1
NamedP: "sv01"
 582 646 l 257,3,-1
 469 0 l 257,4,-1
NamedP: "sv02"
 269 0 l 257,5,-1
NamedP: "ab01"
 382 645 l 257,6,-1
 97 1500 l 257,7,-1
NamedP: "at01"
 305 1520 l 257,8,-1
NamedP: "at02"
 483 954 l 257,9,-1
 518 705 l 257,10,-1
 588 935 l 257,0,-1
731 1900 m 257,11,-1
NamedP: "at03"
 965 1920 l 257,12,-1
 668 1600 l 257,13,-1
 518 1600 l 257,14,-1
NamedP: "av01"
 731 1900 l 257,11,-1
NamedP: "at03"
EndSplineSet
PickledDataWithLists: "(dp0
Vcom.fontlab.ttprogram
p1
(c_codecs
encode
p2
(Vdata
p3
Vlatin1
p4
tp5
Rp6
g2
(V<data>\\u000a        <ttProgram>\\u000a          <ttc code=\"alignt\" point=\"at01\" zone=\"t: 1\"/>\\u000a          <ttc code=\"alignt\" point=\"at02\" zone=\"t: 1\"/>\\u000a          <ttc code=\"alignb\" point=\"ab01\" zone=\"b: 0\"/>\\u000a          <ttc code=\"singlev\" point1=\"at01\" point2=\"sv01\"/>\\u000a          <ttc code=\"singlev\" point1=\"ab01\" point2=\"sv02\"/>\\u000a          <ttc align=\"round\" code=\"alignv\" point=\"av01\"/>\\u000a          <ttc code=\"alignt\" point=\"at03\" zone=\"t: 1\"/>\\u000a        </ttProgram>\\u000a      </data>
p7
g4
tp8
Rp9
Ntp10
s."
EndChar
StartChar: Thorn
Encoding: 72 222 72
GlifName: T_horn
Width: 1300
VWidth: 0
Flags: W
LayerCount: 2
Fore
SplineSet
344 1500 m 257
NamedP: "at01"
 564 1500 l 257
NamedP: "sv01"
 529 1301 l 257
NamedP: "av01"
 729 1301 l 257
NamedP: "sv02"
 754 1301 754 1301 792.5 1293.5 c 128
 831 1286 831 1286 874 1268 c 128
 917 1250 917 1250 959.5 1219.5 c 128
 1002 1189 1002 1189 1035 1143 c 128
 1068 1097 1068 1097 1088 1034.5 c 128
 1108 972 1108 972 1106 889 c 257
NamedP: "sv03"
 1105 855 1105 855 1099.5 813.5 c 128
 1094 772 1094 772 1081 728.5 c 128
 1068 685 1068 685 1046.5 641.5 c 128
 1025 598 1025 598 992.5 559 c 128
 960 520 960 520 914.5 488 c 128
 869 456 869 456 808 435 c 257
 752 415 752 415 687.5 408 c 128
 623 401 623 401 530 401 c 257
 370 401 l 257
 300 0 l 257
NamedP: "sv04"
 100 0 l 257
NamedP: "ab01"
 329 1299 l 257
 344 1500 l 257
NamedP: "at01"
502 1151 m 257
 398 557 l 257
NamedP: "av02"
 587 557 l 257
NamedP: "sv05"
 668 557 668 557 731 581 c 128
 794 605 794 605 837.5 648.5 c 128
 881 692 881 692 903.5 753.5 c 128
 926 815 926 815 926 889 c 257
NamedP: "av03"
 926 934 926 934 911 981 c 128
 896 1028 896 1028 865 1065.5 c 128
 834 1103 834 1103 785.5 1127 c 128
 737 1151 737 1151 671 1151 c 257
 502 1151 l 257
EndSplineSet
PickledDataWithLists: "(dp0
Vcom.fontlab.ttprogram
p1
(c_codecs
encode
p2
(Vdata
p3
Vlatin1
p4
tp5
Rp6
g2
(V<data>\\u000a        <ttProgram>\\u000a          <ttc align=\"round\" code=\"alignv\" point=\"av01\"/>\\u000a          <ttc align=\"round\" code=\"alignv\" point=\"av02\"/>\\u000a          <ttc align=\"round\" code=\"alignv\" point=\"av03\"/>\\u000a          <ttc code=\"alignt\" point=\"at01\" zone=\"t: 1\"/>\\u000a          <ttc code=\"alignb\" point=\"ab01\" zone=\"b: 0\"/>\\u000a          <ttc code=\"singlev\" point1=\"at01\" point2=\"sv01\"/>\\u000a          <ttc code=\"singlev\" point1=\"av01\" point2=\"sv02\"/>\\u000a          <ttc code=\"singlev\" point1=\"av03\" point2=\"sv03\"/>\\u000a          <ttc code=\"singlev\" point1=\"ab01\" point2=\"sv04\"/>\\u000a          <ttc code=\"singlev\" point1=\"av02\" point2=\"sv05\"/>\\u000a        </ttProgram>\\u000a      </data>
p7
g4
tp8
Rp9
Ntp10
s."
EndChar
StartChar: germandbls
Encoding: 266 223 266
GlifName: germandbls
Width: 1300
VWidth: 0
Flags: W
LayerCount: 2
Fore
SplineSet
950 1148 m 257
 956 1196 956 1196 942 1235.5 c 128
 928 1275 928 1275 901.5 1304.5 c 128
 875 1334 875 1334 840 1350.5 c 128
 805 1367 805 1367 769 1369 c 257
 691 1372 691 1372 645 1356 c 128
 599 1340 599 1340 567 1304 c 257
 539 1273 539 1273 524.5 1239 c 128
 510 1205 510 1205 502 1160 c 257
 295 -17 l 257
NamedP: "ab01"
 100 0 l 257
 295 1111 l 257
 329 1306 329 1306 453 1418 c 257
 481 1443 481 1443 510.5 1461.5 c 128
 540 1480 540 1480 579.5 1492.5 c 128
 619 1505 619 1505 671.5 1511 c 128
 724 1517 724 1517 798 1517 c 257
NamedP: "at01"
 880 1517 880 1517 945.5 1490.5 c 128
 1011 1464 1011 1464 1055.5 1417.5 c 128
 1100 1371 1100 1371 1121 1307.5 c 128
 1142 1244 1142 1244 1135 1169 c 257
NamedP: "iv02"
 1129 1106 1129 1106 1110.5 1058 c 128
 1092 1010 1092 1010 1061.5 972.5 c 128
 1031 935 1031 935 990 908 c 128
 949 881 949 881 899 860 c 257
 737 816 l 257
NamedP: "iv01"
 882 802 l 257
 940 784 940 784 987.5 753.5 c 128
 1035 723 1035 723 1066 680.5 c 128
 1097 638 1097 638 1109.5 582.5 c 128
 1122 527 1122 527 1111 460 c 257
NamedP: "iv03"
 1102 366 1102 366 1070 295.5 c 128
 1038 225 1038 225 991 174 c 128
 944 123 944 123 884.5 89.5 c 128
 825 56 825 56 760 36 c 128
 695 16 695 16 627.5 8 c 128
 560 0 560 0 498 0 c 257
NamedP: "ab02"
 466 160 l 257
 565 160 565 160 644 171.5 c 128
 723 183 723 183 780.5 215 c 128
 838 247 838 247 873 303.5 c 128
 908 360 908 360 919 450 c 257
 936 591 936 591 852.5 660.5 c 128
 769 730 769 730 606 730 c 257
 564 885 l 257
 628 885 628 885 693 897.5 c 128
 758 910 758 910 812 940.5 c 128
 866 971 866 971 903.5 1021.5 c 128
 941 1072 941 1072 950 1148 c 257
EndSplineSet
PickledDataWithLists: "(dp0
Vcom.fontlab.ttprogram
p1
(c_codecs
encode
p2
(Vdata
p3
Vlatin1
p4
tp5
Rp6
g2
(V<data>\\u000a        <ttProgram>\\u000a          <ttc code=\"alignt\" point=\"at01\" zone=\"t: 1\"/>\\u000a          <ttc code=\"alignb\" point=\"ab01\" zone=\"b: 0\"/>\\u000a          <ttc code=\"alignb\" point=\"ab02\" zone=\"b: 0\"/>\\u000a          <ttc code=\"interpolatev\" point=\"iv01\" point1=\"iv02\" point2=\"iv03\"/>\\u000a        </ttProgram>\\u000a      </data>
p7
g4
tp8
Rp9
Ntp10
s."
EndChar
StartChar: acircumflex
Encoding: 91 226 91
GlifName: acircumflex
Width: 1300
VWidth: 0
Flags: W
LayerCount: 2
Fore
SplineSet
927 930 m 257
 909 938 909 938 883.5 944 c 128
 858 950 858 950 835 953 c 257
 808 957 808 957 779 958 c 257
 677 958 677 958 601 923 c 128
 525 888 525 888 472 827 c 128
 419 766 419 766 388 685 c 128
 357 604 357 604 346 512 c 257
 340 462 340 462 340 421 c 257
 340 352 340 352 354 300 c 128
 368 248 368 248 393 213.5 c 128
 418 179 418 179 451 161.5 c 128
 484 144 484 144 523 144 c 257
 575 144 575 144 619 158 c 128
 663 172 663 172 699.5 195 c 128
 736 218 736 218 766.5 247 c 128
 797 276 797 276 821 306 c 257
 927 930 l 257
768 0 m 257
NamedP: "ab02"
 796 162 l 257
 681 49 l 257
 660 32 660 32 639.5 19.5 c 128
 619 7 619 7 594.5 -1 c 128
 570 -9 570 -9 538 -13 c 128
 506 -17 506 -17 462 -17 c 257
NamedP: "ab01"
 391 -17 391 -17 335 15 c 128
 279 47 279 47 240 104.5 c 128
 201 162 201 162 180.5 242 c 128
 160 322 160 322 160 419 c 257
 160 447 160 447 161.5 476.5 c 128
 163 506 163 506 167 536 c 257
 180 647 180 647 225 751.5 c 128
 270 856 270 856 348.5 937 c 128
 427 1018 427 1018 539.5 1067.5 c 128
 652 1117 652 1117 800 1117 c 257
NamedP: "av01"
 884 1117 884 1117 970 1103 c 128
 1056 1089 1056 1089 1133 1063 c 257
 981 180 l 257
 970 0 l 257
NamedP: "sv01"
 768 0 l 257
NamedP: "ab02"
1129 1220 m 257
NamedP: "sv02"
 979 1220 l 257
 905 1372 l 257
 891 1460 l 257
 846 1373 l 257
 718 1220 l 257
 568 1220 l 257
NamedP: "av02"
 793 1500 l 257
 997 1520 l 257
 1129 1220 l 257
NamedP: "sv02"
EndSplineSet
PickledDataWithLists: "(dp0
Vcom.fontlab.ttprogram
p1
(c_codecs
encode
p2
(Vdata
p3
Vlatin1
p4
tp5
Rp6
g2
(V<data>\\u000a        <ttProgram>\\u000a          <ttc align=\"round\" code=\"alignv\" point=\"av01\"/>\\u000a          <ttc code=\"alignb\" point=\"ab01\" zone=\"b: 0\"/>\\u000a          <ttc code=\"alignb\" point=\"ab02\" zone=\"b: 0\"/>\\u000a          <ttc code=\"singlev\" point1=\"ab02\" point2=\"sv01\"/>\\u000a          <ttc align=\"round\" code=\"alignv\" point=\"av02\"/>\\u000a          <ttc code=\"singlev\" point1=\"av02\" point2=\"sv02\"/>\\u000a        </ttProgram>\\u000a      </data>
p7
g4
tp8
Rp9
Ntp10
s."
EndChar
